<?xml version="1.0" standalone="no"?>
<!DOCTYPE svg PUBLIC "-//W3C//DTD SVG 20010904//EN"
 "http://www.w3.org/TR/2001/REC-SVG-20010904/DTD/svg10.dtd">
<svg version="1.0" xmlns="http://www.w3.org/2000/svg"
 width="512.000000pt" height="512.000000pt" viewBox="0 0 512.000000 512.000000"
 preserveAspectRatio="xMidYMid meet">
<metadata>
Created by potrace 1.11, written by Peter Selinger 2001-2013
</metadata>
<g transform="translate(0.000000,512.000000) scale(0.100000,-0.100000)"
fill="#000000" stroke="none">
<path d="M0 2560 l0 -2560 2560 0 2560 0 0 2560 0 2560 -2560 0 -2560 0 0
-2560z m2328 438 c-4 -726 -4 -734 -26 -806 -80 -261 -245 -403 -537 -463 -90
-18 -316 -16 -399 4 -88 22 -184 61 -261 105 -65 39 -220 183 -214 201 5 14
281 321 289 321 4 0 19 -14 36 -31 45 -48 149 -119 204 -140 34 -13 76 -19
130 -19 129 0 191 37 232 139 22 54 22 69 26 518 l4 463 -379 2 -378 3 -3 218
-2 217 640 0 641 0 -3 -732z m1830 0 c-4 -726 -4 -734 -26 -806 -80 -261 -245
-403 -537 -463 -90 -18 -316 -16 -399 4 -88 22 -184 61 -261 105 -65 39 -220
183 -214 201 5 14 281 321 289 321 4 0 19 -14 36 -31 45 -48 149 -119 204
-140 34 -13 76 -19 130 -19 129 0 191 37 232 139 22 54 22 69 26 518 l4 463
-379 2 -378 3 -3 218 -2 217 640 0 641 0 -3 -732z"/>
</g>
</svg>
