<svg xmlns="http://www.w3.org/2000/svg" width="380" height="550" viewBox="0 0 380 550"><defs><style>.cls-1{fill:#31771b;}.cls-2{fill:#d77864;}</style></defs><title>Artboard 1</title><g id="Layer_2" data-name="Layer 2"><path class="cls-1" d="M98.1,288.23l-1.82-4.34L93.21,287l.78.55L98.3,285c-6.79-9.26-17.61-11.21-28.37-12.58l.66,4.91a5,5,0,0,1,5.31,1.9c2.1,2.24,5-.6,3.92-3L78.9,274a2.53,2.53,0,0,0-2.16-1.24l-21.37-2.26c-3.2-.34-3.17,4.66,0,5l21.37,2.26-2.16-1.24.93,2.17,3.92-3a10.44,10.44,0,0,0-10.17-3.19c-3,.55-1.86,4.59.67,4.91,8.7,1.11,18.48,2.5,24.06,10.11,1.86,2.54,5.93.34,4.31-2.53a5.29,5.29,0,0,0-3.76-2.84c-1.65-.37-3.87,1.19-3.08,3.08l1.82,4.34c1.23,2.92,6.07,1.63,4.82-1.33Z"/><path class="cls-1" d="M55.07,275.58c3.22,0,3.22-5,0-5s-3.22,5,0,5Z"/><path class="cls-1" d="M55.77,277.18c5.31,5.25,10.16,9.33,17.26,12.06A47.29,47.29,0,0,0,94.88,292l-.66-4.91a20.81,20.81,0,0,1-12.44-1.6l-1.27,4.66c3.45-.42,9.8.14,12.62-2.27a3.93,3.93,0,0,0,.1-5.82c-2.54-2.52-7.89-2.78-11.19-3.66l-17.25-4.59c-2.25-.6-4.47,2.53-2.44,4.17a41.32,41.32,0,0,0,20.39,9.09c3.15.46,4.51-4.36,1.33-4.82a36.8,36.8,0,0,1-18.18-7.8l-2.43,4.18,17.25,4.59c.94.25,8.2,2,8.18,2.17.21-2.2-7-.4-8.38-.24-2.13.26-3.8,3.5-1.26,4.66a26.89,26.89,0,0,0,16.3,2.1c2.74-.47,2.14-5.2-.67-4.91a43.71,43.71,0,0,1-19-2.07c-6.77-2.35-11.52-6.35-16.55-11.32-2.29-2.26-5.83,1.27-3.54,3.54Z"/><path class="cls-1" d="M236.38,334.78a7.14,7.14,0,0,1,5.58-3.61L239.53,327l-2.6,2.42c-1.48,1.38-.42,4.51,1.77,4.27,4.07-.45,9.87-.08,13.36-2.6a5.71,5.71,0,0,0,1.59-7.81l-3.42,3.42.49.58h4.82a7.32,7.32,0,0,0-6.4-5c-3.92-.38-7.09,2-10,4.35-1.7,1.37-.28,4.34,1.77,4.27l4.94-.19c3.2-.12,3.22-5.12,0-5l-4.94.19,1.77,4.26c1.52-1.23,6.67-5.24,8-1.5.79,2.2,4.19,2.55,4.82,0a5.11,5.11,0,0,0-2.79-6.23c-2.05-.93-5,1.14-3.42,3.42,1.33,2-9.74,2.79-10.63,2.89l1.77,4.27,2.6-2.42c2-1.87-.18-4.53-2.44-4.18a11.85,11.85,0,0,0-8.57,5.9c-1.65,2.77,2.67,5.29,4.32,2.53Z"/><path class="cls-1" d="M236.51,333.9c3.22,0,3.22-5,0-5s-3.22,5,0,5Z"/><path class="cls-1" d="M189.53,294.5l-2.65,2.63,3.92,3a9.41,9.41,0,0,0,1.71-4.85l-3.76,2.16,1.08.8c2.41,1.76,4.8-1.92,3-3.93l-6.49-7.4c-1.57-1.79-5.16.11-4.18,2.43l3,7.16c1.2,2.86,5.78,1.86,4.82-1.32L183,271.77c-.93-3.07-5.76-1.76-4.83,1.33l7.07,23.43,4.82-1.32L187,288l-4.17,2.43,6.49,7.41,3-3.93-1.09-.8c-1.7-1.25-3.57.51-3.76,2.16l-1,2.33c-1.66,2.36,2,5,3.93,3l2.66-2.64c2.29-2.27-1.25-5.8-3.54-3.53Z"/><path class="cls-1" d="M183.48,270l2-9.53-4.91-.66-.83,11,4.91-.67c-1.15-7,3.51-13,6.19-19a22.47,22.47,0,0,0,1.95-13.51c-.36-2-3.74-2.54-4.57-.59-4.74,11.08-9.4,22.19-11.92,34l4.57-.6a23.61,23.61,0,0,0-10.47-11.56c-1.8-1-4.41.68-3.68,2.82a12,12,0,0,0,8.68,8.23c2.86.76,4.18-3,1.93-4.57a51.43,51.43,0,0,1-16.23-18.79c-1.21-2.34-4.53-1.06-4.66,1.26a15.84,15.84,0,0,0,10.53,15.89c2.19.85,3.72-1.92,2.82-3.67l-6.28-12.31c-1.34-2.63-5.13-.74-4.57,1.92A16.69,16.69,0,0,0,182,261.85L180,257.28l-5.3,3.3,3,3.93,5-5.17a2.53,2.53,0,0,0-1.77-4.27l-10.28.22c-3.21.07-3.22,5.07,0,5l10.28-.22-1.76-4.27-5,5.17c-1.94,2,.57,5.46,3,3.93l5.31-3.3c2.28-1.42.79-5.7-1.93-4.57-7.62,3.18-15.17-.51-16.91-8.64l-4.57,1.93,6.28,12.31,2.83-3.67a10.76,10.76,0,0,1-6.86-11.07l-4.66,1.26a56.76,56.76,0,0,0,18,20.59l1.92-4.57a6.74,6.74,0,0,1-5.18-4.74l-3.68,2.83a19.37,19.37,0,0,1,8.68,9.76c.84,2,4.14,1.39,4.57-.59,2.43-11.41,6.85-22.14,11.41-32.83l-4.56-.6c1.25,7-3.38,13-6.08,19.05a22.86,22.86,0,0,0-2.06,13.5c.49,2.94,4.72,2,4.91-.66l.83-11c.2-2.79-4.35-3.42-4.92-.66l-2,9.52c-.65,3.14,4.17,4.49,4.82,1.33Z"/><path class="cls-1" d="M171.47,237.9c3.22,0,3.22-5,0-5s-3.22,5,0,5Z"/><path class="cls-1" d="M173.41,236c1.8-2.25,3.61-4.5,5.4-6.76,1.37-1.72,2.81-3.84,1.2-5.93-1.26-1.65-3.45-1.63-5.33-1.64l-8.72,0a2.53,2.53,0,0,0-1.77,4.27,21,21,0,0,1,4.36,6.84c.82,2.1,4.24,2.63,4.82,0l.91-4.09c.7-3.14-4.12-4.48-4.82-1.33l-.91,4.09h4.82a27.34,27.34,0,0,0-5.65-9L166,226.64l6,0h4.14c.58.11.6.06,0-.15l-.25-1.92c-.26,1.4-2.08,3-3,4.1l-3,3.76c-2,2.49,1.53,6.05,3.54,3.53Z"/><path class="cls-1" d="M172,239.77a1.25,1.25,0,0,0,0-2.5,1.25,1.25,0,0,0,0,2.5Z"/><path class="cls-1" d="M170.76,236.69l1,5c.3,1.58,2.71.91,2.41-.67l-1-5c-.29-1.58-2.7-.91-2.41.67Z"/><path class="cls-1" d="M173.19,233.39l-.48,1.92a1.25,1.25,0,0,0,2.41.67l.48-1.92c.39-1.56-2-2.23-2.41-.67Z"/><path class="cls-1" d="M110.35,299.71l-.13,4.8a1.28,1.28,0,0,0,1.25,1.25,2.31,2.31,0,0,0,2.52-2.34,1.26,1.26,0,0,0-1.88-1.08,26.76,26.76,0,0,1-4.9,2.24,22.77,22.77,0,0,1-2.57.72c-.42.1-2.53.21-1.71,1.24.18.22,9.3-5.13,10.12-5.58,1.4-.78.14-2.94-1.27-2.16l-8.55,4.72c-1.29.71-3.83,1.87-2.65,3.79,1,1.61,3.71.65,5.1.32a29.61,29.61,0,0,0,7.69-3.13l-1.88-1.08,0-.16,1.25,1.25.13-4.8c.05-1.61-2.45-1.61-2.5,0Z"/><path class="cls-1" d="M133.75,294a62.41,62.41,0,0,1-7.17-38.8l-2.45-.33-.13,8.28h2.5l.21-16a1.25,1.25,0,0,0-2.5,0c-.33,10.73-.87,21.48-1,32.22-.06,6.37,1.31,13.26,8.16,15.36a1.26,1.26,0,0,0,1.54-1.53,17.68,17.68,0,0,0-6.19-11.09,1.26,1.26,0,0,0-2.09,1.22l1.89,6.38,2.41-.66a65.52,65.52,0,0,1-4.81-20.92,1.25,1.25,0,0,0-2.5,0l.18,15.43a1.25,1.25,0,0,0,2.5,0l-.18-15.43h-2.5a67.94,67.94,0,0,0,4.9,21.58c.59,1.45,2.88.92,2.41-.66l-1.89-6.38L125,284a15.69,15.69,0,0,1,5.55,10l1.54-1.54c-8.72-2.67-6.26-15.35-6.05-22.19l.71-23h-2.5l-.21,16a1.25,1.25,0,0,0,2.5,0l.13-8.28c0-1.36-2.26-1.75-2.46-.33a65.24,65.24,0,0,0,7.42,40.72c.78,1.41,2.94.15,2.16-1.26Z"/><path class="cls-1" d="M126.22,253.45l1.56-5h-2.41a12.56,12.56,0,0,1-1.11,7.63c-.71,1.44,1.45,2.7,2.15,1.26a15.39,15.39,0,0,0,1.37-9.56c-.22-1.29-2.07-1.08-2.41,0l-1.56,5c-.48,1.54,1.94,2.2,2.41.67Z"/><path class="cls-1" d="M123.62,262.64l-2,7.25a1.25,1.25,0,0,0,2.41.66l2-7.25a1.25,1.25,0,0,0-2.41-.66Z"/><path class="cls-1" d="M129.37,289.78l-.48-.24a1.25,1.25,0,1,0-1.26,2.15l.48.25a1.28,1.28,0,0,0,1.71-.45,1.25,1.25,0,0,0-.45-1.71Z"/><path class="cls-1" d="M224.83,253.42c-8.07-12.84.87-26.86,8.18-37.66,1.8-2.67-2.53-5.18-4.32-2.52-8.39,12.39-17.31,28.17-8.18,42.7,1.71,2.72,6,.21,4.32-2.52Z"/><path class="cls-1" d="M223.26,254.82,223,255a2.57,2.57,0,0,0-.9,3.42l.2.42a2.49,2.49,0,0,0,2.82,1.15c2.83-.81,4.1-4.42,5.33-6.81a59.23,59.23,0,0,0,4.75-12.32,52.7,52.7,0,0,0,.11-26.05c-.78-3.12-5.61-1.8-4.82,1.33a46.43,46.43,0,0,1,.45,20.94,54.3,54.3,0,0,1-2.63,8.83c-.49,1.26-3.16,8.87-4.52,9.26l2.82,1.15-.19-.42-.9,3.42.31-.19c2.77-1.64.26-6-2.52-4.31Z"/><path class="cls-1" d="M226.52,252.91a82,82,0,0,0,5.69-32.81c-.06-2.29-3.55-3.64-4.65-1.26a67.69,67.69,0,0,0-6.4,29.09c0,3.22,5,3.22,5,0a61.94,61.94,0,0,1,5.71-26.56l-4.66-1.27a78.61,78.61,0,0,1-5.51,31.48c-1.18,3,3.65,4.29,4.82,1.33Z"/><path class="cls-1" d="M260.52,242.21l.43-6.34-4.66,1.27,1,1.83c1.51,2.66,4.94.69,4.57-1.93a77,77,0,0,0-3.12-13.74c-.85-2.55-1.52-6.33-4.19-7.59a2.52,2.52,0,0,0-2.52,0c-1.85,1.35-2,2.57-2.46,4.81a43.75,43.75,0,0,0-1.26,9.72c.17,4.52,2.59,8.57,7.2,9.54,3.14.67,4.48-4.15,1.33-4.82-3.86-.81-3.7-5.07-3.28-8.15.15-1.1.64-6.52,1-6.78h-2.52c1.65.78,2.71,7.2,3.14,8.82a79.27,79.27,0,0,1,1.87,9.52l4.57-1.93-1-1.83c-1.28-2.27-4.5-1.11-4.65,1.26l-.43,6.34c-.22,3.22,4.78,3.2,5,0Z"/><path class="cls-1" d="M257.79,234.29,256.14,226c-.63-3.15-5.45-1.82-4.82,1.33l1.65,8.27c.63,3.16,5.45,1.82,4.82-1.33Z"/><path class="cls-1" d="M252.72,232c.19.08.32.19.11,0-.45-.36.19.26,0,0,0,0-.34-.34-.11-.09s-.09-.16-.11-.21c-.23-.36.06.08,0,.09s-.09-.35-.1-.35,0,.59,0,0a3.44,3.44,0,0,1,0-.46,2.49,2.49,0,0,0-2.5-2.5,2.57,2.57,0,0,0-2.5,2.5,5.74,5.74,0,0,0,3.83,5.8,2.49,2.49,0,0,0,3.07-1.74,2.58,2.58,0,0,0-1.75-3.08Z"/><path class="cls-1" d="M255,237.72,257,241.8a2.52,2.52,0,0,0,3.42.9,2.56,2.56,0,0,0,.9-3.42l-1.93-4.08a2.52,2.52,0,0,0-3.42-.9,2.56,2.56,0,0,0-.9,3.42Z"/><path class="cls-1" d="M260.77,234.86l7.54-10L264,222.38l-2.76,5.7,4.32,2.52,1.38-2.85c.72-1.49-.11-4-2.16-3.76a17.45,17.45,0,0,0-8.4,3.12l3.68,2.82c2.75-10.21,6.12-19.51,14.42-26.55s18.4-10.83,28.35-14.54c3-1.12,1.69-6-1.33-4.82-10.79,4-21.71,8.23-30.56,15.82s-12.72,17.69-15.71,28.76c-.53,2,1.83,4.13,3.68,2.83a12.29,12.29,0,0,1,5.87-2.44l-2.16-3.76-1.38,2.85c-1.39,2.88,2.92,5.42,4.32,2.52l2.76-5.7a2.5,2.5,0,0,0-4.32-2.52l-7.54,10c-1.94,2.57,2.4,5.06,4.32,2.53Z"/><path class="cls-1" d="M268.52,227.48c4.3-3.49,11.84,2.1,16.83,1.41,3.56-.5,6.07-2.84,7.72-5.92,2.31-4.31,3.37-9.47,4.83-14.11l5.75-18.26c1-3.07-3.86-4.39-4.83-1.33l-4.88,15.52c-1.57,5-2.69,10.65-5.05,15.34-3.36,6.66-10.06,2.1-15.48,1.45a10.48,10.48,0,0,0-8.43,2.36c-2.5,2,1.06,5.55,3.54,3.54Z"/><path class="cls-1" d="M297.24,188.19a100.07,100.07,0,0,0-10.85,27,9.08,9.08,0,0,1-.63,2.46l-1.73.79.93-1.75c.86-2.41,2.5-4.77,3.7-7L297,193.83c1.3-2.47-1.86-5.09-3.92-3-8.09,8.06-5.87,19.7-9.5,29.64h4.82a28.35,28.35,0,0,1,2.33-24.36c1.39-2.36-2.11-5.29-3.93-3A61.72,61.72,0,0,0,274.33,219c-.57,2.63,3.23,4.59,4.57,1.92l3.94-7.89-4.66-1.26c-.09,2.89-.86,5.86-3.23,7.74-1.65,1.31-6,2.77-7.26.73l.9-3.42-2.65,1.27c-2.17,1-1.19,4.93,1.26,4.66l7.08-.78c3.12-.35,3.29-5,0-5l-7.31-.07,1.26,4.65,5.13-2.84A2.52,2.52,0,0,0,272.1,214l-5.58.1.67,4.91,10-2.14c2.71-.57,2.16-5.26-.66-4.91l-12,1.52,1.26,4.66,8.79-3.89L272.08,210l-7.95,3.73,2.52,4.32a50.51,50.51,0,0,0,19.71-19c1.06-1.81-.72-4.37-2.83-3.67a32.39,32.39,0,0,0-17.47,13.58c-1.42,2.24,1.32,4.48,3.42,3.42l8.1-4.07c2.87-1.45.34-5.77-2.53-4.32L267,208l3.42,3.42a26.88,26.88,0,0,1,14.48-11.29L282,196.49a45.46,45.46,0,0,1-17.91,17.21c-2.87,1.55-.35,5.66,2.52,4.32l8-3.73c2.93-1.37.37-5.6-2.53-4.32l-8.78,3.89c-2.21,1-1.16,5,1.26,4.66l12-1.52-.67-4.91-10,2.14c-2.78.59-2.14,5,.66,4.91l5.58-.1-1.27-4.66-5.12,2.85c-2.2,1.22-1.17,4.63,1.26,4.66l7.31.07v-5l-7.08.78,1.26,4.66,2.65-1.27a2.53,2.53,0,0,0,.9-3.42c-4.82-8-14.79,2.1-7,7,9.3,5.87,17.9-4.28,18.16-13,.07-2.41-3.54-3.49-4.66-1.26l-3.94,7.89,4.57,1.93a56.21,56.21,0,0,1,11.18-23.73l-3.93-3a33.29,33.29,0,0,0-2.83,28.21,2.52,2.52,0,0,0,4.82,0c3.24-8.87,1.07-20.32,8.21-27.43l-3.93-3c-4.28,8.14-9.21,16.21-13,24.61-1.65,3.71-1.57,8.66,3.65,9,5.83.37,7.16-5.76,8.26-10.13a90.64,90.64,0,0,1,9.94-24.07c1.63-2.78-2.69-5.3-4.32-2.52Z"/><path class="cls-1" d="M281.09,207.92a30.14,30.14,0,0,0-20.41,13.72,2.52,2.52,0,0,0,2.16,3.76l18.76-1c3.2-.18,3.22-5.18,0-5l-18.76,1,2.15,3.76a25.33,25.33,0,0,1,17.43-11.42c3.16-.54,1.82-5.36-1.33-4.82Z"/><path class="cls-1" d="M112.7,272.18l1-7.78-2.46-.33-.3,3.86a10.92,10.92,0,0,1-.18,2.14c-.31,1.07-.62,1.28-1.68,1.23-2.61-.11-5.24-.51-7.83-.77l.33,2.45c3.57-1.11,7.73-1.83,10.5-4.54l-2-1.51-1,1.92-.41.77c-.43.53-.18.91.77,1.13,1.3-.93,0-3.1-1.26-2.16s-2.58,3.12-.51,4.08c2.49,1.16,3.82-3,4.57-4.48a1.25,1.25,0,0,0-2-1.51c-2.38,2.32-6.31,2.93-9.4,3.89a1.26,1.26,0,0,0,.34,2.46l6.71.67a6.14,6.14,0,0,0,3.65-.3,3.42,3.42,0,0,0,1.58-2.64c.37-2.18.38-4.48.55-6.69.11-1.38-2.26-1.73-2.45-.33l-1,7.77c-.22,1.58,2.19,2.26,2.41.67Z"/><path class="cls-2" d="M123.71,336.32,128,345c1.21,2.41,4.62,3.09,6.84,1.79a5.1,5.1,0,0,0,1.8-6.84l-4.32-8.64c-1.21-2.41-4.62-3.09-6.84-1.79a5.1,5.1,0,0,0-1.8,6.84Z"/><path class="cls-2" d="M139,352.26l41,19.85,3.86-9.14c-10-2.71-20.18,4.67-19.2,15.43.44,4.81,3.27,8.7,7.06,11.52s10,4.35,12.56,8.44c3.4,5.5-4.49,8.07-8.61,7.13-5.76-1.32-10-6.1-13.93-10.18q-14.2-14.73-28.35-29.51c-4.47-4.65-11.52,2.42-7.07,7.07L148.48,396,147.7,390l-1,1.41a5,5,0,0,0,.79,6.05l2.18,1.86,6.06-7.86a90.25,90.25,0,0,1-27.62-35.9c-2-4.6-9.57-2.21-9.31,2.52a26.88,26.88,0,0,0,7.9,18.07c3.88,3.91,11.18-1.29,7.85-6.06a95.1,95.1,0,0,1-14.67-32.45,73.73,73.73,0,0,1-2.32-17.17c0-3.71,3.23-9.35,7.65-5.85l4.87-8.36c-9.67-4-19.67,4.09-21.86,13.38-2.74,11.64,2,25.23,4.18,36.67,1.21,6.31,10.85,3.64,9.65-2.66-1.53-8-3.65-16.11-4.42-24.21-.53-5.68,1.5-17,9.79-13.54,4.53,1.88,8.69-5.33,4.86-8.35-5.24-4.15-12.07-5-17.93-1.39-6.74,4.13-7.14,12.1-6.51,19.19A103.09,103.09,0,0,0,126,375.11l7.85-6.06a16.28,16.28,0,0,1-5-11l-9.32,2.53a99.92,99.92,0,0,0,31.2,39.49c4.47,3.44,10.38-4.19,6.06-7.85l-2.18-1.86.78,6.06,1-1.4a5.06,5.06,0,0,0-.78-6.06L133.4,365.8l-7.07,7.07c9.82,10.22,19.57,20.52,29.46,30.66,7.42,7.61,17.89,15.49,29.11,11.12,9.24-3.6,13.36-14.87,6.92-22.9-3.33-4.15-8.13-6-12.53-8.77-2.17-1.35-4.76-3.13-4.72-6,.06-3.66,3.46-5.23,6.64-4.37,5.31,1.44,9.09-6.6,3.85-9.13L144,343.63c-5.77-2.79-10.85,5.83-5,8.63Z"/><path class="cls-2" d="M137.59,375a36.73,36.73,0,0,1-13.16-22.43c-1.14-6.32-10.78-3.64-9.65,2.66a45.13,45.13,0,0,0,15.74,26.85c4.93,4,12-3,7.07-7.08Z"/><path class="cls-2" d="M118.87,332.2c-.24-1.51-3.22-15.05-2.26-15.54,5.74-2.9.69-11.53-5-8.63-4.09,2.06-5.35,6.38-4.86,10.69.61,5.4,1.67,10.77,2.53,16.13,1,6.34,10.64,3.65,9.64-2.65Z"/><path class="cls-2" d="M105.58,315.55a19.39,19.39,0,0,0,0,14.18c1,2.51,3.35,4.27,6.15,3.5,2.39-.66,4.5-3.63,3.49-6.15a11.12,11.12,0,0,1,0-8.87c1-2.5-1.11-5.49-3.5-6.15-2.85-.78-5.13,1-6.15,3.49Z"/><path class="cls-2" d="M191,409.56c13-3.79,23.48-14.78,33.77-23.13l36.36-29.52c4.39-3.57,10.19-7.5,8.82-14-1.14-5.44-7-7.6-11.75-5.3-5.07,2.46-7.77,7.23-13.6,8.59a19,19,0,0,1-15.54-3.12l-3.85,9.14,5.18,1.54c4.18,1.24,7.86-3.64,5.65-7.35l-3.65-6.11c-3.3-5.52-12-.49-8.64,5.05l3.65,6.11,5.65-7.35-5.18-1.54c-5.7-1.69-8.32,6-3.85,9.14A28.73,28.73,0,0,0,249.89,355a31.22,31.22,0,0,0,10.64-6.78,13.72,13.72,0,0,1,1.62-1.42l-2.92-1.2c-1.05.13-2.79,2.31-3.59,2.95l-7.73,6.28-30.18,24.5c-8.84,7.18-18.15,17.3-29.35,20.56-6.17,1.79-3.54,11.45,2.66,9.64Z"/><path class="cls-2" d="M239.62,347.51l-6.49-2.86c-2.38-1-5.48-.78-6.84,1.79-1.14,2.17-.76,5.72,1.8,6.84l6.49,2.86c2.38,1.05,5.48.78,6.84-1.79,1.14-2.17.76-5.72-1.8-6.84Z"/><path class="cls-2" d="M260.68,355.48c3.53-.79,8.45-1,10.54-4.44s1.06-8.19-2.57-10c-2.34-1.15-5.52-.7-6.84,1.8-1.19,2.26-.71,5.6,1.8,6.84.9.45-.86-.93-.9-1a2.32,2.32,0,0,1-.18-2.14,1.64,1.64,0,0,1,.73-1.36,1.71,1.71,0,0,1,.68-.63c.24-.12.22-.13-.06,0l-.79.18L258,345.83a5,5,0,0,0-3.49,6.15,5.12,5.12,0,0,0,6.15,3.5Z"/><path class="cls-2" d="M231.59,344.65l-4.54-8.78-5.65,7.34,1.35.88,9.14-3.85-6.35-14.55-8.63,5.05,4,7.22c2.7,4.87,11,1.59,9.14-3.86l-7.15-21.35-9.14,3.86,3,6.12c2.57,5.27,10.36,1.47,9.13-3.85l-5-21.79-9.14,3.85,2.83,5.29,8.64-5.05-6.43-8.4-1.8,6.84.68-.41-3.85.5-1.85-2.1,8.35-4.86c-4.9-4.7-11.9-4.18-17.39-.72-3,1.88-5.41,5.19-8.69,6.54a6.58,6.58,0,0,1-9.38-6l-8.54,3.53,3.31,4.19c3.51,4.44,10.93-1.34,7.85-6.06l-9.21-14.15-7.86,6.06,5.45,6.21,7.07-7.07a27,27,0,0,0-20.36-8.67c-6.5.05-6.36,9.54,0,10l8.4.6c5.64.41,6.78-8.52,1.33-9.82-9.8-2.34-20.09.12-27.23,7.41-6.85,7-9.77,16.66-12.28,25.85-1.69,6.22,8,8.87,9.65,2.66,3.59-13.18,10-30.37,27.2-26.28l1.33-9.82-8.4-.6v10a17.23,17.23,0,0,1,13.29,5.74c4.43,4.74,11.28-2.27,7.07-7.07l-5.45-6.21c-3.72-4.25-10.95,1.3-7.85,6.06l9.22,14.14,7.85-6.06L181.36,289c-2.71-3.42-8.72-.54-8.53,3.54.41,8.76,6.68,16.23,15.8,16.62a18.14,18.14,0,0,0,11.72-4.05c2.07-1.56,8-8.11,10.87-5.33a5,5,0,0,0,8.36-4.86,6.36,6.36,0,0,0-9.66-4c-2.09,1.27-3.47,4.65-1.8,6.84l6.43,8.4c3.81,5,11.77.8,8.64-5.05l-2.84-5.29c-2.75-5.13-10.38-1.53-9.14,3.86l5,21.79,9.14-3.86-3-6.12c-2.47-5.06-10.93-1.52-9.13,3.85l7.15,21.35,9.14-3.85-4-7.22c-3.19-5.77-11.14-.7-8.63,5.05l6.34,14.54c2.24,5.14,11.18,1.45,9.14-3.85-1.56-4.05-4.08-6.71-8.33-7.86s-7.62,3.54-5.65,7.35L223,349.7c3,5.72,11.59.67,8.64-5.05Z"/><path class="cls-2" d="M158.05,284.27c-1.09-4.51-6.31-6.55-10.4-4.77a10.82,10.82,0,0,0-4.63,4.21c-.43.65-.77,1.35-1.2,2a1.45,1.45,0,0,1-.85.77l6.06,7.85,2.76-2.81c1.8-1.84,2-5.27,0-7.07l-.85-.76a5.13,5.13,0,0,0-7.07,0,5.05,5.05,0,0,0,0,7.08l.85.75v-7.07L140,287.27c-4.12,4.2,1.06,10.27,6.06,7.85a11.81,11.81,0,0,0,4.74-4.86c.23-.39,1-1.66,1-1.64s-.31.13-.41.11c-1.25-.28-2.43.3-2.94-1.8a5,5,0,1,0,9.64-2.66Z"/><path class="cls-2" d="M214.36,345.68,197,363.52c-2.77,2.84-5.51,5.73-8.32,8.53-.51.51-3.53,3.31-2.24,2.32a20.92,20.92,0,0,1-1.95,1.26c-1.82,1.11,1.59-.19-.76.36a6.48,6.48,0,0,1-1.9.22,43.6,43.6,0,0,1-5-1.16c-1.36-.41-2.7-.89-4-1.39,2.3.87-1.51-.75-2.21-1.12a61.57,61.57,0,0,1-7.8-4.86c1.86,1.36-.84-.73-1.38-1.2-1.42-1.25-2.78-2.57-4.08-3.94-1-1-1.9-2.1-2.82-3.18-1.71-2,.31.75-1.09-1.48-1.77-2.83-3.45-5.6-5-8.57-1.25-2.41.19.94-.7-1.62-.55-1.56-1.09-3.11-1.54-4.7-.38-1.37-.71-2.74-1-4.13-.14-.69-.26-1.39-.39-2.08.39,2.17,0,.21,0-.93-.05-.7-.06-1.39-.08-2.1,0-1.32.51-1.11,0-.78,0,0-.48,1.58-.56,1.74-.58,1.1-2.75,1.93-3.25,2.84s-.51.05.66-.08c.87-.09,1.8-.32,2.64-.47a31.73,31.73,0,0,0,4.55-1c9.51-3.09,15.77-11,17.36-20.8.29-1.78.51-3.55.87-5.31.22-1.07.81-1.21.24-1s-1.81,2.65-2.75,3.08l-4.74-.11q-4.17,1.51-6.36-1.67c-1.12-1.08-1.89-1.67-2.31-3.11-.36-1.26,0-2.17.13-3.45-.1,1-.51,1.33,0,.15,0,.07-1.39,1.94-.51.9s-.66.81-.67.82c-1.45,1.75-2.88,3.52-4.24,5.35a42.33,42.33,0,0,0-6,11.61c-5.45,15.68-.79,34.92,11.92,45.8,13.61,11.66,31.5,14.55,47.87,7,15.06-6.9,24.7-22.62,24.7-39.09,0-20.27-14.86-42.36-37.39-37.64-10.24,2.14-17.53,10.92-20.55,20.51-2.95,9.34-1.29,19.65-.62,29.2.55,7.81,6.51,15.38,15,15,7.66-.34,15.59-6.61,15-15-.24-3.44-.49-6.88-.72-10.32-.15-2.15-.3-4.29-.3-6.44a15.31,15.31,0,0,1,.35-3.78c0-.1.79-2.31.26-.89s.44-.64.56-.75a7.12,7.12,0,0,1-2.39,1.74c-.28.14-2.27-.15-.47,0s-.35,0-.46-.09a12.86,12.86,0,0,1-1.53-.88c.37-.12,1.61,2.21.65.74.35.55,2,3.73,1.15,1.7a27.48,27.48,0,0,1,1.28,4.26c.63,2.57.23-.76.18,1.89,0,.74,0,1.48,0,2.22-.06,2.38.91-3-.15,1.14-.16.63-1.27,4-.4,2a21.2,21.2,0,0,1-2.2,3.84c1.21-1.72-1,.95-1.5,1.43,0,0-1.86,1.56-.75.71s-1.29.78-1.52.91c-.63.38-1.28.73-1.94,1.06.65-.32,2.26-.62-.52.14-.75.21-4.2.95-1.78.65a25.2,25.2,0,0,1-4.43.07c2.41.13-1.62-.48-2.5-.73-1.6-.45-.2,0,.14.18-.67-.29-1.33-.66-2-1s-1.27-.75-1.89-1.15c1.76,1.11-.11,0-.47-.36-2-1.83-2.81-2.57-3.77-4.73a14.64,14.64,0,0,1,.17-11.36c.39-.75,2.12-3.45,1.76-3s1.63-1.94,2.11-2.54c3.16-4,5.94-7.89,7.38-12.83a24.19,24.19,0,0,0-6-23.35c-7.85-7.81-21-7.13-28.76.39a26.7,26.7,0,0,0-7,12c-.26.89-2.22,9.59-1.89,9.82-.56-.38,3.45-4.2,3.79-3.73-.08-.11-4.41.85-4.6.88a26.51,26.51,0,0,0-10.24,4c-14.62,9.75-11.56,30.73-6,44.85,5,12.74,12.82,24.38,23.61,33,13.28,10.56,33.11,20.63,50.35,14.44,9.17-3.29,15.64-10.11,22.26-16.93l20-20.58a15.25,15.25,0,0,0,0-21.21c-5.68-5.69-15.55-5.83-21.21,0Z"/><path class="cls-2" d="M210.19,323.78l2.9-2.5a11.14,11.14,0,0,0,3.1-4.82,15.44,15.44,0,0,0-3.1-16.39l-3-2.34a14.91,14.91,0,0,0-7.57-2.05l-4,.53a15,15,0,0,0-6.62,3.86L189,302.56a14.52,14.52,0,0,0-3.1,16.39,11.33,11.33,0,0,0,3.1,4.83l3,2.34a14.91,14.91,0,0,0,7.57,2.05l4-.54a14.94,14.94,0,0,0,6.62-3.85Z"/><path class="cls-2" d="M236.75,354l-2.06,3.64a5.07,5.07,0,0,0,1.79,6.84,7.75,7.75,0,0,0,10.28-2.72,5,5,0,0,0-.39-5.55,5,5,0,0,0-5.25-1.79l-3.21.75a5,5,0,0,0-3.49,6.15,5.11,5.11,0,0,0,6.15,3.49l3.21-.75-5.65-7.34a2.1,2.1,0,0,1-.22.3l.79-1a3.69,3.69,0,0,1-.41.38l1-.78a2.87,2.87,0,0,1-.48.28l1.2-.5a3.73,3.73,0,0,1-.72.22l1.33-.18a3.66,3.66,0,0,1-.74,0l1.33.17a3,3,0,0,1-.72-.2l1.2.51-.17-.09,1.79,6.84,2.07-3.63a5,5,0,0,0-8.64-5.05Z"/><path class="cls-2" d="M200.82,394.21c-5.16.34-8.83,5.85-5.09,10.32,4,4.79,9.73,1.73,12.62-2.34l-8.63-5.05c-3.53,5.32-13.37,6.46-19,8.15a5.05,5.05,0,0,0,0,9.65l3.67,1.13v-9.65a1.67,1.67,0,0,1-2.32-.35c-4.74-4.35-11.83,2.71-7.07,7.07a11.94,11.94,0,0,0,12,2.93,5,5,0,0,0,0-9.65l-3.67-1.13v9.65c8.94-2.71,19.43-4.43,24.95-12.75,3.6-5.43-5-10.23-8.63-5.05l3.08.32,1.47,3.54v-1l-1.47,3.54.64-.75-3.54,1.46.91-.06c6.39-.42,6.43-10.42,0-10Z"/><path class="cls-2" d="M254.51,317.6A56.13,56.13,0,0,1,272,257.54l-7.07-7.07-6,6,8.36,4.87c1-2.86,3.29-4.08,6.14-4.54,6-1,3.79-9.26-1.33-9.82l-3.7-.41,2.53,9.32L328,231a42.3,42.3,0,0,1,6.3-2.66,5.27,5.27,0,0,1,3.3-.37c.17-.62,0-.28-.4,1,.09,1.71-.89,3.29-.58,5.17a8.39,8.39,0,0,0,2.05,4.24,11.22,11.22,0,0,0,8.81,3.47c2.61-.1,9.72-4.43,11.64-2.4l4.86-8.36-2.28-.81-1.33,9.82c5.18.46-5.51,11.75-6.61,12.72a49.91,49.91,0,0,1-13.83,8.56c-5.86,2.43-3.29,12.11,2.66,9.64,9.8-4,19.26-10.21,25.48-19,5.86-8.28,3.8-20.92-7.7-21.93-5.94-.52-6.32,8-1.33,9.82l2.28.82c4.94,1.76,8.09-5,4.87-8.36a11.56,11.56,0,0,0-11-3.22c-2.36.45-4.41,1.73-6.71,2.32-3,.78-1.32,0-1-2.36,1.44-10.13-9.95-12.79-17.4-9.9-21.72,8.42-42.9,18.69-64.25,28-5.09,2.22-1.75,8.85,2.52,9.32l3.7.41-1.33-9.82c-6.42,1-11,5.52-13.13,11.52-1.71,4.83,5,8.26,8.36,4.86l6-6c4.61-4.65-2.2-11.13-7.07-7.07-19.93,16.62-28,45.14-20,69.79,2,6.09,11.64,3.48,9.64-2.66Z"/><path class="cls-2" d="M356.13,271.9c2.72-.56,3.82,1.52,3.16,3.85l9.83,1.33-.6-8.78c-.44-6.36-10.16-6.5-10,0,.4,17.34-17.14,26.52-29.86,34.37-5.29,3.26-13.46,7.27-13.35,14.61.1,6.78,6.72,10.76,12.88,9.6,4-.75,4.4-5.74,2.21-8.36l-1-1.21-6.06,7.85c3.25,2,7,5.28,10.66,6.45q2.31,2.63,1.74-2.18c-1.07,0-2.15-.07-3.22-.17-2-.11-3.91-.27-5.86-.4-9.09-.62-18.18-1.17-27.26-1.9-16.51-1.32-34-4-47-15.17-4.86-4.18-12,2.87-7.07,7.07,18.12,15.56,41.89,17.3,64.71,18.86L328.59,339c4.54.31,10.47,1.52,14.12-2.07,9.07-8.94-8.74-17-14.34-20.39-5.11-3.09-9.56,3.68-6.06,7.85l1,1.21,2.2-8.35c.47-.09,4.68-3.74,6-4.6,2.38-1.51,4.8-2.95,7.21-4.41a110.57,110.57,0,0,0,15.45-10.85c8.41-7.37,14.56-17.65,14.3-29.08h-10l.6,8.78c.37,5.47,8.23,7,9.82,1.33,2.83-10.06-5.52-18.21-15.47-16.15-6.3,1.3-3.64,10.95,2.66,9.64Z"/><path class="cls-2" d="M278.74,325.86a30.1,30.1,0,0,1-13.66-6c-2.1-1.69-5-2.05-7.07,0-1.75,1.75-2.11,5.37,0,7.07a40.19,40.19,0,0,0,18.07,8.56c6.29,1.16,9-8.47,2.66-9.64Z"/><path class="cls-2" d="M328,332a9.14,9.14,0,0,0,5.46,8.29,9.26,9.26,0,0,0,9.82-1.82,5,5,0,0,0,0-7.07,5.12,5.12,0,0,0-7.07,0c.51-.37.53-.4.06-.12a1.42,1.42,0,0,1,1-.26c-.57,0-.52,0,.17.11-.46-.13-.5-.13-.14,0a1.12,1.12,0,0,1,.62.43c-.39-.4-.38-.36,0,.13-.27-.5-.26-.45,0,.13-.14-.56-.13-.5,0,.18-.1-2.61-2.24-5.13-5-5a5.06,5.06,0,0,0-5,5Z"/><path class="cls-2" d="M266.48,292.09c.76-1.14.43,1.09-.63,0-.58-.62,3.22,1.59-.13-.73-4.44-3.07-11.13-.81-13.68,3.58-8.73,15,4.3,30.13,19.11,33,16.22,3.14,33.29,3.63,49.73,5.26,4.3.43,8.56-3.41,9.64-7.34a10.34,10.34,0,0,0-4.59-11.3l-6.66-4.41,3.59,13.68c7-10.83,1.37-25.15-10.08-30-12.22-5.14-24.66.6-33.46,9.36-6.66,6.64-1.14,16.17,7.07,17.07a37.61,37.61,0,0,0,24.79-6.17l-10.1-17.27c-2,1.38-5.52,4.52-8.12,4.64-2.14.1-3.58-1.78-5-3.28-4.15-4.48-8-9.22-10.1-15-2.45-6.64-5.82-13-13.09-15.32-7.51-2.35-16.78,1.4-19.23,9.2-2.34,7.46,1.93,16,9.61,18.09,8.23,2.25,15.15-3.81,17-11.47.67-2.82.39-5.74,1.45-8.46a18.75,18.75,0,0,1,5-6.76c4.7-4.37,11.08-6.94,16.93-9.36L284.2,244.41c-6.89,13.53-22.91,35.23-8.25,49,6.44,6,15.5,5.92,23.75,5.78l13.47-.23,7.7-.13c1.09,0,2.19,0,3.28,0a16,16,0,0,0,3.1-10.88v19.28c17.31-3.44,29.21-18.5,31-35.58.37-3.65-2.26-6.69-5-8.64-1.13-.81-3.11-2.23-2.9-3.78.39-2.86,6.31-4.79,8.42-5.66,11.95-4.95,7.51-21.12-5.32-19.28-7.08,1-11.44-3.3-17.25-6.13-8.44-4.13-18.14.92-20.57,9.78-2.33,8.52,2.67,18.25,5.28,26.23l2,6.16c.2.62.81,4.09,1.33,4.41.07,0,4.38-3.08,4.38-3.16,0,.36-1.72-1-1.94-1.19-4.36-3.77-4.23-9.12-3.05-14.2,1.95-8.42.81-17.76-7.65-22.14-8.89-4.6-17.61,1.64-20.89,9.92-2.82,7.13-4,15.13-5.86,22.57-2.09,8.51-5.86,19.44,1.3,26.7,8.16,8.27,21.39,2.53,22.06-8.58.76-12.85-19.24-12.81-20,0l-.06.91,1.37-5.05-.47.76,3.59-3.59,4.12-.43,4.41,2.57c2.26,1.89.08,2,.71,1.44.41-.36,1-4.39,1.14-4.88l2.67-10.87,2.44-10c.25-1,1.46-3.52,1.19-4.49-.53-1.86-6.55-.17-8.72-1.08q-.34-2.62-.24-.78l-.4,1.67c-.33,1.61-.81,3.15-1.08,4.78a32.89,32.89,0,0,0,8.27,27.84c9,9.95,28.51,11.95,32.29-4.09,1.58-6.73-1.3-13.39-3.36-19.67l-3.45-10.57a24.87,24.87,0,0,0-1.43-4.4c-1.64-2.86.78-.63-1.84.58l-5,1.37q-2.42-1.33-.88-.37c.38.24.75.5,1.1.77,1.07.74,2.13,1.51,3.27,2.16a41.13,41.13,0,0,0,8.37,3.53c6,1.78,12,1.65,18.19.77l-5.32-19.28c-9.6,4-19.58,9.09-22.49,20s3.8,19.93,12.2,26l-4.95-8.63c-.89,8.56-8.32,14.71-16.29,16.3-4.26.84-7.35,5.48-7.35,9.64,0,4.68,3.19,8.05,7.35,9.64,11.08,4.25,21.81-6.92,18.51-17.86-3.72-12.34-18.24-10.53-28.24-10.36-5.46.09-10.91.24-16.36.28-1.53,0-3.05-.11-4.57-.1-1.25,0-1.94-.91-1.35.43-1-2.31,2.83-7.94,3.83-9.89l7.7-15.16c3.49-6.85-2.54-18.3-11.29-14.69-9.59,4-19.47,8-26.86,15.59a38.35,38.35,0,0,0-8,12.1,28.67,28.67,0,0,0-2,7.08,21,21,0,0,0-.46,3.84c.18,2.21-2.49.41,1.53-1.53l5.05-1.36q6.06,13.7-.41,11.35a2.15,2.15,0,0,1-1.81-1.26c.14-.12,1.1,2.05,1.18,2.26,1.21,2.77,2,5.66,3.42,8.38,3,5.86,7.6,11.26,12.05,16.05,4.63,5,10.56,8.82,17.53,9.13,7.33.33,14-3.31,19.79-7.36,4.42-3.09,6.46-8.76,3.58-13.69-2.6-4.45-9.16-6.59-13.68-3.58a20.39,20.39,0,0,1-14.69,3.44l7.07,17.07c2.53-2.51,6-5.79,9.84-5.54a6.08,6.08,0,0,1,2.37.68c.41.22.27,1,.48,1.37-.3-.54,1-2.5-.56-.14-3.06,4.72-.75,10.81,3.59,13.68l6.65,4.41,5.05-18.63-35.37-3.52c-4.28-.42-8.91-.5-13-2a8.68,8.68,0,0,1-2.82-1.87c-.78-.62,0-1.37-.39-.77l-13.69,3.59c9.46,6.54,22.1,2.76,28.13-6.39,7.11-10.78-10.21-20.81-17.27-10.1Z"/><path class="cls-2" d="M333.59,243.72c12.87,0,12.89-20,0-20s-12.89,20,0,20Z"/><path class="cls-2" d="M168.26,215.63c-5.06-4-10.1-7.29-13-13.2l-8.72-17.58c-1.86-3.74-8.33-2.95-9.14,1.2l-.36,1.8h9.65l-6.32-21.27c-2-6.79-4.62-13.8-4.77-21-.14-6.93,2.7-13.16,6.24-19,3.28-5.39,6.87-11.35,11.46-15.73,4.26-4.07,10.79-6.35,14.8-.81,3.13,4.31,4.85,9.37,9.64,12.28,8.45,5.14,19.25,2.25,24.82-5.54l-4.32,2.48,4.34-.15c6.42-.23,6.45-10.23,0-10-3.76.13-6-.13-8.65,2.62a9,9,0,0,1-5.7,3.14c-6.6.76-8.48-5.4-11.49-9.88-8.21-12.21-23.31-9.4-32.18.56s-18,23.62-18.89,37.31c-.51,7.69,1.79,15.29,4,22.58q3.71,12.5,7.42,25c1.33,4.46,8.65,5.06,9.65,0l.35-1.8-9.14,1.19,9.6,19.34c3,6,8.56,9.34,13.72,13.46,5,4,12.11-3.06,7.07-7.07Z"/><path class="cls-2" d="M203.62,117.19c9.34-1.47,12.73,11.12,13.56,17.82.77,6.34-.12,15.19,5,20s12.45,2.75,17.56-.8c1.35-.94,6.81-6.09,8.34-3.65s-4.89,7.23-6.13,8.49a21.84,21.84,0,0,0-5.77,9.61c-1,3.79-.77,7.93-2.74,11.44-3.64,6.51-11.85,10.92-17.66,15.29C208.86,200.6,202.06,206,195,211c-3.2,2.25-6.69,4.56-10.74,4.56-4.61,0-8.91-2.68-12.79-4.86-5.61-3.16-10.66,5.47-5,8.63,6.38,3.6,13.24,7,20.78,6,7.79-1.08,13.93-6.46,20-11q11-8.23,21.94-16.47c5.38-4,11-8.19,13.85-14.5,1.5-3.34,1.72-6.77,2.46-10.3,1-4.67,3.75-6.85,6.94-10.13,4.16-4.27,7.29-10.55,4.79-16.51-2.69-6.4-10.28-7.56-16.09-4.94-3.1,1.4-5.42,3.89-8.37,5.49-1.66.9-3,1.6-4.17-.24-1-1.6-.7-4.72-.87-6.52-.79-8.23-1.49-16.87-6.54-23.75-4.87-6.65-12-10.13-20.18-8.85-6.33,1-3.64,10.64,2.66,9.65Z"/><path class="cls-2" d="M186,216.48l-.67.84a5.06,5.06,0,0,0,1,7.85,7.73,7.73,0,0,0,9.93-1.3,5.44,5.44,0,0,0,1.46-3.53,5,5,0,0,0-5-5,4.82,4.82,0,0,0-3.53,1.46,2.91,2.91,0,0,1-.56.55l1-.78a5.14,5.14,0,0,1-.51.29l1.19-.51a3.29,3.29,0,0,1-.76.21l1.33-.18a3.48,3.48,0,0,1-.79,0l1.33.18a3.38,3.38,0,0,1-.75-.22l1.2.51a2.84,2.84,0,0,1-.5-.32l1,7.86.67-.84a5.47,5.47,0,0,0,1.46-3.54,5,5,0,0,0-5-5,4.82,4.82,0,0,0-3.53,1.47Z"/><path class="cls-2" d="M216.78,119l-.23-.42.68,2.52c.1.8-1.21,1.91.16.69a8.72,8.72,0,0,0,1.87-2.32,8.57,8.57,0,0,0,.68-6.43,8.43,8.43,0,0,0-10.47-5.49,5,5,0,1,0,2.66,9.64c1.1-.33-.65,0-1-.3a2.09,2.09,0,0,1-.79-1.58c0-.24.34-.64.32-.8.18-.25.09-.19-.29.21a6.57,6.57,0,0,0-.57.48,7.08,7.08,0,0,0-1.6,8.84,5,5,0,1,0,8.63-5Z"/><path class="cls-2" d="M159.61,190.44c-.71,2.8-1.42,8.21-2.63,9.93l3.58-3.59-.89.44,5.05-1.36c1-.05.22.19-.45-.19a25.72,25.72,0,0,0-3.08-1.24,17.7,17.7,0,0,0-3.08-1.24c-.27.24.6,1.63,1.07,1.65.31,0,0-.42-.15-1.19a16.65,16.65,0,0,0-.87-2.61,13.08,13.08,0,0,0-3.64-5.39c-4.13-3.47-10.08-4.06-14.14,0-3.56,3.56-4.16,10.66,0,14.14-.53-.44-.34-1.87-.63-.83a7.89,7.89,0,0,0,.6,2.42,15.25,15.25,0,0,0,3.92,6.47c3.78,3.53,9.83,5.47,14.68,7.11,5.59,1.88,11.92.68,15.3-4.5,2.75-4.21,3.42-9.89,4.64-14.71,3.18-12.48-16.11-17.8-19.28-5.31Z"/><path class="cls-2" d="M170.52,213.56l.72,1.08a7.48,7.48,0,0,0,2.57,2.81,9,9,0,0,0,7.39,2,7.47,7.47,0,0,0,3.72-1.19l2-1.56a9.94,9.94,0,0,0,2.57-4.42l.36-2.65a9.94,9.94,0,0,0-1.36-5l-.72-1.08a9.6,9.6,0,0,0-10-4.77,7.46,7.46,0,0,0-3.72,1.18l-2,1.57a9.85,9.85,0,0,0-2.57,4.41l-.36,2.66a9.94,9.94,0,0,0,1.37,5Z"/><path class="cls-2" d="M188.16,219.69c25.5-12.68,46.34-33.42,61.1-57.6,5-8.21-3.24-15.87-11.29-14.69-17.27,2.52-27.87,16.59-40.65,26.82-5.56,4.46-11.67,7.58-19,7-8.2-.62-16-4.67-23.19-8.3l-2.38,18.28,24.44-3.86c7.14-1.12,14.51-1.88,21.48-3.85,15.55-4.39,26.32-16.51,25.46-33.26-.64-12.53-6-37.22-23.26-34.09-8.3,1.51-14.11,9.13-14,17.52.05,4.46,1.43,8.37,3.2,12.39.57,1.28,1.23,2.51,1.79,3.79,1.35,3.1.15,1.7,1.07,1l4.41-2.57c4.91-1.94,6.29,6,4.63-.58-.45-1.75-.88-3.5-1.32-5.25-1-4-1.78-8-3-11.94-2.64-8.42-10.2-15.35-19.5-12.22-10.32,3.47-9.37,14.28-8,22.9l4.06,26.37,18.28-7.71a124.09,124.09,0,0,1-14.32-30.72c-3.17-10.42-4.26-27.38-19.3-26.07-6.24.55-11.17,5.67-12.41,11.64-1.29,6.21.9,12.86,2.12,18.94l7.78,38.74,12.3-12.3c-2.48-.46-.39.83-1.2-.61s-.93-3.4-1.22-4.9a107.47,107.47,0,0,0-2.4-10.78,82.87,82.87,0,0,0-10.08-21.56c-5.07-7.72-15-5.51-18.28,2.39-7.59,18.57-5,40.83,6.32,57.34,3.06,4.44,8.79,6.45,13.69,3.58,4.4-2.57,6.65-9.2,3.58-13.68-8.69-12.67-10.1-27.74-4.3-41.92l-18.28,2.38a66.59,66.59,0,0,1,10,25.06c1.78,9.65,6,20,16.83,22,7.73,1.43,13.87-4.49,12.3-12.3L170.3,140.6l-2.66-13.23c-.38-1.89-.73-3.79-1.14-5.67a5.25,5.25,0,0,0-.49-2.16q-1.84-2.69-4.71,3.49l-5.05-1.37c-1.73-.84-1.14-2.16-.39,1,.54,2.26,1,4.53,1.57,6.79A133.62,133.62,0,0,0,162,143.5a149.07,149.07,0,0,0,13.22,26.44c6.4,10.06,20,3.18,18.28-7.71l-2.62-16.95-1.16-7.54c-.2-1.31-.29-2.73-.62-4-.67-2.6,1.54-1.13-1.18,1.26l-4.41,2.57q-5.85-4.92-5.11-1.74c.29,1.06.56,2.12.82,3.19.44,1.75.87,3.5,1.31,5.25,1,3.87,1.74,7.87,2.95,11.67,2.46,7.72,9.15,14.47,17.94,12.13,9.06-2.42,12.43-11.84,10.71-20.28-.79-3.91-2.89-7.33-4.39-11,.23.57-.92-3-.9-2.94q-1.14,2.77-4.79,1.8c-2.18-2-2.85-2.4-2-1.09-.41.87,2.5,7.5,2.82,8.67.95,3.56,1.85,7.4,1.28,11.11-.8,5.3-4.46,7.9-9.3,9.46-6.76,2.18-14,2.88-21,4L147.47,172c-8.46,1.33-9.7,14.6-2.39,18.27,18,9.05,37.49,16.09,56.48,5.25C216,187.2,226,169.22,243.28,166.68L232,152c-13.09,21.45-31.36,39.21-53.93,50.43-11.52,5.73-1.4,23,10.1,17.27Z"/><path class="cls-2" d="M102.11,267.52l2.19.2-5-5,.21,1.93c.47,4.29,5.12,6.61,8.54,3.53a14.71,14.71,0,0,0,5-11.85H103l.2,4.16c.31,6.52,9.39,6.34,10,0A77.45,77.45,0,0,0,112,237.86l-9.14,3.85L104,244c2.79,5.26,10.17,1.47,9.13-3.85a28.35,28.35,0,0,0-19.52-21.54c-4.91-1.58-8.19,4.88-4.87,8.35a25.57,25.57,0,0,0,6.84,5.22c2.89,1.46,7.3,1.65,7.29,5.66l8.53-3.53c-.54-.59-5.62-5.69-5.66-5.41l-1.46,3.53.51-.42-6.06.78.58.31-2.47-4.32-.05.59a5,5,0,0,0,3.67,4.82q2.58-3.07-.42-3.25a14,14,0,0,1-2.61-1.28,15.73,15.73,0,0,1-3.37-2.71A16.27,16.27,0,0,1,89.67,218l-5,5c-1.56.05-1.22-1.53-.59,1a33.24,33.24,0,0,0,1.36,3.55l3.07,8c1.93,5,3.88,10.07,5.8,15.12,1,2.49,1.59,3.88.55,6.29-.7,1.64-1.62,2.89-1.73,4.76-.26,4.3,2.94,7.21,6.11,9.48l2.52-9.32a51.21,51.21,0,0,1-37.25-18.06c-3-3.5-8.33-.48-8.54,3.53a16,16,0,0,0,.49,4.92l9.14-3.86L53,231c-3.71-5.09-12.11-.53-8.64,5l4.74,7.61,8.63-5A63.17,63.17,0,0,1,48.3,220c-1.35-4.39-6.64-4.59-9.14-1.19-2.83,3.84-1.12,8.43,2.47,10.93,5.29,3.69,10.29-5,5-8.63l1.12,2.74-9.14-1.19a71.15,71.15,0,0,0,10.39,21c3.7,5.1,12.1.53,8.63-5L53,231l-8.64,5L57,253.42c3.25,4.47,10.46,1.94,9.14-3.85L66,247.31l-8.53,3.54a61.08,61.08,0,0,0,44.32,21c5.35.18,6.28-6.64,2.53-9.32-1.67-1.19-.09-1,.82-3.3a11.31,11.31,0,0,0,.48-6.36c-1.07-5.58-4-11.16-6.07-16.45s-4-10.7-6.14-16c-1.65-4.15-3.73-7.6-8.71-7.42-2.43.08-5.36,2.23-5,5,1.37,10.41,8,19.74,18.41,22.78,4.71,1.37,9.94.09,11.81-4.94a8.54,8.54,0,0,0-6.74-11.3l3.67,4.82.05-.59a4.89,4.89,0,0,0-2.48-4.32l-.58-.3a5.22,5.22,0,0,0-6.06.78c-6.37,5.21,3.34,12.87,6.61,16.44,3,3.25,8.53.66,8.54-3.54a13.28,13.28,0,0,0-5-10.9c-3.82-3-8.55-3.41-12-7L91,228.22c6.8,2.18,11.2,7.64,12.54,14.56l9.14-3.85-1.2-2.26c-2.79-5.25-10.19-1.47-9.14,3.85a68.25,68.25,0,0,1,.88,20h10l-.2-4.16c-.3-6.41-10.28-6.45-10,0a5.17,5.17,0,0,1-2,4.78l8.53,3.54-.21-1.93a5.19,5.19,0,0,0-5-5l-2.19-.2c-6.4-.61-6.36,9.39,0,10Z"/><path class="cls-2" d="M49.41,220.41c.16-1.53-.17-6.34.76-7.5,1.38-1.71-1.64-1,1.81-.42,3.19.56,5.24,2.25,8.7,1.37,7.39-1.88,6.92-9.67,4.1-15.11l-5.65,7.34a44.38,44.38,0,0,1,28.17,20c3.37,5.47,12,.45,8.63-5.05a54.46,54.46,0,0,0-34.14-24.62,5.06,5.06,0,0,0-5.65,7.34c.32,1.93,1,2,2.06.36l-1-.25c-.59-.69-3.16-1.36-4.16-1.63a10.21,10.21,0,0,0-8.67,1.27c-5,3.65-4.43,11.43-5,16.87-.65,6.4,9.35,6.35,10,0Z"/><path class="cls-2" d="M93.41,216.69l-5.25-5.14L82.1,219.4l3.31,2.43c4.57,3.35,10.27-4.1,6.06-7.85l-6.82-6.08-6.06,7.86,2,1.13c5.8,3.21,10-4.83,5-8.64A74.93,74.93,0,0,0,64.78,197.1c-6.09-2.13-8.7,7.52-2.66,9.64a66.68,66.68,0,0,1,18.51,10.15l5-8.64-2-1.13c-4.8-2.66-10.43,4-6.06,7.85l6.83,6.08,6.06-7.86-3.31-2.42c-4.64-3.41-10,3.95-6.06,7.85l5.25,5.14c4.6,4.5,11.67-2.56,7.07-7.07Z"/><path class="cls-2" d="M89.25,211.67A72.38,72.38,0,0,0,66.5,197.35L63.84,207c8.52,3.23,18,7.54,20.23,17.27,1.43,6.27,11.08,3.62,9.64-2.66-3-13.38-15.4-19.78-27.21-24.25-6.07-2.3-8.54,7.28-2.66,9.64a59.13,59.13,0,0,1,18.34,11.76c4.71,4.38,11.79-2.68,7.07-7.08Z"/><path class="cls-2" d="M92.13,242.27l1.72,9.37c.49,2.66,3.71,4.17,6.15,3.49,2.8-.76,4-3.48,3.49-6.15l-1.72-9.37c-.49-2.66-3.71-4.16-6.15-3.49-2.79.76-4,3.48-3.49,6.15Z"/><path class="cls-2" d="M103.05,251.11a7.64,7.64,0,0,0,3.71-9l-9.65,2.66c1.79,5.26-6.94,5.75-10.21,6-4.6.3-7.25,6.91-2.53,9.32l9,4.58,3.85-9.14c-21.89-3-38.9-20.14-40.38-42.46l-7.52,4.32C58.9,222.7,60.68,235.49,67,243.75c6.51,8.51,16.68,12,27.09,9.9,3.06-.62,4.71-4.78,3-7.35-2.47-3.68-5-7.36-8.67-10a18.49,18.49,0,0,0-5.57-2.81,15.82,15.82,0,0,0-3.07-.56c-.73-.06-3.22-.65-1.5.27l2.48,4.31,0-.82-1.47,3.54c-1.43,1.5,1.22,1.06,2.62,1.25a25.06,25.06,0,0,0,4.56.5,7.15,7.15,0,0,0,6-3.49c3-5.22-1.06-9.28-5.22-11.83-5.37-3.3-6.86-8-9.78-13.22-2.35-4.21-6.3-8.77-11.59-8.35-5.67.45-6.85,5.8-5.52,10.43,1.56,5.46,2.81,13.33,6.65,17.73a9,9,0,0,0,12.64,1c4.9-4,4.44-10.15,3.08-15.71-1.54-6.24-11.19-3.6-9.65,2.66a33.7,33.7,0,0,1,.69,3.32l-.17,1.75.58-.21a54.89,54.89,0,0,1-2.17-6.8c-.26-.81-1.71-7.21-2.3-7.31L66.06,215l1.1,1a25.29,25.29,0,0,0,1.91,3.09c1.8,3.45,3.18,6.94,5.67,10a25.1,25.1,0,0,0,4.3,4.13,26.41,26.41,0,0,0,2.41,1.66c2.19,1.32.89,1,2-.95l3-2.3C82.84,233,78.7,230,75,231.25a6.09,6.09,0,0,0-4.15,6.94c.7,3.55,3.45,4.41,6.63,4.7,5.52.52,8,4.07,11,8.46l3-7.34c-11,2.23-17.21-6.14-21.43-15-3.79-8-7.63-15.85-15.62-20.35-3.12-1.75-7.79.41-7.53,4.32,1.75,26.38,21.27,48.46,47.73,52.1,5.08.7,9.4-6.31,3.85-9.14l-9-4.58-2.52,9.32c5.69-.36,11.9-1,16.21-5.16a13,13,0,0,0,3.65-13.46c-2.05-6-11.32-3.62-9.65,2.66l.89-2.25c-5.58,3.21-.55,11.85,5,8.63Z"/><path class="cls-2" d="M46.85,212.08c6.44,0,6.45-10,0-10s-6.44,10,0,10Z"/><path class="cls-1" d="M198.32,529.46c-2.27-11.62-4.53-23.71-1.56-35.16.76-2.94,1.87-5.87,1.69-8.9-.26-4.43-3.23-8.27-4.06-12.63-1.12-5.83,1.72-11.75,5.47-16.35s8.46-8.37,12.1-13.06a37.84,37.84,0,0,0,7.63-18.5c.25-2,0-4.56-1.82-5.37-2.11-.91-4.22,1.2-5.55,3.08l-8.81,12.36c-1.5,2.11-3.19,4.36-5.67,5.08s-5.78-1.09-5.41-3.65c.27-1.85,2.2-3,4-3.41s3.78-.42,5.44-1.28,2.87-3.07,1.8-4.61c-1.17-1.71-3.82-1.13-5.66-.19s-4.09,2.07-5.83.95c-1.9-1.23-1.53-4.19-.28-6.08s3.14-3.38,3.89-5.51-.64-5.21-2.87-4.82c-2.05.36-2.56,3-2.61,5.1l-.82,38.55a33.6,33.6,0,0,0-15.85-11.82,8,8,0,0,0,2.37,6.34l-17.21-4.23c-1.18-.29-2.55-.54-3.5.22-1.71,1.36-.24,4.06,1.26,5.65,3.38,3.58,6.9,7.26,11.44,9.17s10.41,1.57,13.66-2.13c.84-.95,1.68-2.2,2.95-2.19,1.8,0,2.42,2.37,2.51,4.16l1.4,30.2c.25,5.46.5,10.91.65,16.37.11,4.36.16,8.76,1.28,13s3.48,8.27,7.22,10.5"/><path d="M197.59,530.27a9.54,9.54,0,0,1-2.17-1.53,16.86,16.86,0,0,1-4.33-6.35c-1.33-3.13-2-7.31-2.13-12.14s-.44-10.36-.68-16.52-.63-13-1-20.32q-.27-5.52-.56-11.46a25.19,25.19,0,0,0-.23-2.93,3.57,3.57,0,0,0-1.23-2.35,1.45,1.45,0,0,0-1.17-.15,2.68,2.68,0,0,0-1.12.73c-.35.35-.66.75-1,1.15a9.87,9.87,0,0,1-1.18,1.15,10.9,10.9,0,0,1-6.12,2.34,14.93,14.93,0,0,1-6.65-1c-4.29-1.7-7.73-5-10.94-8.38a14.15,14.15,0,0,1-2.3-2.8,5.91,5.91,0,0,1-.7-1.78,2.81,2.81,0,0,1,.28-2.05,2.57,2.57,0,0,1,1.74-1.19,5.39,5.39,0,0,1,2,.06c1.23.27,2.37.57,3.57.86l13,3.17a4.38,4.38,0,0,1-.43-.66,8.54,8.54,0,0,1-.83-2,7.82,7.82,0,0,1-.31-2.15c0-.35,0-.66,0-1v-.37s.07,0,.11,0l.46.16,1.31.5a34,34,0,0,1,7.4,4.11,33.65,33.65,0,0,1,6.26,5.91l.28.34s0,0,0,0l0-1.06.09-4.33q.19-8.7.37-17.63c.07-3,.13-6,.19-9,0-1.5.07-3,.1-4.52a9.52,9.52,0,0,1,.93-4.67,3,3,0,0,1,2.64-1.57,3.11,3.11,0,0,1,2.53,1.73,5,5,0,0,1,.56,2.89,6.17,6.17,0,0,1-1.11,2.66c-1,1.54-2.39,2.76-3.23,4.18s-1.11,3.27-.27,4.48a2.34,2.34,0,0,0,1.86,1,5.66,5.66,0,0,0,2.33-.52c.79-.31,1.49-.73,2.34-1.11a8.07,8.07,0,0,1,2.68-.67,3.45,3.45,0,0,1,2.75,1,2.92,2.92,0,0,1,.61,2.88,4.71,4.71,0,0,1-1.61,2.32,6.61,6.61,0,0,1-2.51,1.11c-1.71.41-3.44.42-4.88,1a5,5,0,0,0-1.88,1.27,2.54,2.54,0,0,0-.65,1.94,2.7,2.7,0,0,0,1.06,1.77,4.65,4.65,0,0,0,2,.88,5.13,5.13,0,0,0,4.12-1.45,19.21,19.21,0,0,0,3.07-3.62c.94-1.31,1.88-2.62,2.8-3.92l5.51-7.72a11.77,11.77,0,0,1,3.31-3.48,3.69,3.69,0,0,1,2.49-.59,3.15,3.15,0,0,1,2.16,1.43,5.28,5.28,0,0,1,.73,2.35A10.81,10.81,0,0,1,220,425a38.8,38.8,0,0,1-.84,4.45,38.36,38.36,0,0,1-7.86,15.36c-3.62,4.28-7.76,7.73-11,11.68s-5.59,8.46-5.8,13.11a14.17,14.17,0,0,0,.28,3.39,19.79,19.79,0,0,0,1,3.2c.81,2.07,1.79,4.05,2.4,6.13a13.21,13.21,0,0,1,.57,3.16,13.82,13.82,0,0,1-.23,3.1c-.36,2-1,3.86-1.46,5.66a54.76,54.76,0,0,0-1.17,19c.5,5.25,1.25,9.28,1.71,12,.24,1.37.43,2.42.55,3.12.06.35.1.62.13.79l0,.28a.91.91,0,0,1-.08-.27l-.18-.78c-.15-.7-.36-1.74-.64-3.1-.53-2.73-1.34-6.76-1.91-12a54.88,54.88,0,0,1,1-19.2c.47-1.83,1.09-3.67,1.42-5.62a13.37,13.37,0,0,0,.2-3,12.76,12.76,0,0,0-.56-3c-.6-2-1.58-4-2.42-6.07a20.5,20.5,0,0,1-1-3.3,15,15,0,0,1-.31-3.56,18.82,18.82,0,0,1,1.81-7.12,29.93,29.93,0,0,1,4.11-6.45c3.3-4,7.44-7.5,11-11.73a37.37,37.37,0,0,0,7.63-15,36.51,36.51,0,0,0,.81-4.34,6.51,6.51,0,0,0-.55-4.1,2.19,2.19,0,0,0-1.54-1,2.75,2.75,0,0,0-1.88.47,10.85,10.85,0,0,0-3,3.24l-5.49,7.72-2.8,3.93a20.17,20.17,0,0,1-3.22,3.8,7.82,7.82,0,0,1-2.21,1.37,5.1,5.1,0,0,1-2.68.3,5.52,5.52,0,0,1-2.48-1.08,3.63,3.63,0,0,1-1.41-2.41,3.47,3.47,0,0,1,.88-2.68,5.78,5.78,0,0,1,2.24-1.54c1.7-.7,3.44-.69,5-1.08a5.88,5.88,0,0,0,2.13-.93,3.74,3.74,0,0,0,1.28-1.82,1.93,1.93,0,0,0-.39-1.93,2.45,2.45,0,0,0-2-.65,7,7,0,0,0-2.33.59c-.73.32-1.54.79-2.37,1.12a6.66,6.66,0,0,1-2.74.6,3.36,3.36,0,0,1-2.63-1.39,4.23,4.23,0,0,1-.65-2.85,7.13,7.13,0,0,1,.86-2.7c1-1.62,2.33-2.82,3.27-4.23a5.33,5.33,0,0,0,.95-2.22,4,4,0,0,0-.45-2.29,2.09,2.09,0,0,0-1.68-1.22,2,2,0,0,0-1.75,1.08,8.67,8.67,0,0,0-.79,4.18c0,1.51-.07,3-.1,4.53-.06,3-.13,6-.19,9q-.19,8.93-.38,17.63l-.09,4.33c0,1.09-.05,2.18-.07,3.26l0,.53v.07s0,0,0-.05l-.08-.11-.16-.21-.64-.84-.65-.85-.4-.49a32.39,32.39,0,0,0-6.07-5.75,33.15,33.15,0,0,0-7.18-4l-.62-.23s0,0,0,0a7.28,7.28,0,0,0,.27,1.91,7.7,7.7,0,0,0,.74,1.78,6.13,6.13,0,0,0,.79,1.09c.43.52,1.12,1.19,1.59,1.69l-16-3.94c-1.18-.28-2.39-.6-3.52-.85s-2.28-.15-2.78.7-.11,2,.44,2.93a13,13,0,0,0,2.16,2.63c3.18,3.37,6.54,6.58,10.61,8.21a14,14,0,0,0,6.27,1,10.07,10.07,0,0,0,5.68-2.14,9.76,9.76,0,0,0,1.09-1c.33-.39.66-.81,1.05-1.2a3.42,3.42,0,0,1,1.47-.92,2.18,2.18,0,0,1,1.79.25,4.25,4.25,0,0,1,1.57,2.86,23.08,23.08,0,0,1,.23,3c.18,3.95.34,7.77.51,11.46.31,7.36.6,14.16.86,20.32s.46,11.71.55,16.54.7,8.93,2,12a17.42,17.42,0,0,0,4.15,6.35A23.67,23.67,0,0,0,197.59,530.27Z"/><path class="cls-1" d="M177,444.4c-3.6-1.08-5.35-5.23-5.57-9s.59-7.55-.06-11.25-3.5-7.49-7.25-7.3l1.35,22.33a71.78,71.78,0,0,0-38.31-48.26c-4.11-2-9.23-3.5-13-1-3,2-4.18,6.07-3.68,9.68s2.35,6.86,4.21,10c4,6.8,8.43,13.51,14.18,18.94s13.07,9.53,21,10.17c3.44.27,6.93-.11,10.34.43a19.83,19.83,0,0,1,14.15,10"/><path d="M174.25,449.13s-.42-.69-1.33-1.93a20.58,20.58,0,0,0-4.81-4.59,19.56,19.56,0,0,0-9.83-3.38c-2.05-.15-4.26-.05-6.63-.09a28.72,28.72,0,0,1-7.44-1.08,38,38,0,0,1-14.88-8.46A71.82,71.82,0,0,1,117,414.3c-.93-1.46-1.84-2.95-2.75-4.47a50.32,50.32,0,0,1-2.59-4.76,19.22,19.22,0,0,1-1.67-5.34,12.13,12.13,0,0,1,.54-5.75,8.61,8.61,0,0,1,3.66-4.63,9.33,9.33,0,0,1,5.87-1.14,20,20,0,0,1,5.78,1.57c.93.39,1.82.83,2.7,1.3s1.79.91,2.66,1.4a72.21,72.21,0,0,1,34.71,46.63l-.85.12-.69-12c-.11-1.91-.22-3.77-.32-5.58-.05-.91-.1-1.8-.15-2.68,0-.44,0-.87-.08-1.31l-.05-1v-.14s.08,0,.12,0h.76a6.63,6.63,0,0,1,4.57,2.37,10.69,10.69,0,0,1,2.23,4.16,26,26,0,0,1,.31,8.17,23.27,23.27,0,0,0,.22,6.47,10.94,10.94,0,0,0,1.9,4.34A7,7,0,0,0,176,444c.59.32.94.41.93.45a3.63,3.63,0,0,1-1-.33,6.74,6.74,0,0,1-2.37-1.88,11.11,11.11,0,0,1-2.06-4.41,23.07,23.07,0,0,1-.35-6.58,26.07,26.07,0,0,0-.39-8,10,10,0,0,0-2.14-3.88,7,7,0,0,0-1.8-1.45,5.36,5.36,0,0,0-1.08-.45,3.77,3.77,0,0,0-.58-.14l-.29,0-.23,0c-.07,0-.22,0-.23,0l0,.33c0,.43,0,.87.08,1.31.06.88.11,1.77.17,2.67.12,1.81.24,3.68.36,5.59q.38,5.73.77,12l-.85.11a71.67,71.67,0,0,0-34.36-45.94c-.86-.49-1.75-.92-2.62-1.38s-1.74-.9-2.64-1.27a19.25,19.25,0,0,0-5.49-1.5,8.42,8.42,0,0,0-5.27,1,7.61,7.61,0,0,0-3.24,4.11,11.17,11.17,0,0,0-.5,5.28,18.38,18.38,0,0,0,1.57,5.08,52.68,52.68,0,0,0,2.54,4.68c.9,1.51,1.8,3,2.72,4.46A71.84,71.84,0,0,0,129.88,429a37.52,37.52,0,0,0,14.52,8.4,28.31,28.31,0,0,0,7.27,1.12c2.33.07,4.56,0,6.65.17a19.85,19.85,0,0,1,10,3.62,19.56,19.56,0,0,1,4.75,4.8,15.1,15.1,0,0,1,.92,1.5A2.32,2.32,0,0,1,174.25,449.13Z"/><path d="M191.42,410.74a6.19,6.19,0,0,1-.57,1.18,8.92,8.92,0,0,1-2.61,2.77,12.9,12.9,0,0,1-5.81,2.19,14.09,14.09,0,0,1-4,0,19.92,19.92,0,0,1-4.37-1.21,46.08,46.08,0,0,1-9.21-5.32c-3.18-2.22-6.63-4.63-10.26-7.35a175.72,175.72,0,0,1-23.18-20.21c-7.81-8.29-15.39-18.6-20.14-31.24a82.85,82.85,0,0,1-4.85-20.24,77.2,77.2,0,0,1-.46-10.91,28,28,0,0,1,.77-5.57,15.63,15.63,0,0,1,2.31-5.26,11.47,11.47,0,0,1,4.51-3.74,14.2,14.2,0,0,1,5.78-1.18A35.61,35.61,0,0,1,130.9,307l.31.11h0l.06-.17.5-1.4,1-2.81c.67-1.88,1.34-3.76,2-5.66s1.33-3.8,2.05-5.72a28.44,28.44,0,0,1,2.71-5.58,16.82,16.82,0,0,1,4.41-4.53,21.93,21.93,0,0,1,5.71-2.79,53.42,53.42,0,0,1,12.5-2.17,56.84,56.84,0,0,1,6.42-.27,15.71,15.71,0,0,1,6.42,1.43,12.66,12.66,0,0,1,4.89,4.49,34.08,34.08,0,0,1,2.94,5.89q2.7,6.57,5.35,13.05l9.45-6.88c3.34-2.33,6.93-4.55,11.05-5.29a11.55,11.55,0,0,1,6.16.59,11.85,11.85,0,0,1,4.87,3.74,17.52,17.52,0,0,1,2.82,5.33,31.8,31.8,0,0,1,1.26,5.8c.27,1.94.43,3.86.64,5.77s.48,3.78.79,5.65a98.47,98.47,0,0,0,2.54,10.95,95.32,95.32,0,0,0,3.68,10.35,28.71,28.71,0,0,0,2.46,4.74,11.45,11.45,0,0,0,3.62,3.61,7.88,7.88,0,0,0,4.81,1.06,14.24,14.24,0,0,0,4.82-1.46c3.08-1.47,5.82-3.56,8.94-5s6.56-2.28,9.92-1.49a10.26,10.26,0,0,1,4.4,2.37,8.06,8.06,0,0,1,2.52,4.24,6.83,6.83,0,0,1-.77,4.8,10.72,10.72,0,0,1-3.21,3.48c-2.59,1.81-5.55,2.6-8.23,3.65-5.42,2.08-9.92,5.51-13.92,9s-7.67,7.05-11.2,10.31l-9.95,9.23-15.91,14.76-10.06,9.27-2.63,2.4-.68.6a1.63,1.63,0,0,1-.24.19s.06-.09.21-.23l.64-.64,2.57-2.46,9.93-9.41L225.28,385l9.89-9.3c3.53-3.27,7.17-6.81,11.17-10.37s8.57-7,14.1-9.17c2.73-1.07,5.64-1.87,8.05-3.58a10,10,0,0,0,3-3.23,6,6,0,0,0,.68-4.25,8.5,8.5,0,0,0-6.33-6c-3.07-.72-6.39.08-9.36,1.46s-5.74,3.47-8.92,5a14.82,14.82,0,0,1-5.12,1.56,8.76,8.76,0,0,1-5.35-1.17,12.31,12.31,0,0,1-3.92-3.88,29.13,29.13,0,0,1-2.55-4.89,99.48,99.48,0,0,1-3.74-10.45,97.56,97.56,0,0,1-2.57-11.05q-.48-2.83-.81-5.71c-.21-1.92-.37-3.84-.63-5.74-.5-3.79-1.49-7.64-3.9-10.65a10.89,10.89,0,0,0-4.46-3.44,10.69,10.69,0,0,0-5.64-.53c-3.84.69-7.35,2.82-10.64,5.14l-10.46,7.62-5.83-14.23a33.57,33.57,0,0,0-2.86-5.72,11.51,11.51,0,0,0-4.49-4.14,14.5,14.5,0,0,0-6-1.33,55.41,55.41,0,0,0-6.3.26A52.53,52.53,0,0,0,150,279.39a21,21,0,0,0-5.45,2.65,15.9,15.9,0,0,0-4.16,4.26c-2.18,3.36-3.27,7.33-4.67,11.09q-1,2.85-2,5.66c-.34.94-.67,1.88-1,2.81l-.5,1.4-.18.52-.13.34c0,.12-.05.28-.2.18l-1.08-.38a34.58,34.58,0,0,0-11.24-2.37,13.33,13.33,0,0,0-5.4,1.08,10.58,10.58,0,0,0-4.15,3.43c-2.1,3-2.74,6.75-2.93,10.34a76.93,76.93,0,0,0,.43,10.77,82.27,82.27,0,0,0,4.75,20.05c4.68,12.52,12.15,22.77,19.88,31a177.54,177.54,0,0,0,23,20.26c3.6,2.73,7,5.16,10.2,7.4a45.87,45.87,0,0,0,9.07,5.35,16.36,16.36,0,0,0,8.19,1.32,12.93,12.93,0,0,0,5.72-2.06,9.33,9.33,0,0,0,2.65-2.67C191.23,411.14,191.39,410.73,191.42,410.74Z"/><path d="M233.26,336.87s-.23,0-.56-.3a2.86,2.86,0,0,1-.92-1.57,4.24,4.24,0,0,1,.35-2.87,7.59,7.59,0,0,1,2.63-2.74c2.34-1.5,5.14-3.11,8.25-5L245.4,323a14.69,14.69,0,0,1,2.71-1.27,6.26,6.26,0,0,1,6.2,1.2,5.25,5.25,0,0,1,1.59,2.95,4.67,4.67,0,0,1-.59,3.22,7.37,7.37,0,0,1-5,3.18,41.87,41.87,0,0,1-5.16.5,29.28,29.28,0,0,0-4.35.71,32,32,0,0,0-6.06,2.09,16.11,16.11,0,0,1-2.16,1,7.91,7.91,0,0,1,2-1.32,27.59,27.59,0,0,1,6.05-2.43,29.87,29.87,0,0,1,4.45-.84,48.28,48.28,0,0,0,5.05-.58,6.6,6.6,0,0,0,4.32-2.77,4,4,0,0,0-.84-4.95,5.29,5.29,0,0,0-5.22-1,30.29,30.29,0,0,0-4.94,2.54c-3.12,1.81-6,3.39-8.32,4.77a7.21,7.21,0,0,0-2.53,2.42,4,4,0,0,0-.46,2.53,3,3,0,0,0,.68,1.5C233.1,336.72,233.29,336.83,233.26,336.87Z"/><path d="M245.13,323.25a2.26,2.26,0,0,1,.3-.58,3.52,3.52,0,0,1,1.52-1.23,5.7,5.7,0,0,1,3.17-.38,7.7,7.7,0,0,1,3.91,2c1.27,1.08,2.44,2.53,3.88,3.93a23,23,0,0,0,5.33,3.78c4.2,2.2,9.6,3.44,15.66,3.84s12.8,0,20.12-.2a112.7,112.7,0,0,1,11.42.16,79.82,79.82,0,0,1,12.11,1.83c2.05.48,4.12,1,6.19,1.7s4.12,1.49,6.24,2a10.33,10.33,0,0,0,6.39-.13,6.3,6.3,0,0,0,2.62-1.83,4.93,4.93,0,0,0,1.09-3c.08-2.2-1.09-4.35-2.47-6.21a42.25,42.25,0,0,0-4.89-5.24,45.76,45.76,0,0,0-5.81-4.48c-1-.68-2.11-1.3-3.2-1.9-.56-.29-1.11-.58-1.68-.85l-.42-.21-.69-.31-1.54-.7,3.12-1.36c.73-.31,1.44-.66,2.15-1,1.45-.67,2.85-1.43,4.28-2.18,2.81-1.57,5.57-3.28,8.27-5.16s5.29-3.95,7.82-6.15a94.87,94.87,0,0,0,7.21-7.12,87.23,87.23,0,0,0,6.46-8,30.07,30.07,0,0,0,4.88-9.09,11.67,11.67,0,0,0,.36-5.05,8.56,8.56,0,0,0-2.25-4.47,9.6,9.6,0,0,0-9.37-2.83l-2.55.73,2.11-1.61a66.62,66.62,0,0,0,8.43-7.2,25.56,25.56,0,0,0,3.71-5,17.6,17.6,0,0,0,2-5.79,14.27,14.27,0,0,0-.33-6,10.47,10.47,0,0,0-3.13-5c-3-2.64-7.22-3.53-11.15-3.27s-7.82,1.55-11.59,2.81l-.32-.93a5,5,0,0,0,2.91-3.13,6.73,6.73,0,0,0,0-4.41,7.2,7.2,0,0,0-2.77-3.41,10.93,10.93,0,0,0-4.19-1.64,18,18,0,0,0-8.93,1.16c-2.87,1-5.67,2.3-8.47,3.43L291,237l-14.75,6.15c-4.74,2-9.28,4.17-12.84,7.36s-6,7.17-8.37,10.93-4.59,7.41-6.5,11A62.59,62.59,0,0,0,244,282.92a52.67,52.67,0,0,0-2.18,10,57.86,57.86,0,0,0-.35,8.85,56.27,56.27,0,0,0,.81,7.37,51.7,51.7,0,0,0,2.71,9.84c.38,1.1.78,1.9,1,2.46l.25.62c.06.14.08.22.07.22a2.09,2.09,0,0,1-.11-.2l-.29-.61c-.24-.54-.66-1.33-1.07-2.42a49.72,49.72,0,0,1-2.89-9.85,54.35,54.35,0,0,1-.61-16.33,52.74,52.74,0,0,1,2.13-10.08A64.05,64.05,0,0,1,248,272.08c1.9-3.6,4.13-7.25,6.47-11s4.81-7.83,8.46-11.13,8.28-5.53,13-7.54l14.74-6.19,31.95-13.41c2.8-1.15,5.56-2.41,8.51-3.47a18.79,18.79,0,0,1,9.4-1.21,11.89,11.89,0,0,1,4.57,1.78,8.16,8.16,0,0,1,3.14,3.89,7.73,7.73,0,0,1,0,5.05,5.91,5.91,0,0,1-3.5,3.73l-.32-.92c3.78-1.26,7.68-2.58,11.84-2.86a19.1,19.1,0,0,1,6.24.57,14,14,0,0,1,5.63,2.93,11.55,11.55,0,0,1,3.43,5.43,15.35,15.35,0,0,1,.36,6.43,18.74,18.74,0,0,1-2.09,6.12,26.12,26.12,0,0,1-3.86,5.19,68.53,68.53,0,0,1-8.55,7.32l-.45-.88A10.61,10.61,0,0,1,367.41,265a10,10,0,0,1,1.62,2.31,9.85,9.85,0,0,1,.88,2.67,12.84,12.84,0,0,1-.38,5.49,31.13,31.13,0,0,1-5,9.39A86.15,86.15,0,0,1,358,293a91.59,91.59,0,0,1-7.3,7.19q-3.82,3.33-7.9,6.21t-8.38,5.2c-1.44.75-2.86,1.52-4.32,2.2-.72.34-1.44.7-2.18,1l-1.24.54.8.38c.58.27,1.15.57,1.71.87,1.11.62,2.21,1.25,3.26,1.95a46,46,0,0,1,5.92,4.58,44.35,44.35,0,0,1,5,5.37,16.15,16.15,0,0,1,1.87,3.15,8.3,8.3,0,0,1,.75,3.61,5.8,5.8,0,0,1-1.29,3.46,7.1,7.1,0,0,1-3,2.07,9.48,9.48,0,0,1-3.48.63,15.41,15.41,0,0,1-3.41-.48c-2.2-.56-4.23-1.41-6.28-2.05s-4.09-1.22-6.12-1.7a79.7,79.7,0,0,0-12-1.87,111.45,111.45,0,0,0-11.35-.2c-7.29.19-14,.55-20.17.08s-11.57-1.73-15.82-4a23.42,23.42,0,0,1-5.39-3.9c-1.44-1.44-2.58-2.89-3.81-4a7.53,7.53,0,0,0-3.76-2,5.61,5.61,0,0,0-3.07.3,3.52,3.52,0,0,0-1.51,1.13C245.24,323.06,245.15,323.26,245.13,323.25Z"/><path d="M256.82,245.19a8.08,8.08,0,0,0,1.65-.68,6.49,6.49,0,0,0,2.77-4.12,10.14,10.14,0,0,0,.27-3.67,16.89,16.89,0,0,0-1.17-4.25c-.58-1.49-1.32-3.06-2-4.79a15.66,15.66,0,0,1-1.08-5.79c.07-4.22,2.14-8.52,5-12.38a67.56,67.56,0,0,1,10.79-11.07,73,73,0,0,1,6.8-4.92,76.73,76.73,0,0,1,7.7-4.23,72,72,0,0,1,8.49-3.35c1.48-.44,3-.92,4.5-1.27.77-.17,1.53-.39,2.31-.53l3.13-.61q-1.2,4.18-2.43,8.45c-1.89,6.54-3.72,12.92-5.5,19.08-.92,3.07-1.67,6.12-2.78,9.06a16.31,16.31,0,0,1-5.25,7.53,9.93,9.93,0,0,1-4.13,1.87,10.58,10.58,0,0,1-4.39-.21c-2.78-.67-5.24-1.87-7.77-2.14a9.21,9.21,0,0,0-6.77,2.09,23.21,23.21,0,0,0-4.61,5.08,95.71,95.71,0,0,0-6.23,10.22,32.34,32.34,0,0,0-3.06,8.45,19.79,19.79,0,0,0-.29,5.66c.15,1.3.29,2,.24,2a2.47,2.47,0,0,1-.14-.48,11.45,11.45,0,0,1-.3-1.47,18.5,18.5,0,0,1,.11-5.76,31.81,31.81,0,0,1,2.94-8.63,92,92,0,0,1,6.15-10.38,24.17,24.17,0,0,1,4.71-5.28,11.46,11.46,0,0,1,3.36-1.86,9.46,9.46,0,0,1,4-.45c2.73.29,5.24,1.5,7.89,2.11a9.75,9.75,0,0,0,4,.19,9,9,0,0,0,3.74-1.72,15.38,15.38,0,0,0,4.92-7.14c1.06-2.84,1.82-5.92,2.73-9,1.77-6.17,3.6-12.55,5.48-19.08.66-2.32,1.33-4.62,2-6.89l-1.51.29c-.77.14-1.52.35-2.28.53-1.51.33-3,.8-4.44,1.24a72.53,72.53,0,0,0-8.38,3.28,76.78,76.78,0,0,0-7.61,4.15,72.75,72.75,0,0,0-6.74,4.83A67.14,67.14,0,0,0,263,210c-2.87,3.77-4.89,7.91-5,11.91a14.94,14.94,0,0,0,1,5.57c.6,1.71,1.31,3.29,1.88,4.81a17.2,17.2,0,0,1,1.13,4.4,10.67,10.67,0,0,1-.37,3.8,6.64,6.64,0,0,1-3,4.2,3.7,3.7,0,0,1-.73.32,2.4,2.4,0,0,1-.56.14A1.45,1.45,0,0,1,256.82,245.19Z"/><path d="M100.07,291a5,5,0,0,1-1.07.37,29.84,29.84,0,0,1-3.15.74,42.18,42.18,0,0,1-11.89.49,44.42,44.42,0,0,1-8.1-1.59,42.93,42.93,0,0,1-8.71-3.73,43.77,43.77,0,0,1-8.44-6.21A43.19,43.19,0,0,1,54.92,277c-.61-.72-1.17-1.48-1.74-2.24l-.82-1.19A6.17,6.17,0,0,1,52,273l-.44-.7-.74-1.17,2.2-.25c.47-.05.94-.12,1.41-.14.94-.07,1.87-.16,2.79-.18s1.85-.08,2.76-.07,1.82,0,2.72.05a66.68,66.68,0,0,1,26.78,6.71,22.38,22.38,0,0,1,5.64,3.68,10.41,10.41,0,0,1,2.8,4.26,7.4,7.4,0,0,1,.4,3.19,3.19,3.19,0,0,1-.26,1.09s0-.39.06-1.11a8,8,0,0,0-.56-3,10.34,10.34,0,0,0-2.82-4,22,22,0,0,0-5.56-3.45,68,68,0,0,0-26.52-6.38c-.88,0-1.77-.05-2.67,0s-1.81,0-2.72.07-1.83.12-2.75.18c-.47,0-.93.1-1.39.14l-.61.07h0l.32.52c.12.2.25.39.38.59l.8,1.15c.56.75,1.1,1.5,1.7,2.2a40,40,0,0,0,3.7,4A42.82,42.82,0,0,0,84,291.91a44.92,44.92,0,0,0,11.75-.16C98.54,291.34,100,290.93,100.07,291Z"/><path d="M133.45,299.68a26.06,26.06,0,0,0-4.16-3.35,21,21,0,0,0-5.34-2.16,42.08,42.08,0,0,0-7-1.11c-5.09-.39-9.73-.74-13.06-1.07s-5.41-.59-5.4-.73a29.78,29.78,0,0,1,5.44,0c3.36.15,8,.38,13.1.77a37.92,37.92,0,0,1,7.2,1.22,19.65,19.65,0,0,1,5.46,2.45,13.28,13.28,0,0,1,3,2.69C133.27,299.17,133.5,299.64,133.45,299.68Z"/><path d="M121.83,295.28a12.57,12.57,0,0,1-2.22.32,12.61,12.61,0,0,0-2.5.57,5.75,5.75,0,0,0-2.68,1.85,3.63,3.63,0,0,0-.73,3.57c.12.34.28.7.39,1.13a2.62,2.62,0,0,1,0,1.39,3.55,3.55,0,0,1-1.84,2.08,8.84,8.84,0,0,1-2.59.89c-.88.19-1.79.35-2.72.49a41.56,41.56,0,0,1-5.78.43h-.75l-.82,0-1.37-.06-.7,0-.35,0H97l.13-.11c.73-.58,1.5-1.18,2.11-1.63l1.16-.82c1.55-1,3.09-2,4.55-2.85l7.77-4.65a20.76,20.76,0,0,1,5.63-2.49,5.23,5.23,0,0,1,2.26-.18c0,.09-.8.13-2.15.56a23.17,23.17,0,0,0-5.37,2.72l-7.66,4.82c-1.44.91-3,1.84-4.47,2.88l-1.13.81-.11.08,1.43,0a43.34,43.34,0,0,0,5.66-.4c.9-.13,1.79-.28,2.66-.45a8.25,8.25,0,0,0,2.34-.77,2.72,2.72,0,0,0,1.44-1.5,3.3,3.3,0,0,0-.34-2,4,4,0,0,1-.07-2.39,4.91,4.91,0,0,1,1-1.9,6.23,6.23,0,0,1,3.05-1.93,11.94,11.94,0,0,1,2.64-.43A8,8,0,0,1,121.83,295.28Z"/><path d="M135.38,296.46a4.19,4.19,0,0,1-1.08-.27,15.79,15.79,0,0,1-2.9-1.31,19.48,19.48,0,0,1-7.9-8.55,19.24,19.24,0,0,1-1.82-7.93c-.09-2.93.2-6,.37-9.25s.39-6.65.6-10.18c.11-1.77.21-3.56.32-5.39.06-.91.12-1.83.17-2.75a18.67,18.67,0,0,1,.3-2.87,3.58,3.58,0,0,1,.7-1.46,2.19,2.19,0,0,1,1.58-.77,2.92,2.92,0,0,1,2.6,1.8,5.24,5.24,0,0,1,.2,3l-.52,2.64a61.64,61.64,0,0,0-1.08,10.05,61,61,0,0,0,.45,9.14,59.82,59.82,0,0,0,1.46,7.85,64.93,64.93,0,0,0,3.82,10.93c.54,1.26,1,2.2,1.35,2.85a5.09,5.09,0,0,1,.43,1,4.41,4.41,0,0,1-.61-.92c-.37-.62-.92-1.54-1.52-2.78a60.38,60.38,0,0,1-5.75-18.84,59.57,59.57,0,0,1-.55-9.27A61.29,61.29,0,0,1,127,253c.25-1.75,1-3.57.37-5a2,2,0,0,0-1.66-1.21c-.66,0-1.16.64-1.34,1.47a17.37,17.37,0,0,0-.27,2.69c-.06.93-.12,1.84-.17,2.75-.12,1.83-.23,3.62-.34,5.39-.23,3.53-.45,6.93-.67,10.18s-.5,6.32-.45,9.17a18.58,18.58,0,0,0,1.64,7.65,19.5,19.5,0,0,0,7.45,8.51A35.47,35.47,0,0,0,135.38,296.46Z"/><path d="M112,273.2c.23-.18,2.15,2.09,4.93,4.41s5.32,3.85,5.19,4.11-3-.91-5.84-3.34S111.82,273.34,112,273.2Z"/><path d="M111.93,273.1a2.54,2.54,0,0,1-.63.06l-1.88.07a71.69,71.69,0,0,1-7.21-.31A73.54,73.54,0,0,1,90.93,271a76.34,76.34,0,0,1-29.81-14.84,78.26,78.26,0,0,1-14.41-15.37c-1.08-1.52-2.1-3.1-3.09-4.73s-1.86-3.34-2.81-5a41.07,41.07,0,0,1-2.65-5.31,9.36,9.36,0,0,1-.47-6.17c.65-2.07,2.07-3.65,2.79-5.44s.4-3.78.31-5.92a7.4,7.4,0,0,1,.53-3.28,6.31,6.31,0,0,1,2.21-2.56A9.21,9.21,0,0,1,50,201a18.46,18.46,0,0,1,3.41.83c.55.19,1.09.39,1.62.59h0L54.9,202a4.53,4.53,0,0,1-.1-1.68,4.59,4.59,0,0,1,1.5-3c.1-.09.24-.18.33-.25h0s0,0,0,0l0-.11a2.39,2.39,0,0,1,.55-.75,3.49,3.49,0,0,1,1.56-.78,7.58,7.58,0,0,1,3.15,0A49.2,49.2,0,0,1,73.18,199a49.91,49.91,0,0,1,17.67,13.18c2.27,2.7,4.24,5.5,6.94,7.32s5.67,3.11,8.29,4.88a15.52,15.52,0,0,1,3.51,3.09,14.75,14.75,0,0,1,2.28,3.89,26.19,26.19,0,0,1,1.6,8.2c.15,2.65.08,5.16.07,7.53s0,4.61-.05,6.7c0,4.18-.09,7.77-.12,10.7s-.08,5.21-.11,6.76c0,.77,0,1.35-.05,1.75a4.13,4.13,0,0,1,0,.6,2.2,2.2,0,0,1,0-.6l0-1.75c0-1.55,0-3.82-.07-6.76s0-6.53-.06-10.7c0-2.09,0-4.33,0-6.7s0-4.88-.14-7.49a25.42,25.42,0,0,0-1.61-8,13.84,13.84,0,0,0-5.54-6.59c-2.54-1.7-5.55-2.92-8.33-4.85s-4.9-4.8-7.14-7.43a49.2,49.2,0,0,0-17.38-12.88,48.48,48.48,0,0,0-11-3.4,6.77,6.77,0,0,0-2.76,0,2.41,2.41,0,0,0-1.1.53,1.39,1.39,0,0,0-.33.46l-.09.23c0,.13-.16.17-.26.26a3.16,3.16,0,0,0-.27.2,3.63,3.63,0,0,0-1.16,2.32,3.76,3.76,0,0,0,.08,1.34c0,.11.06.21.09.32v0l0,.1c0,.06.08.12.11.19l.24.38c.24.45,1,1.34,1.32,1.79l-3-1.22c-.52-.2-1-.39-1.58-.57a16.61,16.61,0,0,0-3.22-.78,8.14,8.14,0,0,0-5.75,1.18,5.27,5.27,0,0,0-1.86,2.15,6.39,6.39,0,0,0-.45,2.84c0,1,.17,2,.19,3.11a7.84,7.84,0,0,1-.57,3.21c-.84,2-2.22,3.56-2.78,5.37a8.4,8.4,0,0,0,.45,5.53,41.9,41.9,0,0,0,2.58,5.2c.93,1.68,1.83,3.37,2.77,5s2,3.18,3,4.68a77.33,77.33,0,0,0,29.49,25,78.53,78.53,0,0,0,25.28,7.22c3.11.36,5.54.41,7.18.48l1.87,0A2.8,2.8,0,0,1,111.93,273.1Z"/><path d="M181.44,224.53c.08.08-1.26,1.29-3.07,3.93A29.1,29.1,0,0,0,173.64,241a28.71,28.71,0,0,0,.36,9.26c.41,1.6.75,3.38,1.85,4.62a2.53,2.53,0,0,0,2.08.9,3.47,3.47,0,0,0,2.17-1.11c1.21-1.26,1.7-3.22,2.42-5.07s1.37-3.8,2.08-5.75,1.44-3.94,2.17-6a8,8,0,0,1,.73-1.54,3.23,3.23,0,0,1,1.4-1.28,2.63,2.63,0,0,1,2,0,3.5,3.5,0,0,1,1.52,1.13,5.75,5.75,0,0,1,1,3.39c0,.57,0,1.12,0,1.67a12.81,12.81,0,0,1-.14,1.64,33.72,33.72,0,0,1-1.42,6.26c-1.32,4-3,7.62-4.41,11.16a39.21,39.21,0,0,0-2.81,10.3,29.12,29.12,0,0,0,.52,9.26A30.61,30.61,0,0,0,190.73,292c2,2.52,3.38,3.66,3.3,3.74a5.86,5.86,0,0,1-1-.81,12.13,12.13,0,0,1-1.14-1.09,18.78,18.78,0,0,1-1.45-1.6,29.82,29.82,0,0,1-6-12.27,29.45,29.45,0,0,1-.66-9.49A39.84,39.84,0,0,1,186.51,260c1.38-3.58,3.06-7.21,4.34-11.13a32.21,32.21,0,0,0,1.36-6.07,13.67,13.67,0,0,0,.14-1.57c0-.53.06-1.06,0-1.59a4.85,4.85,0,0,0-.79-2.81,2,2,0,0,0-2.3-.8,3.83,3.83,0,0,0-1.6,2.26c-.74,2-1.46,4-2.18,5.95s-1.42,3.86-2.11,5.73c-.35.94-.67,1.86-1,2.8a8,8,0,0,1-1.6,2.6,4.39,4.39,0,0,1-2.77,1.36,3.42,3.42,0,0,1-2.79-1.21c-1.32-1.54-1.6-3.4-2-5a28.76,28.76,0,0,1-.25-9.52,28.46,28.46,0,0,1,5.11-12.68,18.12,18.12,0,0,1,1.35-1.69,11.52,11.52,0,0,1,1.07-1.15A7,7,0,0,1,181.44,224.53Z"/><path d="M163.66,225.14a4.34,4.34,0,0,1,.7.84c.43.56,1,1.43,1.76,2.57a53.25,53.25,0,0,1,5,10.31,55.3,55.3,0,0,1,2.18,7.64c.28,1.4.54,2.86.72,4.38a12,12,0,0,1,.17,2.36,4,4,0,0,1-.89,2.47,3.7,3.7,0,0,1-2.43,1.18,4.55,4.55,0,0,1-2.67-.53,8.56,8.56,0,0,1-3.41-4.09,18.9,18.9,0,0,0-2.39-4.55,4,4,0,0,0-2-1.29,3.07,3.07,0,0,0-2.28.14,2.21,2.21,0,0,0-1,1.88,7.38,7.38,0,0,0,.4,2.5,18.16,18.16,0,0,0,2.14,4.67,34.27,34.27,0,0,0,6.61,7.28c2.41,2.07,4.83,3.9,7,5.75a39.74,39.74,0,0,1,5.61,5.64,18.84,18.84,0,0,1,4.31,10.57,12.69,12.69,0,0,1-.25,3.13,3.89,3.89,0,0,1-.34,1,19.46,19.46,0,0,0,.2-4.14,19,19,0,0,0-4.47-10.16,40.48,40.48,0,0,0-5.6-5.45c-2.17-1.8-4.61-3.6-7.07-5.68a34.59,34.59,0,0,1-6.83-7.46,19.06,19.06,0,0,1-2.28-4.92,8.61,8.61,0,0,1-.44-2.83,3.21,3.21,0,0,1,1.56-2.69,4,4,0,0,1,3.05-.23,5,5,0,0,1,2.48,1.6,19.73,19.73,0,0,1,2.53,4.78,7.62,7.62,0,0,0,3,3.67,3.31,3.31,0,0,0,3.95-.42,3,3,0,0,0,.68-1.9,12,12,0,0,0-.14-2.22c-.16-1.49-.4-2.93-.67-4.31a55.17,55.17,0,0,0-2-7.57,59.44,59.44,0,0,0-4.69-10.35C164.44,226.42,163.59,225.19,163.66,225.14Z"/><path d="M227.77,151.21s.07-.13.24-.34.43-.53.77-.93c.7-.79,1.75-2,3.22-3.33a28.3,28.3,0,0,1,6-4.32,18.11,18.11,0,0,1,9.5-2.17,12.8,12.8,0,0,1,5.52,1.63,11.91,11.91,0,0,1,4.42,4.41,9.61,9.61,0,0,1,1.09,6.61,15.42,15.42,0,0,1-3.12,6.35,62.93,62.93,0,0,1-5,5.4,23.77,23.77,0,0,0-4.48,5.91,20,20,0,0,0-1.61,7.47,28.55,28.55,0,0,1-1.37,8.11,16.06,16.06,0,0,1-5,6.57,40.79,40.79,0,0,1-6.73,4.25,116.42,116.42,0,0,0-12.88,7.34,95,95,0,0,0-18.8,16.54c-1.18,1.33-2.26,2.69-3.46,3.81a10.11,10.11,0,0,1-3.94,2.49,6,6,0,0,1-4.06-.23,28.69,28.69,0,0,1-3-1.52,6.75,6.75,0,0,0-4.34-.95,4.71,4.71,0,0,0-1.45.61s.08-.11.3-.29a3.28,3.28,0,0,1,1.11-.52,6.7,6.7,0,0,1,4.55.8c.92.44,1.88,1,3,1.43a5.55,5.55,0,0,0,3.72.14,9.61,9.61,0,0,0,3.67-2.42c1.14-1.1,2.18-2.44,3.36-3.81a93.27,93.27,0,0,1,18.82-16.84A115.3,115.3,0,0,1,230.71,196a40.34,40.34,0,0,0,6.57-4.15,15.19,15.19,0,0,0,4.73-6.16c1.9-5,.57-10.71,3-15.65a24.6,24.6,0,0,1,4.67-6.15,63.41,63.41,0,0,0,4.93-5.29,14.39,14.39,0,0,0,3-6,8.68,8.68,0,0,0-.95-6,11,11,0,0,0-4.08-4.15,12,12,0,0,0-5.18-1.59,17.59,17.59,0,0,0-9.19,2,28.73,28.73,0,0,0-6,4.11c-1.5,1.31-2.59,2.43-3.33,3.18A11.94,11.94,0,0,1,227.77,151.21Z"/><path d="M143.06,202.84a3.14,3.14,0,0,1-.31-.54l-.79-1.62c-.69-1.44-1.68-3.56-2.88-6.33a240,240,0,0,1-8.88-24c-1.61-5.15-3.19-10.86-4.64-17a47.58,47.58,0,0,1-1.55-9.78,19.7,19.7,0,0,1,.55-5.21,20.39,20.39,0,0,1,2.06-5c.88-1.58,1.91-3.09,2.95-4.59s2.1-3,3.17-4.54l6.54-9.37c2.25-3.17,4.43-6.44,6.85-9.67s5.32-6.38,9.26-8.11a13.94,13.94,0,0,1,6.19-1.2,16.79,16.79,0,0,1,6,1.37,21.31,21.31,0,0,1,9.19,7.64c1.13,1.66,1.92,3.44,2.83,5.07a12.18,12.18,0,0,0,3.42,4.19,5.86,5.86,0,0,0,4.82,1.13c1.61-.44,2.76-1.86,4-3.14a12,12,0,0,1,4.54-3,35.84,35.84,0,0,1,5-1.42c3.28-.77,6.63-1.47,9.89-.89a13.57,13.57,0,0,1,7.9,4.82,27.23,27.23,0,0,1,4.32,7.38,47.16,47.16,0,0,1,3.36,14.21,50.72,50.72,0,0,1-.44,11,5.38,5.38,0,0,0,.67,3.74,2.53,2.53,0,0,0,2.51.85,1.72,1.72,0,0,0,1.35-1,3.86,3.86,0,0,0,.12-.59s0,.05,0,.16a1.51,1.51,0,0,1-.05.47,1.85,1.85,0,0,1-1.41,1.12,3.16,3.16,0,0,1-1.37,0,2.39,2.39,0,0,1-1.42-.87,5.7,5.7,0,0,1-.82-3.95,51.48,51.48,0,0,0,.27-10.93,46.81,46.81,0,0,0-3.45-14,26.81,26.81,0,0,0-4.25-7.14,12.78,12.78,0,0,0-7.46-4.51c-3.05-.54-6.29.14-9.55.92s-6.73,1.59-9.09,4.17c-.61.63-1.21,1.31-1.91,1.94a6.44,6.44,0,0,1-2.51,1.47,6.79,6.79,0,0,1-5.63-1.27,13.11,13.11,0,0,1-3.7-4.48c-1-1.69-1.73-3.44-2.8-5a20.33,20.33,0,0,0-8.76-7.28A14.22,14.22,0,0,0,155.79,98c-3.67,1.61-6.46,4.66-8.86,7.79s-4.6,6.48-6.84,9.64l-6.57,9.35-3.18,4.53a53,53,0,0,0-2.92,4.5,19.37,19.37,0,0,0-2,4.75,18.67,18.67,0,0,0-.55,5,47.81,47.81,0,0,0,1.47,9.61c1.42,6.18,3,11.87,4.52,17,3.11,10.31,6.28,18.45,8.56,24,1.14,2.78,2.07,4.94,2.7,6.39l.71,1.67A3.52,3.52,0,0,1,143.06,202.84Z"/><path d="M138.82,191.81c.17,0,.75,2.63,2.43,6.68a54,54,0,0,0,3.48,6.83,50.17,50.17,0,0,0,5.62,7.5,57.25,57.25,0,0,0,6.93,6.34,57.2,57.2,0,0,1,5.85,5.13,18.34,18.34,0,0,1,3.1,4.28,4.89,4.89,0,0,1,.66,1.81,26.4,26.4,0,0,0-4.26-5.59,68.56,68.56,0,0,0-5.92-4.91,53.27,53.27,0,0,1-7.1-6.38,47.59,47.59,0,0,1-5.67-7.71,45.42,45.42,0,0,1-3.34-7,39.94,39.94,0,0,1-1.51-5A7,7,0,0,1,138.82,191.81Z"/><path d="M257.57,221.44a5.6,5.6,0,0,1-.41-1.56,9.65,9.65,0,0,0-.56-1.75,4.41,4.41,0,0,0-1.4-1.82,2.73,2.73,0,0,0-2.49-.48,3.65,3.65,0,0,0-1.94,2.29,24.67,24.67,0,0,0-.9,3.65c-.27,1.3-.55,2.65-.84,4s-.58,2.72-.85,4a8.22,8.22,0,0,0-.18,3.59,4,4,0,0,0,1.85,2.43,24.72,24.72,0,0,0,2.64,1.37,6.45,6.45,0,0,1,3.33,3c.42,1,.16,1.67.13,1.64a6.74,6.74,0,0,0-.48-1.47,6.54,6.54,0,0,0-3.28-2.51,21.8,21.8,0,0,1-2.78-1.31,4.85,4.85,0,0,1-2.31-2.9,9.05,9.05,0,0,1,.12-4c.27-1.31.55-2.66.83-4s.59-2.73.86-4a22.87,22.87,0,0,1,1-3.78,4.41,4.41,0,0,1,2.52-2.73,3.38,3.38,0,0,1,3.19.71,4.81,4.81,0,0,1,1.49,2.17,8.12,8.12,0,0,1,.42,1.88A4.57,4.57,0,0,1,257.57,221.44Z"/><path d="M225.86,260.33c.15,0,.55,2.05,1.38,5.33A87.12,87.12,0,0,0,237.45,290a48.51,48.51,0,0,1,2.84,4.71c-.1.08-1.5-1.51-3.44-4.33a68.51,68.51,0,0,1-10.3-24.51C225.89,262.46,225.74,260.35,225.86,260.33Z"/><path d="M226.94,262.28a4.68,4.68,0,0,1-1-.55,8.54,8.54,0,0,1-1.14-.79l-.71-.54-.75-.69a22.84,22.84,0,0,1-6.16-10.33,28.31,28.31,0,0,1-.68-13,34.86,34.86,0,0,1,1.18-4.82,46.25,46.25,0,0,1,4.43-9.65c.94-1.58,2-3.15,3.08-4.69.56-.77,1.12-1.54,1.72-2.3a13.28,13.28,0,0,1,2-2.23,3.77,3.77,0,0,1,3.06-1,4,4,0,0,1,2.57,1.84,9.94,9.94,0,0,1,1.21,2.69c.25.93.43,1.83.64,2.73a48,48,0,0,1,1,10.57,46.79,46.79,0,0,1-1.13,9.54,21.73,21.73,0,0,1-.52,2.15c-.2.7-.37,1.39-.58,2.06-.46,1.32-.84,2.6-1.36,3.77a45.93,45.93,0,0,1-5.91,10.52,29.18,29.18,0,0,1-2.08,2.53c-.51.55-.78.84-.81.81a5.37,5.37,0,0,1,.65-.94c.45-.6,1.15-1.45,1.93-2.63a49.08,49.08,0,0,0,5.56-10.55c.49-1.16.85-2.43,1.28-3.74.2-.66.36-1.34.54-2a20.64,20.64,0,0,0,.49-2.13,46.86,46.86,0,0,0,1-9.37,47.91,47.91,0,0,0-1-10.36c-.22-.87-.4-1.78-.64-2.65a8.59,8.59,0,0,0-1.08-2.41,3.06,3.06,0,0,0-1.92-1.42,2.79,2.79,0,0,0-2.25.75,12.8,12.8,0,0,0-1.85,2.07c-.58.75-1.14,1.51-1.7,2.27-1.09,1.51-2.11,3.06-3,4.61a46.21,46.21,0,0,0-4.39,9.43,34.74,34.74,0,0,0-1.2,4.69,28.71,28.71,0,0,0-.48,4.53,27.23,27.23,0,0,0,1,8.1,23.22,23.22,0,0,0,5.75,10.24C225.6,261.42,227,262.18,226.94,262.28Z"/><path d="M115.25,311.6c.23-.15,1.83,1.86,3.57,4.5s3,4.91,2.73,5.06-1.83-1.87-3.57-4.51S115,311.75,115.25,311.6Z"/><path d="M132,316.78c.27,0,.69,1.1.94,2.56s.22,2.69,0,2.73-.69-1.1-.94-2.56S131.7,316.83,132,316.78Z"/><path d="M111.72,324.71c.27,0,.7,1.43,1,3.27s.26,3.38,0,3.42-.7-1.43-1-3.28S111.44,324.75,111.72,324.71Z"/><path d="M225.11,385.86a7.86,7.86,0,0,0-1.81-1.59,8.5,8.5,0,0,0-6.65-.63,13.39,13.39,0,0,0-4.34,2.38,39.94,39.94,0,0,0-4.3,4.13L197.93,400.8a15,15,0,0,1-1.5,1.48,3.45,3.45,0,0,1-2.14.85,3.15,3.15,0,0,1-2.19-.93,6.87,6.87,0,0,1-1.33-1.9,11.78,11.78,0,0,1-.79-2.17c-.22-.73-.43-1.47-.61-2.23-.39-1.5-.69-3-1-4.62-1.12-6.33-1.47-13.18-2-20.32s-1.44-14.67-4.18-21.92a36,36,0,0,0-5.77-10.18,34.07,34.07,0,0,0-4.17-4.33,45.63,45.63,0,0,0-4.84-3.72A76.13,76.13,0,0,0,156.72,325c-1.82-.84-3.66-1.63-5.48-2.4s-3.66-1.55-5.46-2.18a8.43,8.43,0,0,0-5.37-.41,6,6,0,0,0-3.44,3.77,29.82,29.82,0,0,0-1.34,5.3c-.3,1.8-.54,3.59-.66,5.36a63.33,63.33,0,0,0,1.9,20.07A79.33,79.33,0,0,0,143.15,371,123.79,123.79,0,0,0,157.3,392.3c1.89,2.37,3.43,4.16,4.45,5.38l1.18,1.39a3,3,0,0,1,.37.5,2.61,2.61,0,0,1-.45-.43l-1.25-1.32c-1.07-1.19-2.66-2.93-4.61-5.27a118.94,118.94,0,0,1-14.47-21.28,78.67,78.67,0,0,1-6.45-16.6,63.31,63.31,0,0,1-2-20.34,54.33,54.33,0,0,1,.66-5.45,30.93,30.93,0,0,1,1.37-5.5,9,9,0,0,1,1.49-2.57,5.67,5.67,0,0,1,2.53-1.76,9.4,9.4,0,0,1,6,.4c1.89.66,3.67,1.45,5.52,2.2s3.68,1.56,5.52,2.41A76.69,76.69,0,0,1,168,330a41.35,41.35,0,0,1,9.22,8.25,36.78,36.78,0,0,1,5.92,10.46c2.78,7.42,3.63,15.05,4.18,22.2s.84,14,1.92,20.24c.28,1.57.57,3.1,1,4.58.17.75.38,1.48.58,2.2a12.12,12.12,0,0,0,.73,2c.6,1.25,1.58,2.45,2.83,2.43a2.69,2.69,0,0,0,1.69-.68,15.79,15.79,0,0,0,1.44-1.4l10.18-10.54a40.65,40.65,0,0,1,4.42-4.13,13.8,13.8,0,0,1,4.52-2.37,8.6,8.6,0,0,1,6.87.83,5.92,5.92,0,0,1,1.36,1.23A3.12,3.12,0,0,1,225.11,385.86Z"/><path d="M238.52,346.66c.1.16-2,1.46-5.09,4.06-.76.66-1.58,1.38-2.41,2.22s-1.7,1.74-2.6,2.7a51.24,51.24,0,0,0-9,14.52c-.47,1.24-.95,2.4-1.29,3.53s-.66,2.17-.92,3.14c-1,3.88-1.22,6.37-1.4,6.36a6.09,6.09,0,0,1,0-1.77,16.63,16.63,0,0,1,.23-2.05c.12-.8.23-1.72.47-2.7s.46-2.09.82-3.23.77-2.35,1.23-3.62A46.69,46.69,0,0,1,227.74,355c.94-1,1.81-1.91,2.71-2.7s1.73-1.52,2.53-2.15,1.56-1.16,2.22-1.62a19,19,0,0,1,1.74-1.11A6.22,6.22,0,0,1,238.52,346.66Z"/><path d="M272,345.39s-.35.49-1.18,1.17a25.86,25.86,0,0,1-3.73,2.54,60.61,60.61,0,0,1-6,2.94c-2.3,1-4.85,2-7.42,3.29a33.37,33.37,0,0,0-6.8,4.22,20.66,20.66,0,0,0-4.31,4.85c-2,3.18-2.08,5.62-2.27,5.58a4,4,0,0,1,.09-1.67A13.57,13.57,0,0,1,242,364a19.66,19.66,0,0,1,4.32-5.19,32.12,32.12,0,0,1,7-4.42c2.62-1.27,5.19-2.28,7.5-3.23s4.36-1.86,6-2.72C270.14,346.78,271.94,345.26,272,345.39Z"/><path d="M143.07,319.62c.3,0,.67,3,2,6.54s3.06,6.06,2.82,6.24-2.38-2.21-3.75-5.88S142.82,319.62,143.07,319.62Z"/><path d="M220.88,368c-.08,0,.16-1.35.48-3.76a64.2,64.2,0,0,0,.49-10.29,61.68,61.68,0,0,0-2.33-15A60.27,60.27,0,0,0,211.85,322a18.18,18.18,0,0,0-2.93-3.79,4.36,4.36,0,0,0-1.88-1,3.23,3.23,0,0,0-2,.2,2,2,0,0,0-1.15,1.42,20,20,0,0,0-.18,2.23,3.18,3.18,0,0,1-.39,1.25,2.35,2.35,0,0,1-1,.93,5.44,5.44,0,0,1-2.36.33,5,5,0,0,0-1.92.22,1.4,1.4,0,0,0-.85,1.26,12.07,12.07,0,0,0,.09,1.95,3.62,3.62,0,0,1-.4,2.14,4.34,4.34,0,0,1-3.47,1.87c-1.26.11-2.4-.07-3.45,0a10.79,10.79,0,0,0-5.39,1.72,12,12,0,0,0-3.18,3,16.94,16.94,0,0,0-1.77,3.3,3.15,3.15,0,0,1,.2-1,10.71,10.71,0,0,1,1.25-2.55,11.88,11.88,0,0,1,3.19-3.2,11.3,11.3,0,0,1,5.66-2c1.13-.08,2.28.06,3.41-.06a3.6,3.6,0,0,0,2.84-1.52,2.88,2.88,0,0,0,.26-1.66,13.53,13.53,0,0,1-.12-2.09,2.52,2.52,0,0,1,.38-1.18,2.32,2.32,0,0,1,1-.83,5.91,5.91,0,0,1,2.3-.31,5,5,0,0,0,1.95-.25,1.69,1.69,0,0,0,.86-1.45,21.13,21.13,0,0,1,.18-2.34,3,3,0,0,1,1.68-2.08,4.22,4.22,0,0,1,2.64-.29,5.4,5.4,0,0,1,2.34,1.24,19.42,19.42,0,0,1,3.11,4,59.49,59.49,0,0,1,7.72,17.23A60.23,60.23,0,0,1,222.56,354a56.57,56.57,0,0,1-.81,10.35c-.19,1.22-.45,2.14-.59,2.77A3.79,3.79,0,0,1,220.88,368Z"/><path d="M133.41,299.13a5.18,5.18,0,0,1,1,.66c.65.45,1.58,1.13,2.83,1.93a53.62,53.62,0,0,0,11.2,5.53,19.25,19.25,0,0,0,8.31,1.5,6.24,6.24,0,0,0,4-1.88,10.3,10.3,0,0,0,2.06-4.41,22.83,22.83,0,0,1,1.75-5.21,6.39,6.39,0,0,1,2-2.2,5.75,5.75,0,0,1,2.94-.86,11.6,11.6,0,0,1,5.77,1.71,27,27,0,0,1,2.56,1.62c.82.58,1.68,1.13,2.5,1.73a95,95,0,0,1,9.1,7.66c2.78,2.66,5.29,5.39,7.61,8a181.68,181.68,0,0,1,11.35,14.87c3,4.38,5.36,8,6.95,10.51.8,1.26,1.41,2.24,1.81,2.91a6.16,6.16,0,0,1,.58,1.06,5.35,5.35,0,0,1-.75-.94c-.44-.65-1.11-1.59-2-2.81-1.69-2.44-4.11-6-7.21-10.32s-6.87-9.39-11.47-14.68c-2.32-2.62-4.82-5.31-7.58-7.94a96.88,96.88,0,0,0-9-7.56c-.81-.6-1.65-1.14-2.47-1.71a26.49,26.49,0,0,0-2.48-1.58,10.71,10.71,0,0,0-5.27-1.6,4.82,4.82,0,0,0-2.45.7,5.45,5.45,0,0,0-1.72,1.85,22.39,22.39,0,0,0-1.69,5,11.08,11.08,0,0,1-2.31,4.76,7.14,7.14,0,0,1-4.57,2.11,19.9,19.9,0,0,1-8.64-1.66A49.62,49.62,0,0,1,137,302c-1.23-.85-2.12-1.59-2.73-2.09A5.29,5.29,0,0,1,133.41,299.13Z"/><path d="M171.93,301.89c-.24.14-1.42-1.4-2.64-3.44s-2-3.8-1.77-3.94,1.41,1.39,2.63,3.43S172.16,301.75,171.93,301.89Z"/><path d="M165.29,327.3c-.28,0-.71-5.13-1-11.5s-.25-11.52,0-11.54.71,5.14,1,11.5S165.56,327.29,165.29,327.3Z"/><path d="M158.07,319.39c-.28,0-.55-.94-.61-2.13s.11-2.17.39-2.19.55.95.61,2.14S158.34,319.38,158.07,319.39Z"/><ellipse cx="149.63" cy="310.76" rx="0.5" ry="0.96"/><path d="M160.9,283.16c.25-.11,1,1.15,1.77,2.81s1.1,3.09.85,3.2-1-1.14-1.77-2.8S160.64,283.27,160.9,283.16Z"/><path d="M225.77,335.23c.27,0,.59,3.11.71,6.95s0,7-.3,7-.59-3.1-.7-7S225.49,335.24,225.77,335.23Z"/><path d="M230.3,340c.27,0,.66.94.86,2.2s.14,2.32-.13,2.36-.66-.94-.86-2.2S230,340.08,230.3,340Z"/><path d="M215.3,294.49c.21-.14,2.88,3.86,4.75,9.45s2.17,10.39,1.91,10.4-1-4.61-2.86-10.08S215,294.64,215.3,294.49Z"/><path d="M205.57,294.18c.25-.13,1.56,1.84,2.93,4.41s2.28,4.74,2,4.87-1.56-1.84-2.93-4.4S205.33,294.31,205.57,294.18Z"/><path d="M198.2,295.36c.25-.12,1.16,1.35,2,3.26s1.37,3.57,1.12,3.69-1.16-1.35-2-3.27S198,295.47,198.2,295.36Z"/><path d="M316.6,286.82s.12-.11.38-.26l1.16-.69c.52-.27,1.11-.7,1.83-1.18s1.5-1.09,2.39-1.77A37.19,37.19,0,0,0,328,277.1a36.55,36.55,0,0,0,5.24-9.35A33.74,33.74,0,0,0,335.51,255a13.58,13.58,0,0,0-.45-3.46,6.29,6.29,0,0,0-1.69-3,4.85,4.85,0,0,0-3.24-1.16,36.94,36.94,0,0,0-3.86.23,157.24,157.24,0,0,0-33.73,6.87q-4.37,1.41-8.54,3a58.17,58.17,0,0,0-7.95,3.65,27.07,27.07,0,0,0-6.59,5.1,18.43,18.43,0,0,0-4.1,6.75,20.7,20.7,0,0,0-.74,7.53,35.08,35.08,0,0,1-.16,7.4,10.47,10.47,0,0,1-3.13,6.23,25.07,25.07,0,0,1-5.49,3.27,11.54,11.54,0,0,0-4.42,3.32,7.85,7.85,0,0,0-1.34,4.65c.06,3.14.87,5.82,1.11,8.07a11.63,11.63,0,0,1-.26,5.19,5.58,5.58,0,0,1-.55,1.24,1.66,1.66,0,0,1-.25.38,1.69,1.69,0,0,1,.15-.43,5.19,5.19,0,0,0,.45-1.25,11.84,11.84,0,0,0,.08-5.08c-.3-2.21-1.17-4.85-1.29-8.12a8.39,8.39,0,0,1,1.38-5,12.2,12.2,0,0,1,4.61-3.58,25.15,25.15,0,0,0,5.3-3.21,9.72,9.72,0,0,0,2.83-5.8,35.3,35.3,0,0,0,.1-7.22,21.22,21.22,0,0,1,.75-7.85,19.33,19.33,0,0,1,4.27-7.12,27.94,27.94,0,0,1,6.81-5.3,59.86,59.86,0,0,1,8.07-3.73c2.8-1.07,5.66-2.1,8.59-3a155,155,0,0,1,33.95-6.84,37.66,37.66,0,0,1,4-.21,7,7,0,0,1,2,.35,5.13,5.13,0,0,1,1.78,1.07,7,7,0,0,1,1.91,3.41,14.53,14.53,0,0,1,.46,3.67,34.25,34.25,0,0,1-2.42,13,35.83,35.83,0,0,1-11.32,15.22,28.51,28.51,0,0,1-2.47,1.72c-.74.45-1.35.86-1.89,1.11l-1.21.6C316.75,286.78,316.61,286.84,316.6,286.82Z"/><path d="M270.4,277.45s.19-.26.62-.68,1.1-1,2-1.75a35.16,35.16,0,0,1,8.35-5,28,28,0,0,1,14.24-2.13,22.84,22.84,0,0,1,8.16,2.68,24,24,0,0,1,3.79,2.56,22.37,22.37,0,0,1,3.26,3.4,18.41,18.41,0,0,1,3.68,8.48,19.45,19.45,0,0,1-.72,8.58,24.3,24.3,0,0,1-8.21,11.79,33.15,33.15,0,0,1-8.41,4.87c-1.07.42-1.91.7-2.49.88a3,3,0,0,1-.9.2c0-.08,1.17-.5,3.24-1.44a35.81,35.81,0,0,0,8.11-5.05,24.07,24.07,0,0,0,7.78-11.52,18.71,18.71,0,0,0,.63-8.17,17.55,17.55,0,0,0-3.5-8,22.82,22.82,0,0,0-3.11-3.25,24.13,24.13,0,0,0-3.62-2.47,22.54,22.54,0,0,0-7.81-2.62,27.93,27.93,0,0,0-13.85,1.87,38.59,38.59,0,0,0-8.38,4.63C271.41,276.67,270.46,277.51,270.4,277.45Z"/><path d="M356.08,260.66a6.66,6.66,0,0,1-1.12,1.5c-.77.92-1.94,2.2-3.46,3.72s-3.39,3.27-5.56,5.1-4.67,3.72-7.39,5.56-5.41,3.42-7.91,4.77-4.83,2.43-6.81,3.25-3.6,1.45-4.75,1.82a6.55,6.55,0,0,1-1.8.48c-.06-.15,2.41-1.12,6.26-2.94,1.93-.9,4.19-2.06,6.65-3.42s5.11-3,7.8-4.79,5.16-3.69,7.36-5.44,4.1-3.44,5.66-4.9C354.14,262.48,356,260.56,356.08,260.66Z"/><path d="M248.71,276.15a3.23,3.23,0,0,1,.26-.86,13.71,13.71,0,0,1,1.24-2.29,28.73,28.73,0,0,1,6.79-6.66c6.39-4.81,15.26-11.39,25.11-18.61a143.29,143.29,0,0,1,14.39-9.5,59.43,59.43,0,0,1,13-5.58,10.73,10.73,0,0,1,5.49-.14,6.44,6.44,0,0,1,3.42,2.37,4.67,4.67,0,0,1,.9,2.47,2.86,2.86,0,0,1-.06.68c0,.15-.05.22-.07.22s0-.31-.08-.89a4.6,4.6,0,0,0-1-2.24,6.13,6.13,0,0,0-3.25-2.07,10.31,10.31,0,0,0-5.17.28A62.78,62.78,0,0,0,297,239a157.28,157.28,0,0,0-14.25,9.5c-9.84,7.22-18.79,13.72-25.27,18.38a31.12,31.12,0,0,0-6.91,6.31C249.21,275,248.8,276.19,248.71,276.15Z"/><path d="M306.7,240.61c-.15-.25,1.81-1.62,4-3.61s3.69-3.81,3.93-3.64-1,2.32-3.25,4.38S306.82,240.84,306.7,240.61Z"/><path d="M282.66,249.11c-.09-.07.23-.78,1.28-1.42a4.86,4.86,0,0,1,7.32,3.53c.16,1.22-.2,1.92-.31,1.88s-.07-.72-.38-1.73a4.58,4.58,0,0,0-6.31-3C283.28,248.71,282.78,249.21,282.66,249.11Z"/><path d="M286,254.29a12,12,0,0,1,2.08-1.57c.69-.48,1.54-1.06,2.55-1.69s2.14-1.37,3.45-2.11c2.57-1.54,5.72-3.25,9.28-5s7.57-3.49,11.85-5.12,8.46-2.93,12.28-4,7.32-1.85,10.27-2.4c1.46-.3,2.81-.5,4-.69s2.2-.33,3-.42a13.91,13.91,0,0,1,2.6-.21,12.57,12.57,0,0,1-2.54.59c-.82.15-1.83.34-3,.59s-2.49.49-3.94.84c-2.92.63-6.37,1.5-10.16,2.58s-7.91,2.45-12.17,4-8.24,3.35-11.81,5-6.72,3.33-9.33,4.78c-1.32.7-2.48,1.4-3.51,2s-1.92,1.11-2.63,1.54A14.52,14.52,0,0,1,286,254.29Z"/><path d="M307.76,302.29a3.65,3.65,0,0,1,.65-.47l1.95-1.25,7.45-4.63,5.31-3.26,3-1.84c1-.63,2.09-1.33,3.28-1.94a8.05,8.05,0,0,1,4.06-1,5.24,5.24,0,0,1,2.18.6,4,4,0,0,1,1.65,1.69,5.65,5.65,0,0,1,0,4.69,15.64,15.64,0,0,1-2.77,3.92l-.68-.57,10.77-13.57a13.83,13.83,0,0,1,3.53-3.18,6.85,6.85,0,0,1,4.87-.93,5.55,5.55,0,0,1,3.83,3.31,9.62,9.62,0,0,1,.66,5,15.3,15.3,0,0,1-3.53,7.48,22.48,22.48,0,0,1-6.16,5.09c-4.56,2.62-9.47,3.89-14,5.23l-24.18,7-16.32,4.61-4.46,1.21a10.39,10.39,0,0,1-1.57.35,10.18,10.18,0,0,1,1.52-.55l4.4-1.38L309.42,313l24.12-7.17c4.53-1.36,9.36-2.64,13.76-5.19a22,22,0,0,0,5.89-4.87,14.55,14.55,0,0,0,3.3-7,8.67,8.67,0,0,0-.58-4.5,4.52,4.52,0,0,0-3.14-2.75,5.94,5.94,0,0,0-4.15.81,12.8,12.8,0,0,0-3.28,3c-3.8,4.73-7.43,9.25-10.82,13.49l-.68-.57a14.78,14.78,0,0,0,2.64-3.67,4.84,4.84,0,0,0,.1-4,3.64,3.64,0,0,0-3.15-1.87,7.3,7.3,0,0,0-3.68.9c-1.14.57-2.21,1.25-3.26,1.86s-2.06,1.23-3,1.8l-5.37,3.17-7.57,4.41-2,1.14A3.54,3.54,0,0,1,307.76,302.29Z"/><path d="M334.06,334.53c.12-.24,2.32.56,4.91,1.81s4.59,2.45,4.47,2.7-2.31-.56-4.91-1.8S333.94,334.78,334.06,334.53Z"/><path d="M251.79,322.22a2.61,2.61,0,0,1,.71-.38,14.84,14.84,0,0,1,2.18-.72,22,22,0,0,1,8.44-.14c3.55.52,7.58,1.94,12,3.41a52.72,52.72,0,0,0,7,1.87,29.09,29.09,0,0,0,7.72.3,56.8,56.8,0,0,0,14.56-3.75c4.37-1.65,8.28-3.24,11.58-4.5s6-2.3,7.83-3a17.11,17.11,0,0,1,2.93-1,19.42,19.42,0,0,1-2.78,1.32c-1.81.8-4.45,1.92-7.72,3.28s-7.14,3-11.51,4.72a55.88,55.88,0,0,1-14.8,3.88,29.06,29.06,0,0,1-8-.34,50.57,50.57,0,0,1-7.14-2A82,82,0,0,0,263,321.68a23.39,23.39,0,0,0-8.24-.18C252.84,321.86,251.83,322.31,251.79,322.22Z"/><path d="M304.23,334.53c0,.13-1.74,0-4.47-.44A90.22,90.22,0,0,1,279,328a18,18,0,0,1-4-2c.06-.14,1.66.46,4.26,1.4s6.18,2.18,10.2,3.38,7.72,2.09,10.41,2.71A24.33,24.33,0,0,1,304.23,334.53Z"/><path d="M254.61,221.21c.3,0-.28,3.78.47,8.29s2.44,7.87,2.17,8-2.41-3.13-3.15-7.85S254.37,221.13,254.61,221.21Z"/><path d="M232.68,220c.11.13-1,1.24-2.5,3.31a29.72,29.72,0,0,0-2.28,3.8A28.39,28.39,0,0,0,225,237.56a28.26,28.26,0,0,0,0,4.44c.21,2.52.62,4.07.46,4.11s-.76-1.45-1.16-4a23.11,23.11,0,0,1-.24-4.58A28.32,28.32,0,0,1,225,232a27.58,27.58,0,0,1,2.08-5.22,23.94,23.94,0,0,1,2.54-3.81C231.28,220.9,232.61,220,232.68,220Z"/><path d="M105.24,304c.09-.28,1.18-.16,2.45-.36s2.29-.62,2.45-.38-.76,1.14-2.3,1.36S105.14,304.23,105.24,304Z"/><path d="M186.89,242.19c.05,0,.29.38.57,1.19a12.09,12.09,0,0,1,.56,3.55,20.38,20.38,0,0,1-.68,5.28,49.34,49.34,0,0,1-2.08,6.13c-.84,2.11-1.62,4.11-2.18,6a23.6,23.6,0,0,0-1,5c-.24,2.92.37,4.71.19,4.75s-.27-.4-.5-1.22a12.51,12.51,0,0,1-.4-3.57,22,22,0,0,1,.84-5.25,57.48,57.48,0,0,1,2.15-6.09,59.73,59.73,0,0,0,2.11-6,22.7,22.7,0,0,0,.86-5.05C187.44,244,186.71,242.24,186.89,242.19Z"/><path d="M160.5,250.54a20.83,20.83,0,0,0,.85,3.2,10.82,10.82,0,0,0,1.94,2.95,14.72,14.72,0,0,0,3.4,2.7c2.7,1.58,5.44,2.59,7.33,3.52s3,1.5,3,1.63-1.3-.26-3.27-1a47.75,47.75,0,0,1-7.57-3.31,14.26,14.26,0,0,1-3.58-2.95,10.23,10.23,0,0,1-1.91-3.3C160,251.89,160.4,250.51,160.5,250.54Z"/><path d="M248.9,324.9c.11,0,.33.7-.24,1.67a5.61,5.61,0,0,1-3.37,2.23,34.1,34.1,0,0,0-3.62,1c-.86.33-1.31.73-1.43.63s.2-.7,1.11-1.26a13.22,13.22,0,0,1,3.68-1.29,6.4,6.4,0,0,0,3.05-1.68C248.67,325.5,248.74,324.88,248.9,324.9Z"/><path class="cls-1" d="M154.64,434c-4.44-7.33-8.89-14.7-14.31-21.33s-11.91-12.56-19.59-16.36"/><path d="M120.74,396.32a7.55,7.55,0,0,1,1.88.77,39.8,39.8,0,0,1,4.78,2.81,63.24,63.24,0,0,1,13.31,12.46,124.74,124.74,0,0,1,10.31,15c1.19,2,2.11,3.64,2.74,4.78a8.32,8.32,0,0,1,.88,1.83,7.66,7.66,0,0,1-1.22-1.62l-3-4.62A167.74,167.74,0,0,0,139.94,413a71.4,71.4,0,0,0-13-12.52C123.26,397.74,120.66,396.48,120.74,396.32Z"/><path d="M162.44,451.05c.1-.12.89.44,2.26,1.15a20.09,20.09,0,0,0,5.62,1.89,19.78,19.78,0,0,0,5.94.06c1.52-.21,2.45-.48,2.51-.33s-.82.62-2.37,1a15.5,15.5,0,0,1-12.06-2C163,451.91,162.36,451.14,162.44,451.05Z"/><path d="M214.19,426a13.64,13.64,0,0,1-.6,4.63,29,29,0,0,1-1.67,4.82,31.24,31.24,0,0,1-7.24,10.1,29.24,29.24,0,0,1-4,3.12,13.76,13.76,0,0,1-4.2,2.06c-.08-.16,1.51-1,3.8-2.64a35.89,35.89,0,0,0,3.78-3.21,38.45,38.45,0,0,0,4-4.6,38.88,38.88,0,0,0,3.09-5.22,35.77,35.77,0,0,0,1.82-4.62C213.76,427.72,214,426,214.19,426Z"/><path class="cls-1" d="M192.58,455.37c-5.25,12.81-3.37,27.28-1.4,41l3.27,22.78"/><path d="M194.45,519.14a12.2,12.2,0,0,1-.55-2.48c-.3-1.61-.68-3.94-1.14-6.82s-1-6.33-1.57-10.14-1.21-8-1.72-12.46a100.73,100.73,0,0,1-.75-12.59,58.07,58.07,0,0,1,.95-10.27,42.25,42.25,0,0,1,1.84-6.7,12.35,12.35,0,0,1,1.07-2.31c.2.07-1.32,3.39-2.21,9.14a63.82,63.82,0,0,0-.73,10.15,113.18,113.18,0,0,0,.83,12.47c.5,4.41,1.12,8.61,1.64,12.44s1,7.27,1.35,10.17.65,5.24.82,6.86A12.69,12.69,0,0,1,194.45,519.14Z"/><path d="M166.29,422c.09-.08.66.36,1.3,1.31a9.92,9.92,0,0,1,1,8.63c-.4,1.08-.86,1.63-1,1.57-.27-.11.89-2.64.48-5.88S166.05,422.17,166.29,422Z"/><path d="M124.87,260.37c.29,0-.26,4.54-.06,10.1s1,10,.74,10.08-1.56-4.37-1.74-10.05S124.62,260.31,124.87,260.37Z"/><path d="M113.27,261c.11,0,0,1.3-1,3.15A14.37,14.37,0,0,1,99.22,272c-2.06-.06-3.26-.52-3.23-.63s1.26,0,3.21-.08a15.52,15.52,0,0,0,12.5-7.52C112.73,262.08,113.12,260.9,113.27,261Z"/><path d="M159,225.21c0-.14,1.25-.68,3.37-1.45,1.06-.39,2.32-.84,3.74-1.31a27.43,27.43,0,0,1,4.77-1.21,14.66,14.66,0,0,1,5,.15,23.74,23.74,0,0,1,3.86,1.13c2.12.83,3.35,1.49,3.3,1.61s-1.39-.3-3.53-.94a19.82,19.82,0,0,0-8.47-1,31.74,31.74,0,0,0-4.63,1.1l-3.81,1.1A13.69,13.69,0,0,1,159,225.21Z"/><path d="M163.35,139.9s.24.2.6.65.9,1.1,1.56,2c1.33,1.73,3.24,4.25,5.36,7.54a52.5,52.5,0,0,1,6,12.4,30.84,30.84,0,0,1,.78,16.8,33.88,33.88,0,0,1-3.5,8.06c-1.38,2.45-2.79,4.76-3.86,7.06a22.82,22.82,0,0,0-2.11,6.83,13,13,0,0,0,.65,6.11c.66,1.79,1.53,3.35,2.07,4.82a10.22,10.22,0,0,1,.77,4,5.8,5.8,0,0,1-.57,2.49,2.16,2.16,0,0,1-.52.73,7,7,0,0,0,.71-3.22,10.48,10.48,0,0,0-.91-3.75c-.57-1.42-1.47-2.93-2.21-4.79a13.38,13.38,0,0,1-.81-6.44,23.56,23.56,0,0,1,2.09-7.13c1.08-2.38,2.49-4.71,3.84-7.15a33.84,33.84,0,0,0,3.39-7.83,30.4,30.4,0,0,0-.69-16.28,54,54,0,0,0-5.72-12.29c-2-3.32-3.85-5.89-5.07-7.69A23.94,23.94,0,0,1,163.35,139.9Z"/><path d="M185.2,114.58s-.19.14-.61.28a6,6,0,0,1-1.93.27,12.65,12.65,0,0,1-6.64-2.39c-1.27-.8-2.57-1.76-4.05-2.62a10.94,10.94,0,0,0-5-1.64,5.42,5.42,0,0,0-4.93,2.25,12.5,12.5,0,0,0-1.44,2.77L160,115c-.18.52-.32,1.06-.48,1.59a29.37,29.37,0,0,0-1.11,6.37c-.1,1,0,2.08-.07,3.09s.1,2,.24,3a33.17,33.17,0,0,0,2.78,9.84c2.5,5.32,5.29,7.86,5.11,8a10.77,10.77,0,0,1-1.85-1.81,29.28,29.28,0,0,1-3.9-5.89,32.35,32.35,0,0,1-3.06-10c-.15-1-.19-2-.27-3a30.85,30.85,0,0,1,0-3.18,29.06,29.06,0,0,1,1.12-6.59c.17-.55.31-1.1.5-1.64s.41-1,.62-1.57a13.17,13.17,0,0,1,1.56-3,6.08,6.08,0,0,1,2.61-2.1,7.11,7.11,0,0,1,3.15-.49,11.51,11.51,0,0,1,5.41,1.85c1.52.92,2.8,1.92,4,2.74a10.28,10.28,0,0,0,8.8,2.43Z"/><path d="M131.14,178.45a3.86,3.86,0,0,1-.12-.93c0-.61-.1-1.52-.13-2.68-.07-2.33-.09-5.71.13-9.88a138,138,0,0,1,1.57-14.59c.45-2.72,1-5.57,1.67-8.5.33-1.47.7-3,1.09-4.46a16.72,16.72,0,0,1,1.83-4.48,6.71,6.71,0,0,1,3.9-3.05,7.82,7.82,0,0,1,4.78.38,19.24,19.24,0,0,1,4,2.11c1.19.81,2.32,1.66,3.52,1.66a2.15,2.15,0,0,0,1.53-.56,1.89,1.89,0,0,0,.46-1.5,8.6,8.6,0,0,0-.39-1.79c-.15-.62-.34-1.23-.44-1.84a23.76,23.76,0,0,1-.37-6.89,23.5,23.5,0,0,1,3-9.46,13.14,13.14,0,0,1,.82-1.33,10.2,10.2,0,0,1,.67-.92,3.93,3.93,0,0,1,.62-.71c.08.06-.72,1.08-1.77,3.14a24.52,24.52,0,0,0-2.58,9.34,23.07,23.07,0,0,0,.47,6.66c.11.59.3,1.17.46,1.77a9,9,0,0,1,.43,2,2.74,2.74,0,0,1-.68,2.18,3,3,0,0,1-2.18.86c-1.63,0-2.89-1-4-1.78a18.58,18.58,0,0,0-3.8-2,6.91,6.91,0,0,0-4.18-.34,5.72,5.72,0,0,0-3.32,2.62,15.81,15.81,0,0,0-1.72,4.21c-.39,1.48-.76,3-1.1,4.42-.67,2.9-1.24,5.73-1.71,8.43-.93,5.42-1.47,10.34-1.77,14.48s-.4,7.51-.45,9.84A27.93,27.93,0,0,1,131.14,178.45Z"/><path d="M142.07,141.54c-.28,0-.27-2.66,0-5.9s.74-5.83,1-5.8.27,2.66,0,5.89S142.34,141.56,142.07,141.54Z"/><path d="M232,147.47c.06.07-1,.85-2.82,2.47a37.55,37.55,0,0,0-6.42,7.85,35.76,35.76,0,0,0-5,14.05c-.38,2.8-.37,5.79-.47,8.91a34,34,0,0,1-1.38,9.65,15.07,15.07,0,0,1-5.63,8,14,14,0,0,1-4.34,1.84c-1.48.38-2.92.65-4.28,1a20.52,20.52,0,0,0-7.08,3.51,23.23,23.23,0,0,0-4.82,5,22,22,0,0,0-2.74,5.05,24,24,0,0,0-1.2,4.19,23,23,0,0,0-.31,2.75,3.19,3.19,0,0,1-.12,1,4,4,0,0,1-.08-1,16.73,16.73,0,0,1,.13-2.8,21.49,21.49,0,0,1,1.06-4.32,22,22,0,0,1,2.68-5.27,23.62,23.62,0,0,1,4.9-5.23,21,21,0,0,1,7.34-3.74c2.78-.79,5.84-1.1,8.32-2.79a14.17,14.17,0,0,0,5.22-7.5,33.59,33.59,0,0,0,1.35-9.37,84.22,84.22,0,0,1,.54-9,35.61,35.61,0,0,1,5.33-14.3,35,35,0,0,1,6.76-7.76c.95-.76,1.7-1.34,2.24-1.68A3.28,3.28,0,0,1,232,147.47Z"/><path d="M232.14,195.28c.06.27-4.61,1.6-10.44,3l-4.12.93a11.84,11.84,0,0,1-1.89.32,2.26,2.26,0,0,1-1.73-.71,2.05,2.05,0,0,1-.59-1.4,2,2,0,0,1,.28-1.07c.33-.52.67-.63.7-.58s-.18.27-.34.74a1.66,1.66,0,0,0,.44,1.81,1.56,1.56,0,0,0,1.2.38,13.93,13.93,0,0,0,1.72-.39l4.1-1C227.3,195.91,232.08,195,232.14,195.28Z"/><path d="M238.32,162.94c-.23-.15,2.62-4.88,6.37-10.57s7-10.17,7.21-10-2.62,4.88-6.37,10.56S238.55,163.09,238.32,162.94Z"/><path d="M200.42,133.22a20.2,20.2,0,0,1,4.07,3.49,51,51,0,0,1,3.85,4.37,57.46,57.46,0,0,1,4,5.89,58.64,58.64,0,0,1,3.21,6.38,50.92,50.92,0,0,1,2,5.49c.92,3.18,1.19,5.22,1.07,5.24s-.66-1.94-1.75-5A64.35,64.35,0,0,0,204,137.19C201.79,134.74,200.31,133.35,200.42,133.22Z"/><path d="M209.54,126.26c-.3,0-.83-3.18-2.35-6.85s-3.36-6.35-3.13-6.53,2.5,2.32,4.05,6.15S209.79,126.25,209.54,126.26Z"/><path d="M206.6,148.45c.21-.15,3,3.57,5.16,8.86s2.74,9.92,2.49,9.95-1.29-4.4-3.41-9.57S206.35,148.61,206.6,148.45Z"/><path d="M170.88,151.5a9.25,9.25,0,0,1,1-2.05,17,17,0,0,1,3.8-4.93,9.59,9.59,0,0,1,3.91-2,7.16,7.16,0,0,1,2.5-.13,10.33,10.33,0,0,1,2.52.72c1.61.64,3.21,1.51,4.94,1.49a7.45,7.45,0,0,0,4.91-2,8.84,8.84,0,0,0,2.76-4.63,11.86,11.86,0,0,0-.05-5.14,18.81,18.81,0,0,0-4.08-7.84,59.38,59.38,0,0,0-4.22-4.43,10.58,10.58,0,0,1-1.56-1.63,9.36,9.36,0,0,1,1.82,1.34,40.92,40.92,0,0,1,4.49,4.26,18.59,18.59,0,0,1,4.44,8.1,12.33,12.33,0,0,1,.11,5.55,9.68,9.68,0,0,1-3,5.17,8.34,8.34,0,0,1-5.58,2.23c-2.07,0-3.75-1-5.29-1.62a10,10,0,0,0-2.29-.7,6.29,6.29,0,0,0-2.21.07,9.2,9.2,0,0,0-3.64,1.74,18.78,18.78,0,0,0-3.91,4.58A10.2,10.2,0,0,1,170.88,151.5Z"/><path d="M113.37,239.19c.11.08-.81,1.58-2.4,3.93-.81,1.17-1.77,2.56-2.83,4.11a14.67,14.67,0,0,0-2.67,5.2,12.86,12.86,0,0,0,.51,5.79c.5,1.79,1,3.42,1.27,4.85a10,10,0,0,1,.13,3.42c-.13.8-.31,1.22-.37,1.2a18.57,18.57,0,0,0-.45-4.47c-.33-1.36-.91-2.93-1.46-4.75a13,13,0,0,1-.61-6.24,14.72,14.72,0,0,1,2.9-5.54c1.12-1.51,2.14-2.86,3-4C112.13,240.46,113.26,239.11,113.37,239.19Z"/><path d="M91,212.56c.1-.07,1.47,1.66,3.39,4.66A95.74,95.74,0,0,1,101,229.47a96.66,96.66,0,0,1,4.73,13.08c.94,3.43,1.32,5.6,1.2,5.63s-.77-2.07-1.88-5.43-2.78-7.95-5-12.87-4.5-9.23-6.26-12.3S90.88,212.64,91,212.56Z"/><path d="M96,225.79c0,.11-1.48-.09-3.66-1a20.28,20.28,0,0,1-7.39-5.5,2.56,2.56,0,0,1-.25-3,1.9,1.9,0,0,1,1.41-.75,3.72,3.72,0,0,1,1.33.19c1.5.51,2.75,1,3.85,1.41a14.46,14.46,0,0,1,3.44,1.55c-.05.13-1.44-.22-3.67-.88l-3.87-1.2c-.69-.19-1.41-.2-1.69.25a1.28,1.28,0,0,0-.17.87,2.15,2.15,0,0,0,.43,1,20.49,20.49,0,0,0,3.52,3.3,26,26,0,0,0,3.37,2.15C94.7,225.19,96.08,225.63,96,225.79Z"/><path d="M90.65,231.44c0,.12-1-.07-2.32-.84a11.55,11.55,0,0,1-4.14-4.31,4.86,4.86,0,0,1-.6-3.41,2.87,2.87,0,0,1,1.92-2.18,2.17,2.17,0,0,1,1.91.35c.37.29.42.57.37.6s-.22-.13-.57-.27a2,2,0,0,0-1.49,0,2.19,2.19,0,0,0-1.24,1.7,4.17,4.17,0,0,0,.59,2.74A13.46,13.46,0,0,0,88.73,230C89.88,230.89,90.71,231.3,90.65,231.44Z"/><path d="M96.5,241.58c-.14.23-4.51-2.2-9.75-5.44-1.27-.8-2.72-1.64-3.32-3.13a2.76,2.76,0,0,1,.09-2.19,2.67,2.67,0,0,1,1.37-1.29,2.4,2.4,0,0,1,2.52.44c.46.43.51.79.46.81s-.24-.23-.69-.5a2.11,2.11,0,0,0-2-.11,2,2,0,0,0-.89,2.5c.44,1.05,1.69,1.83,3,2.62C92.52,238.53,96.65,241.34,96.5,241.58Z"/><path d="M103.63,270.48a11.11,11.11,0,0,1-2.37-.48c-.76-.2-1.65-.53-2.71-.87-.52-.19-1.06-.44-1.64-.67s-1.2-.5-1.82-.83A42.33,42.33,0,0,1,78.72,253.5a41,41,0,0,1-5.32-10.77,9.57,9.57,0,0,1-.57-5.34,3.75,3.75,0,0,1,1.45-2.13,4.25,4.25,0,0,1,2.22-.75,11,11,0,0,1,3.79.54,17.1,17.1,0,0,0,2.72.6,7.86,7.86,0,0,0,2.34-.18s-.17.16-.56.31A4.88,4.88,0,0,1,83,236a14.67,14.67,0,0,1-2.83-.43,10.76,10.76,0,0,0-3.58-.39,3.74,3.74,0,0,0-1.84.67,3.09,3.09,0,0,0-1.1,1.72,8.78,8.78,0,0,0,.65,4.84,41.9,41.9,0,0,0,5.26,10.49A44,44,0,0,0,95.41,267C100.28,269.58,103.69,270.26,103.63,270.48Z"/><path d="M72.8,238a12.77,12.77,0,0,1-2.53-.93l-2.87-1.22-1.78-.77-1-.43-.33-.14-.12,0,0,.29c0,.31,0,.62,0,.93,0,.64.06,1.29.1,2,.08,1.34.19,2.74.36,4.2a32.54,32.54,0,0,0,2.21,9A19.54,19.54,0,0,0,73.3,259a22.47,22.47,0,0,0,3.93,2.29A21.54,21.54,0,0,0,81,262.55a19.63,19.63,0,0,0,5.75.56A14.43,14.43,0,0,1,88.9,263a6.17,6.17,0,0,1-2.12.48,17.8,17.8,0,0,1-5.93-.26A22.21,22.21,0,0,1,76.9,262a23.73,23.73,0,0,1-4.15-2.32A19.89,19.89,0,0,1,66,251.27a32.07,32.07,0,0,1-2.22-9.33c-.15-1.48-.24-2.91-.29-4.26,0-1.57-.08-3.05-.12-4.43l2.52,1.19,1.74.85,2.8,1.39A12.52,12.52,0,0,1,72.8,238Z"/><path d="M84.11,241.1c0,.13-.63.27-1.66.18a9.57,9.57,0,0,1-3.82-1.22,9.88,9.88,0,0,1-3-2.65c-.6-.84-.81-1.45-.7-1.52s1.65,1.87,4.21,3.3S84.12,240.81,84.11,241.1Z"/><path d="M39.79,216.9A6.16,6.16,0,0,1,41.62,218a20.62,20.62,0,0,1,4.11,4.08,46.86,46.86,0,0,1,4.48,7.3c1.47,2.85,3,6,4.71,9.28a81.13,81.13,0,0,0,10.19,15.76c3.13,3.66,5.58,5.43,5.45,5.58a8.32,8.32,0,0,1-1.76-1.17,39,39,0,0,1-4.22-3.93,54.73,54.73,0,0,1-5.27-6.75,95.43,95.43,0,0,1-5.28-9c-1.71-3.28-3.23-6.47-4.64-9.33a51.92,51.92,0,0,0-4.23-7.28C42.37,218.55,39.67,217.06,39.79,216.9Z"/><path d="M56.62,220.18a9.34,9.34,0,0,1-2.55-1.79,27.52,27.52,0,0,1-5.19-5.51,14.48,14.48,0,0,1-2.61-7.14c-.11-2,.34-3.15.45-3.12s0,1.21.25,3a16.59,16.59,0,0,0,2.74,6.65,38.86,38.86,0,0,0,4.83,5.54C55.89,219.21,56.72,220.07,56.62,220.18Z"/><path d="M70.45,204.66c0,.12-.82.06-2-.33A15.12,15.12,0,0,1,64,202a15.31,15.31,0,0,1-3.41-3.63c-.69-1.07-1-1.82-.85-1.89.26-.15,1.89,2.48,4.87,4.72S70.54,204.37,70.45,204.66Z"/><path d="M85.09,283.29a9.21,9.21,0,0,1-3.51.55,26.08,26.08,0,0,1-16.19-5,9.16,9.16,0,0,1-2.59-2.44c.11-.12,1.16.72,3,1.85a32,32,0,0,0,15.8,4.9C83.72,283.23,85.07,283.13,85.09,283.29Z"/><path d="M293,196.76c.1.06-.73,1.66-2.74,3.72s-5.15,4.43-8.37,7.23a21.36,21.36,0,0,0-6.27,8.66c-.89,2.63-.57,4.42-.77,4.43a2.8,2.8,0,0,1-.26-1.23,10,10,0,0,1,.35-3.4,15.74,15.74,0,0,1,2.17-4.59,25.72,25.72,0,0,1,4.12-4.62c3.29-2.87,6.5-5.07,8.54-7S292.88,196.67,293,196.76Z"/><path d="M192.07,294.08c.15-.22,1,.11,1.92.75s1.5,1.33,1.34,1.56-1-.11-1.92-.75S191.91,294.31,192.07,294.08Z"/><path d="M183.18,286.13c.26.11.16.87-.21,1.68s-.87,1.38-1.12,1.26-.16-.86.21-1.67S182.93,286,183.18,286.13Z"/><path d="M183.26,224c.16.22-.67,1.1-1.85,1.95s-2.28,1.36-2.45,1.14.67-1.1,1.86-2S183.1,223.73,183.26,224Z"/></g></svg>