<svg xmlns="http://www.w3.org/2000/svg" width="650" height="125" viewBox="0 0 650 125"><defs><style>.cls-1{fill:#fff;}</style></defs><title>Artboard 4</title><g id="Layer_3" data-name="Layer 3"><path d="M14.83,91.18,16.8,81c4.33.24,6.46.39,7.25-3.62l7.71-39.3H46.41L38.46,78.81c-.87,4.57-2.84,8-5.28,10C30.19,91.18,26,92,21.92,92A28.1,28.1,0,0,1,14.83,91.18ZM34.84,22H49.48L47.36,33.22H32.71Z"/><path d="M45.94,61.41c0-13.62,9.14-24.49,23.39-24.49,10.24,0,20.08,5.59,20.16,18.27.08,13.86-9.21,24.33-23.63,24.33C55.94,79.52,45.94,74,45.94,61.41ZM66.1,69.6c6.46,0,8.58-9.37,8.51-14.88,0-3.94-1.34-7.8-5.6-7.8-6.37,0-8.42,9.92-8.34,15C60.67,66.06,61.93,69.6,66.1,69.6Z"/><path d="M110.2,43.46h.24c2.84-3.63,6.85-6.62,12.6-6.62,8.27,0,13.07,6.06,10.87,17.33l-4.65,24.09H114.61l4.57-23.39c.71-3.54-.16-6.3-4-6.3-3.63,0-6.46,3.31-7.33,7.56l-4.25,22.13H88.94L99.81,22h14.57Z"/><path d="M158.25,73.85h-.16a14.18,14.18,0,0,1-10.79,5.44c-7.88,0-12.44-4.49-12.44-11.34,0-9,6.06-12.68,15.83-13.23,8.34-.48,12-1.11,12-5,0-1.66-1-3.15-3.78-3.15a5.73,5.73,0,0,0-6.15,4.8H138.79c1.58-8.5,7.8-14.49,21-14.49,4.33,0,8.74.55,12.13,2.76,3.7,2.44,6.06,6.85,4.57,14.33L173,71.65c-.71,3.38-.55,5.2.24,6l-.08.63H158.88A12.89,12.89,0,0,1,158.25,73.85Zm2-10,.71-3.54a23,23,0,0,1-6,1.57c-2.68.4-6.07,1.11-6.07,4.81,0,2.67,1.74,3.7,4.41,3.7C156.44,70.39,159.27,68.89,160.29,63.85Z"/><path d="M197.47,44.4h.23c3-4.33,7.56-7.56,13.31-7.56,8.27,0,13.07,6.06,10.87,17.33l-4.65,24.09H202.59l4.56-23.39c.71-3.54-.15-6.3-4-6.3-3.63,0-6.46,3.31-7.33,7.56l-4.25,22.13H176.91l7.8-40.16h14Z"/><path d="M244.8,22h15L249,78.26h-15Z"/><path d="M281.34,71.88h-.23c-2.84,4.49-6.93,7.64-12.84,7.64-8.43,0-13.62-5.82-11.5-16.61l4.81-24.81h14.64l-4.41,22.6c-.71,3.55-.08,6.93,3.78,6.93,3.63,0,6.46-2.44,7.33-7.09l4.33-22.44H301.9l-7.8,40.16H280.16Z"/><path d="M319.85,44.4h.24c3-4.33,7.56-7.56,13.31-7.56,8.27,0,13.07,6.06,10.87,17.33l-4.65,24.09H325l4.57-23.39c.71-3.54-.16-6.3-4-6.3-3.62,0-6.45,3.31-7.32,7.56L314,78.26H299.3l7.8-40.16h14Z"/><path d="M346.63,62c.08-12.36,7.09-25.2,20.64-25.2A12.39,12.39,0,0,1,378.61,43h.23l4.1-21h14.64l-10.86,56.3H372.78l.86-4.8h-.15a14.86,14.86,0,0,1-11.66,6.14C352.7,79.6,346.55,72.75,346.63,62Zm21.11,6.46c5.83,0,8.82-7.33,8.82-13,0-3.85-1.5-8.11-6-8.11-6.06.08-8.66,7.64-8.66,13.39C361.91,64.56,363.33,68.5,367.74,68.5Z"/><path d="M394.52,91.18l2-10.16c4.33.24,6.45.39,7.24-3.62l7.72-39.3H426.1l-8,40.71c-.86,4.57-2.83,8-5.27,10-3,2.36-7.17,3.15-11.26,3.15A28,28,0,0,1,394.52,91.18Zm20-69.22h14.65L427,33.22H412.39Z"/><path d="M447.6,73.85h-.16a14.18,14.18,0,0,1-10.79,5.44c-7.87,0-12.44-4.49-12.44-11.34,0-9,6.06-12.68,15.83-13.23,8.34-.48,12-1.11,12-5,0-1.66-1-3.15-3.78-3.15a5.73,5.73,0,0,0-6.15,4.8H428.15c1.57-8.5,7.79-14.49,20.94-14.49,4.33,0,8.74.55,12.13,2.76,3.7,2.44,6.07,6.85,4.57,14.33l-3.47,17.72c-.7,3.38-.55,5.2.24,6l-.08.63H448.23A12.89,12.89,0,0,1,447.6,73.85Zm2-10,.71-3.54a23,23,0,0,1-6,1.57c-2.68.4-6.07,1.11-6.07,4.81,0,2.67,1.74,3.7,4.41,3.7C445.79,70.39,448.62,68.89,449.64,63.85Z"/><path d="M486.82,44.4h.23c3-4.33,7.57-7.56,13.31-7.56,8.27,0,13.08,6.06,10.87,17.33l-4.65,24.09H491.94l4.56-23.39c.71-3.54-.15-6.3-4-6.3-3.62,0-6.46,3.31-7.32,7.56l-4.26,22.13H466.26l7.8-40.16h14Z"/><path d="M511.94,65.27H525.8c.08,3.15,1.58,5.27,6,5.27,2.68,0,4.65-.94,4.65-3.3,0-2.84-3.78-3.23-8.59-4.49-7.4-1.89-12.44-4.57-12.44-11.81,0-9.22,8.27-14.1,19-14.1,8.82,0,17.56,2.84,17.87,12.44H538.8c-.24-2.6-2.21-3.62-5-3.62-2.29,0-4.57.87-4.57,2.76s2.28,2.83,7.48,4c6.77,1.58,13.78,4,13.78,12.05,0,10.08-7.48,15.12-19.13,15.12C522.18,79.6,511.87,76.77,511.94,65.27Z"/><path d="M567.31,61.8c.08,3.78,1.5,7.56,6.85,7.56,2.44,0,4.73-.86,5.75-3.07h14.17A17,17,0,0,1,586.6,76a22.93,22.93,0,0,1-12.44,3.39c-11.81,0-20.79-6.46-20.79-18.51,0-13.62,9.45-24.1,22.92-24.1,5,0,8.5,1,11.42,2.84,6.53,4.17,8.82,12,7.32,22.2Zm1-7.87H582c.16-3.94-1.5-7.25-5.75-7.25C573.22,46.68,569.83,48.57,568.33,53.93Z"/><path d="M615.43,44.4h.24c3-4.33,7.56-7.56,13.3-7.56,8.27,0,13.08,6.06,10.87,17.33L635.2,78.26H620.55l4.57-23.39c.71-3.54-.16-6.3-4-6.3-3.62,0-6.46,3.31-7.32,7.56l-4.26,22.13H594.88l7.79-40.16h14Z"/><path class="cls-1" d="M10.9,89.21l2-10.16c4.33.24,6.46.39,7.25-3.62l7.72-39.3H42.47L34.52,76.85c-.87,4.56-2.83,8-5.28,10C26.25,89.21,22.08,90,18,90A28,28,0,0,1,10.9,89.21ZM30.9,20H45.54L43.42,31.25H28.77Z"/><path class="cls-1" d="M42,59.44C42,45.82,51.14,35,65.39,35c10.24,0,20.08,5.59,20.16,18.27.08,13.86-9.21,24.33-23.62,24.33C52,77.55,42,72,42,59.44Zm20.16,8.19c6.46,0,8.59-9.37,8.51-14.88,0-3.94-1.34-7.8-5.59-7.8-6.38,0-8.43,9.92-8.35,15C56.73,64.09,58,67.63,62.16,67.63Z"/><path class="cls-1" d="M106.27,41.49h.23c2.84-3.63,6.85-6.62,12.6-6.62,8.27,0,13.08,6.07,10.87,17.33l-4.65,24.09H110.68l4.56-23.38c.71-3.55-.15-6.3-4-6.3-3.63,0-6.46,3.3-7.33,7.56L99.65,76.29H85L95.87,20h14.57Z"/><path class="cls-1" d="M154.31,71.88h-.16a14.15,14.15,0,0,1-10.79,5.44c-7.87,0-12.44-4.49-12.44-11.34,0-9,6.06-12.68,15.83-13.23,8.35-.47,12-1.1,12-5,0-1.66-1-3.15-3.78-3.15-3.39,0-5.36,1.65-6.14,4.8H134.86c1.57-8.5,7.79-14.49,20.94-14.49,4.34,0,8.75.55,12.13,2.76,3.7,2.44,6.07,6.85,4.57,14.33L169,69.68c-.7,3.39-.55,5.2.24,6l-.08.63H154.94A12.89,12.89,0,0,1,154.31,71.88Zm2.05-10,.7-3.54a23,23,0,0,1-6,1.57c-2.68.4-6.06,1.11-6.06,4.81,0,2.68,1.73,3.7,4.41,3.7C152.5,68.42,155.33,66.92,156.36,61.88Z"/><path class="cls-1" d="M193.53,42.43h.24c3-4.33,7.56-7.56,13.3-7.56,8.27,0,13.08,6.07,10.87,17.33L213.3,76.29H198.65l4.57-23.38c.7-3.55-.16-6.3-4-6.3-3.62,0-6.46,3.3-7.32,7.56l-4.26,22.12H173l7.79-40.16h14Z"/><path class="cls-1" d="M240.86,20h15L245,76.29H230Z"/><path class="cls-1" d="M277.4,69.92h-.23c-2.84,4.48-6.93,7.63-12.84,7.63-8.42,0-13.62-5.82-11.5-16.61l4.81-24.81h14.65l-4.41,22.6c-.71,3.55-.08,6.93,3.78,6.93,3.62,0,6.45-2.44,7.32-7.08l4.33-22.45H298l-7.8,40.16H276.22Z"/><path class="cls-1" d="M315.92,42.43h.23c3-4.33,7.56-7.56,13.31-7.56,8.27,0,13.07,6.07,10.87,17.33l-4.65,24.09H321l4.56-23.38c.71-3.55-.15-6.3-4-6.3-3.63,0-6.46,3.3-7.33,7.56L310,76.29H295.36l7.8-40.16h14Z"/><path class="cls-1" d="M342.7,60.07c.07-12.36,7.08-25.2,20.63-25.2A12.41,12.41,0,0,1,374.67,41h.24L379,20h14.65l-10.87,56.3H368.84l.87-4.8h-.16a14.84,14.84,0,0,1-11.66,6.14C348.76,77.63,342.62,70.78,342.7,60.07Zm21.1,6.46c5.83,0,8.82-7.32,8.82-13,0-3.86-1.49-8.12-6-8.12-6.07.08-8.67,7.64-8.67,13.39C358,62.59,359.39,66.53,363.8,66.53Z"/><path class="cls-1" d="M390.58,89.21l2-10.16c4.33.24,6.46.39,7.24-3.62l7.72-39.3h14.65l-8,40.72c-.87,4.56-2.84,8-5.28,10-3,2.36-7.17,3.15-11.26,3.15A28,28,0,0,1,390.58,89.21Zm20-69.22h14.65L423.1,31.25H408.46Z"/><path class="cls-1" d="M443.66,71.88h-.16a14.14,14.14,0,0,1-10.79,5.44c-7.87,0-12.44-4.49-12.44-11.34,0-9,6.06-12.68,15.83-13.23,8.35-.47,12-1.1,12-5,0-1.66-1-3.15-3.78-3.15-3.39,0-5.36,1.65-6.14,4.8H424.21c1.57-8.5,7.79-14.49,21-14.49,4.33,0,8.74.55,12.12,2.76,3.7,2.44,6.07,6.85,4.57,14.33l-3.46,17.72c-.71,3.39-.56,5.2.23,6l-.08.63H444.29A13.14,13.14,0,0,1,443.66,71.88Zm2-10,.71-3.54a23.2,23.2,0,0,1-6,1.57c-2.68.4-6.06,1.11-6.06,4.81,0,2.68,1.73,3.7,4.41,3.7C441.85,68.42,444.68,66.92,445.71,61.88Z"/><path class="cls-1" d="M482.88,42.43h.24c3-4.33,7.56-7.56,13.31-7.56,8.26,0,13.07,6.07,10.86,17.33l-4.64,24.09H488l4.57-23.38c.71-3.55-.16-6.3-4-6.3-3.62,0-6.46,3.3-7.32,7.56L477,76.29H462.33l7.79-40.16h14Z"/><path class="cls-1" d="M508,63.3h13.86c.08,3.15,1.57,5.28,6,5.28,2.68,0,4.65-1,4.65-3.31,0-2.84-3.78-3.23-8.59-4.49-7.4-1.89-12.44-4.57-12.44-11.81,0-9.22,8.27-14.1,19-14.1,8.82,0,17.56,2.84,17.88,12.44H534.86c-.24-2.6-2.2-3.62-5-3.62-2.28,0-4.57.87-4.57,2.76s2.29,2.83,7.48,4c6.78,1.58,13.79,4,13.79,12,0,10.08-7.49,15.12-19.14,15.12C518.24,77.63,507.93,74.8,508,63.3Z"/><path class="cls-1" d="M563.37,59.84c.08,3.78,1.5,7.56,6.85,7.56,2.44,0,4.73-.87,5.75-3.08h14.18A17,17,0,0,1,582.67,74a23,23,0,0,1-12.45,3.39c-11.81,0-20.79-6.46-20.79-18.51,0-13.62,9.45-24.1,22.92-24.1,5,0,8.5,1,11.42,2.84,6.53,4.17,8.82,12,7.32,22.21Zm1-7.88H578c.16-3.94-1.5-7.25-5.75-7.25C569.28,44.71,565.89,46.61,564.39,52Z"/><path class="cls-1" d="M611.49,42.43h.24c3-4.33,7.56-7.56,13.31-7.56,8.27,0,13.07,6.07,10.86,17.33l-4.64,24.09H616.61l4.57-23.38c.71-3.55-.16-6.3-4-6.3-3.62,0-6.46,3.3-7.32,7.56l-4.26,22.12H590.94l7.79-40.16h14Z"/></g></svg>