<svg id="Layer_1" data-name="Layer 1" xmlns="http://www.w3.org/2000/svg" width="600" height="600" viewBox="0 0 600 600"><defs><style>.cls-1{fill:#ff7610;}.cls-2{fill:#ff9136;}.cls-3{fill:none;stroke:#e27f34;stroke-miterlimit:10;stroke-width:15px;}.cls-4{fill:#e27f34;}.cls-5{fill:#f2f2f2;}.cls-6{fill:#ed1c24;}.cls-7{fill:#c1272d;}.cls-8{fill:#ffa466;}.cls-9{fill:#c66ae5;}.cls-10{fill:#f9f9f9;}.cls-11{fill:#fff;}.cls-12{fill:#1bea5a;}.cls-13{fill:#333;}</style></defs><title>ballin</title><rect class="cls-1" x="411.76" y="273.69" width="40.06" height="131.81"/><rect class="cls-1" x="453.11" y="370.61" width="40.06" height="131.81" transform="translate(-167.56 499.14) rotate(-48.28)"/><path class="cls-2" d="M73.21,140.29A254.14,254.14,0,0,0,33.32,277.4c0,141.05,114.35,255.4,255.4,255.4s255.4-114.35,255.4-255.4a254.22,254.22,0,0,0-35.53-130,4.08,4.08,0,0,1-2.5-4.14A255.44,255.44,0,0,0,86.21,121.76"/><path class="cls-3" d="M437.87,70.81c-6.05,7.4-14.53,13.37-23,19.83-13.08,9-27.16,15.65-41.93,22.4-25,10.46-51.74,17.69-79.51,22.59-43.15,6.79-87.47,9.79-129.43,3.14-26.11-4.66-51.13-11.92-70.68-24.79"/><path class="cls-3" d="M131.17,472.72c14.64-14.52,33.6-26.93,54.54-36.92,22.85-10.91,48-19,73.64-25.17a496.78,496.78,0,0,1,83-12.79,391.63,391.63,0,0,1,78.79,2.45c23.2,3.21,46.1,8.51,65,17.86,2.35,1.16,4.63,2.38,6.82,3.67"/><path class="cls-4" d="M321.74,531.2,305,532.81a801.92,801.92,0,0,0,17.55-252.66A802,802,0,0,0,255.88,24.39l16.7-1.62c29.94,58,74.33,163.59,77.15,301.32A681,681,0,0,1,321.74,531.2Z"/><path class="cls-4" d="M35.25,272.84l-1.62-16.75A684.72,684.72,0,0,0,291,279.22a684.56,684.56,0,0,0,242.25-71.44l1.62,16.75a615.78,615.78,0,0,1-236.21,76.74A616.2,616.2,0,0,1,35.25,272.84Z"/><path d="M220.4,187.71A30,30,0,0,1,229.71,172C238,165,248,165.1,253.6,165.18c4.29.07,10.16.23,16.6,3.68a32.34,32.34,0,0,1,13.34,13.82l-12.56-6a65.82,65.82,0,0,0-14.1-2.22A60.7,60.7,0,0,0,240,176a36.85,36.85,0,0,0-9.28,3.27A33.61,33.61,0,0,0,220.4,187.71Z"/><path d="M359.94,178.94a35.71,35.71,0,0,1,28.92-30.56,35.79,35.79,0,0,1,17.5,1.44,36.63,36.63,0,0,1,15.91,10.78l-13.53-3.29a66.43,66.43,0,0,0-14.25.74A61,61,0,0,0,378.23,163a44.76,44.76,0,0,0-8.41,5.12A43.49,43.49,0,0,0,359.94,178.94Z"/><path class="cls-5" d="M512.73,154.9c-14,12.1-35.58,23-65.07,32.76-43.41,14.43-101.58,25.63-159.58,30.74-23.34,2.06-47,3.07-69.89,3.07-57.15,0-78.61-3-92.9-6.48-24.64-4.09-43.5-10.69-53.41-16.25-7-3.93-14.16-9-14.21-9.05h0A115.94,115.94,0,0,0,46,181.94a188.58,188.58,0,0,1,7.75-18.1c2.54-5.17,5.17-9.91,7.75-14.21a85.77,85.77,0,0,0,9.05,7.75c25,18.65,54,17.91,67.13,19,88.42,7,147.15,2.1,147.15,2.1,51.84-4.56,104.48-14.34,144.43-26.82,39.25-12.26,56.13-24,61.92-30.31"/><path class="cls-6" d="M384.36,344.65c2.77,25.18-19.71,48.32-50.22,51.67S276.66,382,273.89,356.79"/><path class="cls-7" d="M341.46,350.19c2,17.28-11.35,33.06-29.92,35.25s-35.26-10-37.3-27.31"/><rect class="cls-1" x="68" y="320.21" width="40.06" height="131.81"/><rect class="cls-1" x="109.36" y="417.14" width="40.06" height="131.81" transform="translate(-317.25 258.13) rotate(-48.28)"/><ellipse class="cls-6" cx="196.46" cy="542.72" rx="45.23" ry="41.84" transform="matrix(0.54, -0.84, 0.84, 0.54, -366.55, 415.6)"/><path class="cls-8" d="M263.14,501.14c-13.65,10.67-35.51,5.51-48.83-11.52"/><rect class="cls-8" x="80.93" y="368.03" width="14.22" height="85.29" rx="5.5"/><rect class="cls-8" x="111.55" y="427.47" width="14.22" height="90.46" rx="5.5" transform="translate(-313.13 246.66) rotate(-48.28)"/><path class="cls-8" d="M138,100.8c7.44-36.84,49-59.53,92.83-50.68"/><path class="cls-8" d="M52.74,333C38.64,323,37.38,300.55,49.94,283"/><rect class="cls-9" x="158.72" y="302.47" width="37.49" height="124.97" transform="translate(-159.14 138.28) rotate(-30.11)"/><rect class="cls-9" x="157.97" y="305.31" width="37.49" height="124.97" transform="translate(-52.8 705.18) rotate(-120.11)"/><ellipse class="cls-6" cx="531.17" cy="488.44" rx="45.23" ry="41.84" transform="matrix(0.54, -0.84, 0.84, 0.54, -166.57, 672.49)"/><circle class="cls-10" cx="262.94" cy="257.82" r="34.89"/><circle class="cls-11" cx="423.18" cy="235.85" r="34.89"/><circle cx="262.94" cy="257.82" r="7.75"/><circle cx="423.18" cy="235.85" r="6.46"/><path class="cls-1" d="M295.42,243c-1.46,2.76-15.77-8-36.08-4.7-21.12,3.44-31.63,19.3-33.9,17.2-2.82-2.62,8.55-31.77,31-35.17C278.1,217.08,297.25,239.58,295.42,243Z"/><path class="cls-1" d="M454.86,214.28c-.94,2.61-16.55-6.21-36.39-.64-20.6,5.79-29.6,22.57-31.75,20.88-2.61-2,6.16-30,27.61-35.82C434.94,193.13,456,211.11,454.86,214.28Z"/><path class="cls-12" d="M248.63,253l-37.54,50.89c1.71,1.63,3.49,3.16,5.34,4.61l41.93-56.85Z"/><path class="cls-12" d="M302.63,245.53,246,322.38a72.73,72.73,0,0,0,87.29-81.1Z"/><path class="cls-11" d="M189.22,261.29a72.32,72.32,0,0,0,21.87,42.64L248.63,253Z"/><path class="cls-11" d="M258.36,251.69l-41.93,56.85A72.55,72.55,0,0,0,246,322.38l56.68-76.85Z"/><path class="cls-13" d="M271.73,326.87a76.65,76.65,0,0,1-86.38-65.3l-.53-3.83L336.5,236.66l.53,3.83A76.65,76.65,0,0,1,271.73,326.87Zm-78.08-62.55A68.84,68.84,0,0,0,329.8,245.4Z"/><path class="cls-12" d="M409.87,230.36l-37.53,50.89q2.55,2.43,5.34,4.61L419.61,229Z"/><path class="cls-12" d="M463.87,222.85,407.2,299.7a72.75,72.75,0,0,0,87.28-81.1Z"/><path class="cls-11" d="M350.46,238.61a72.44,72.44,0,0,0,21.88,42.64l37.53-50.89Z"/><path class="cls-11" d="M419.61,229l-41.93,56.86A72.68,72.68,0,0,0,407.2,299.7l56.67-76.85Z"/><path class="cls-13" d="M433,304.19a76.65,76.65,0,0,1-86.38-65.3l-.53-3.83L497.75,214l.53,3.83A76.65,76.65,0,0,1,433,304.19ZM354.9,241.64A68.83,68.83,0,0,0,491,222.72Z"/></svg>
