<svg id="Layer_1" data-name="Layer 1" xmlns="http://www.w3.org/2000/svg" width="870" height="600" viewBox="0 0 870 600"><defs><style>.cls-1{fill:#ff2939;}.cls-2{fill:#f90013;stroke:#000;stroke-miterlimit:10;stroke-width:3px;}.cls-3{fill:#ff0;}</style></defs><title>ballin_tekst</title><path d="M863.25,313a29.09,29.09,0,0,0,.48-15.09c-.14-.65-.31-1.27-.49-1.89,0-.11-.07-.21-.1-.32s-.06-.22-.1-.33L863,295c0-.11-.07-.22-.1-.33s-.07-.21-.1-.32-.06-.22-.1-.33l-.09-.32c0-.11-.07-.21-.1-.32s-.07-.22-.1-.33-.07-.21-.1-.32a3,3,0,0,0-.1-.32l-.09-.33c0-.11-.07-.21-.1-.32s-.07-.22-.1-.33-.07-.21-.1-.32-.07-.22-.1-.33-.07-.21-.1-.32-.07-.21-.1-.32-.07-.22-.1-.32-.07-.22-.1-.33-.07-.22-.1-.32-.07-.22-.1-.33-.07-.21-.1-.32-.07-.22-.1-.32-.07-.22-.1-.33-.07-.21-.1-.32-.07-.22-.1-.33l-.11-.32c0-.11-.06-.21-.1-.32s-.07-.22-.1-.33-.07-.21-.1-.32-.07-.22-.1-.32l-.11-.33c0-.11-.07-.21-.1-.32s-.07-.22-.1-.33-.07-.21-.1-.32-.07-.22-.11-.32-.07-.22-.1-.33l-.11-.32c0-.11-.07-.21-.1-.32s-.07-.22-.1-.33l-.11-.32c0-.11-.07-.22-.1-.32s-.07-.22-.11-.33-.07-.21-.1-.32-.07-.22-.11-.33-.07-.21-.1-.32l-.11-.32c0-.11-.07-.22-.1-.33s-.07-.21-.11-.32-.07-.21-.1-.32-.07-.22-.11-.33-.07-.21-.11-.32-.07-.21-.1-.32-.07-.22-.11-.33-.07-.21-.11-.32-.07-.21-.1-.32-.07-.22-.11-.33-.07-.21-.11-.32-.07-.21-.1-.32-.08-.22-.11-.32-.07-.22-.11-.33l-.11-.32c0-.11-.07-.22-.11-.33s-.07-.21-.1-.32-.08-.21-.11-.32-.08-.22-.11-.33a3,3,0,0,1-.11-.32l-.11-.32c0-.11-.07-.22-.11-.32s-.07-.22-.11-.33l-.11-.32c0-.11-.07-.22-.11-.33s-.07-.21-.11-.32l-.11-.32-.11-.32c0-.11-.08-.22-.11-.33a3,3,0,0,1-.11-.32c0-.11-.08-.21-.11-.32l-.12-.33A37.91,37.91,0,0,0,842.82,253c-4.57-3.74-10.14-6.41-18-8.5a63.78,63.78,0,0,0-8.26-1.65l-.06-.12a2.88,2.88,0,0,1-.13-.31c0-.1-.09-.21-.13-.31s-.09-.21-.13-.31-.09-.21-.14-.31-.08-.21-.13-.31-.08-.21-.13-.31a2.88,2.88,0,0,0-.13-.31c0-.1-.09-.21-.13-.31s-.09-.21-.13-.31-.09-.21-.14-.31a2.88,2.88,0,0,0-.13-.31A2.88,2.88,0,0,0,815,239l-.13-.31c-1.89-4.38-5.69-8.84-10.87-12.47a58.26,58.26,0,0,0-19.71-9A52.36,52.36,0,0,0,765.57,216l-.35,0-.33.07a37.16,37.16,0,0,0-9.68,3.18,67.22,67.22,0,0,0-11.54,7.35c.45-7-.29-10.87-1.22-13.54a29.06,29.06,0,0,0-3.15-6.41l-.1-.18-.16-.28-.16-.29-.17-.28c0-.1-.11-.19-.16-.29s-.11-.18-.16-.28-.11-.19-.16-.28l-.16-.29-.17-.28-.16-.29-.16-.28c-.05-.1-.12-.19-.16-.28s-.12-.19-.17-.29l-.16-.28c-.05-.1-.12-.19-.17-.29s-.11-.18-.16-.28l-.16-.28c-.05-.1-.12-.19-.17-.29s-.11-.18-.16-.28-.12-.19-.17-.28l-.16-.29-.17-.28c0-.1-.11-.19-.16-.28s-.12-.19-.17-.29l-.16-.28c0-.1-.12-.19-.17-.28l-.16-.29-.17-.28c0-.1-.12-.19-.17-.28l-.16-.29c-.05-.09-.12-.18-.17-.28l-.17-.28-.16-.29c-.05-.09-.12-.18-.17-.28l-.17-.28c-.05-.1-.12-.19-.17-.28l-.16-.29c0-.09-.12-.18-.17-.28l-.17-.28c-.05-.1-.12-.19-.17-.28s-.11-.19-.17-.29-.11-.18-.16-.28l-.17-.28c0-.1-.12-.19-.17-.28s-.12-.19-.17-.29-.12-.18-.17-.28l-.17-.28c-.05-.1-.12-.19-.17-.28s-.12-.19-.17-.29-.12-.18-.17-.28-.12-.18-.17-.28l-.17-.28c0-.1-.12-.19-.17-.28s-.12-.19-.17-.29-.12-.18-.17-.28-.12-.18-.17-.28-.12-.19-.18-.28a2.61,2.61,0,0,0-.17-.28c-.05-.1-.12-.19-.17-.28s-.12-.19-.17-.29-.12-.18-.17-.28-.12-.18-.17-.28l-.18-.28-.17-.28c0-.1-.12-.19-.17-.28a2.68,2.68,0,0,0-.18-.28c-.05-.1-.12-.19-.17-.29s-.12-.18-.17-.28-.12-.18-.18-.28l-.1-.17c-3.92-7.31-11.56-14-21.77-18.71a86.65,86.65,0,0,0-19.21-5.89,118.43,118.43,0,0,0-19.17-2.34c-4.64-.34-17.18-.68-19.75,6.86-1.29,3.7.22,8.18,4.32,13.39a15.21,15.21,0,0,1,.85,1.28,35,35,0,0,1-3.84,3.61,174,174,0,0,0-18.62,19q-6.16,6.93-12.17,14l.28-.78c2.92-8.86,3.3-16.7.94-24a28,28,0,0,0-4.71-8.8c.88-.33,1.77-.68,2.68-1.08a49.8,49.8,0,0,0,16.81-12.56A52.73,52.73,0,0,0,645,152.76c2.28-6.84,2-12.67-1-17.81a22.74,22.74,0,0,0-1.81-2.58c-.07-.09-.15-.17-.22-.25l-.22-.26c-.07-.08-.15-.16-.22-.25s-.15-.16-.22-.25-.15-.16-.22-.25-.15-.16-.22-.25-.15-.16-.22-.25-.15-.17-.22-.25-.15-.17-.22-.25-.15-.17-.22-.25-.15-.17-.22-.25-.15-.17-.22-.25-.15-.17-.22-.25-.16-.17-.22-.25-.16-.17-.22-.25-.16-.17-.23-.25-.15-.17-.22-.25-.15-.17-.22-.25-.15-.17-.22-.25-.16-.17-.22-.25-.16-.17-.23-.25a2.62,2.62,0,0,0-.22-.25c-.07-.09-.15-.17-.22-.25s-.16-.17-.22-.25-.16-.17-.23-.25-.15-.17-.22-.25-.15-.17-.22-.25-.16-.17-.23-.25-.15-.16-.22-.25-.16-.16-.23-.25-.15-.16-.22-.25-.15-.16-.22-.25l-.23-.24c-.07-.09-.15-.17-.22-.25s-.16-.17-.23-.25-.15-.17-.22-.25-.16-.16-.23-.25-.15-.16-.22-.25-.16-.16-.23-.25l-.22-.24c-.07-.09-.16-.17-.23-.25s-.16-.17-.23-.25-.15-.16-.22-.25-.16-.16-.23-.25l-.22-.24c-.07-.09-.16-.17-.23-.25s-.16-.17-.23-.25l-.23-.25c-.06-.08-.15-.16-.22-.24s-.16-.17-.23-.25-.16-.17-.23-.25-.15-.16-.22-.25l-.23-.24c-.07-.09-.16-.17-.23-.25s-.16-.16-.23-.25-.16-.16-.23-.25l-.23-.24c-.07-.09-.15-.17-.22-.25a2.73,2.73,0,0,1-.23-.25l-.23-.24c-.07-.09-.16-.16-.23-.25s-.16-.16-.23-.25l-.23-.24c-.07-.09-.16-.16-.23-.25l-.23-.24c-.07-.09-.16-.17-.23-.25s-.16-.16-.23-.25l-.23-.24c-.07-.09-.16-.16-.23-.25l-.23-.24c-.07-.09-.16-.17-.23-.25l-.23-.24-.24-.25-.23-.25-.23-.24c-.07-.09-.16-.16-.23-.25l-.23-.24-.24-.25-.23-.24c-.07-.09-.16-.16-.23-.25-4.45-5.22-11.89-9.44-21.21-11.79a45.85,45.85,0,0,0-16.53-1.42,31.86,31.86,0,0,0-12,3.94c-5.64,3.05-10.69,7.92-15.4,14.85A50.11,50.11,0,0,0,551,135.45l-.15-.14h0l-.23-.21h0c-.08-.07-.14-.15-.23-.22h0l-.24-.21h0l-.23-.21h0c-.08-.07-.15-.15-.23-.21h0l-.23-.21h0l-.23-.22h0l-.23-.21h0c-.08-.06-.15-.14-.23-.21h0l-.23-.21h0l-.23-.21h0l-.24-.21h0c-.08-.07-.14-.14-.23-.21h0l-.24-.21h0c-.08-.07-.14-.14-.23-.21h0l-.24-.21h0l-.23-.21h0l-.23-.21h0l-.23-.21h0l-.23-.21h0c-.08-.06-.15-.14-.23-.21h0l-.23-.21h0a2.41,2.41,0,0,0-.24-.21h0l-.24-.21h0c-.08-.07-.15-.15-.23-.21h0l-.23-.21h0l-.23-.21h0c-.08-.06-.15-.14-.24-.2h0l-.24-.21h0l-.23-.21h0c-.08-.06-.15-.14-.24-.2h0l-.24-.21h0l-.23-.21h0l-.23-.2h0l-.24-.21h0l-.23-.21h0c-.08-.06-.15-.14-.24-.2h0l-.24-.21h0l-.23-.21h0c-.09-.07-.15-.15-.24-.21h0l-.23-.2h0l-.24-.21h0l-.23-.21h0l-.24-.21h0l-.23-.2h0l-.24-.21h0l-.23-.21h0l-.24-.21h0l-.24-.2h0c-.09-.06-.16-.14-.24-.2h0a2.31,2.31,0,0,0-.24-.2h0l-.23-.21h0L538,124h0l-.24-.21h0l-.24-.21h0c-.09-.06-.15-.13-.24-.2-4.92-3.79-12.2-6.35-22.19-7.56a100,100,0,0,0-21.39-.47c-7.41.68-13.59,2.26-18.35,4.59a29.36,29.36,0,0,0-11.43,9.78,46.84,46.84,0,0,0-2.61,4.06,18.59,18.59,0,0,0-4.81-4.1h0l-.26-.17h0c-.09-.05-.16-.12-.26-.17h0l-.26-.17h0l-.26-.18h0l-.26-.17h0l-.26-.17h0c-.09,0-.16-.11-.25-.17h0l-.26-.17h0c-.09-.05-.16-.12-.26-.17h0l-.26-.17h0l-.26-.17h0c-.09,0-.16-.12-.26-.17h0l-.26-.18h0l-.26-.17h0c-.09,0-.16-.12-.26-.17h0l-.26-.18h0l-.26-.17h0l-.26-.17h0a2.33,2.33,0,0,0-.26-.17h0a2.33,2.33,0,0,1-.26-.17h0l-.26-.17h0l-.26-.17h0l-.26-.17h0l-.26-.17h0a2.33,2.33,0,0,0-.26-.17h0c-.1,0-.17-.12-.27-.17h0l-.26-.17h0l-.26-.17h0l-.26-.17h0l-.26-.17h0l-.26-.17h0L448,124h0l-.26-.17h0l-.26-.17h0l-.26-.17h0l-.26-.17h0l-.26-.17h0l-.26-.17h0l-.26-.17h0l-.26-.17h0l-.27-.17h0c-.1-.06-.17-.12-.27-.17h0l-.27-.16h0l-.26-.17h0l-.26-.17h0l-.26-.17h0l-.26-.16h0l-.27-.17h0l-.26-.17h0l-.26-.17h0l-.26-.16h0l-.27-.16h0a2.46,2.46,0,0,1-.27-.17h0l-.26-.17h0a2.46,2.46,0,0,0-.27-.17h0c-.1-.06-.17-.12-.27-.17h0l-.26-.17h0l-.27-.16h0l-.27-.16h0l-.26-.17h0l-.27-.17h0l-.26-.17h0l-.27-.17h0a2.46,2.46,0,0,1-.27-.17h0c-.09,0-.17-.12-.27-.17h0c-.1,0-.17-.12-.27-.17h0l-.26-.17h0c-.1,0-.18-.12-.27-.17h0c-.09,0-.17-.12-.27-.17h0c-.1-.05-.18-.12-.27-.17h0l-.27-.17h0a2.46,2.46,0,0,1-.27-.17h0l-.27-.17h0l-.26-.16h0l-.27-.16h0l-.27-.16h0l-.27-.16h0l-.27-.16h0a2.46,2.46,0,0,0-.27-.17h0l-.27-.17h0c-.1-.05-.17-.11-.27-.17-5.44-2.94-13-4.29-23.05-3.87a99,99,0,0,0-21.14,3c-7.19,1.86-13,4.42-17.34,7.49a29.37,29.37,0,0,0-9.7,11.49c-5,10.1-10.69,33.91-14.67,72.67-.16,1.61-.3,3.2-.44,4.76-1.3-3.19-3-7.69-5-13.38-4.8-13.79-9.3-24-13.66-31.32-4.78-8-10.25-13.82-16.76-17.79a34.27,34.27,0,0,0-5.82-2.79l-.3-.11-.3-.1-.3-.11-.3-.11-.3-.11-.3-.11-.3-.1-.3-.11-.31-.11-.29-.11-.31-.1-.3-.11-.3-.11-.3-.1-.3-.11-.3-.11-.31-.1-.3-.11-.3-.1-.3-.11-.3-.11-.31-.1-.3-.11-.3-.1-.31-.11-.3-.1-.3-.11-.3-.1-.31-.11-.3-.1-.3-.1-.31-.11-.3-.1-.31-.11-.3-.1-.3-.1-.31-.11-.3-.1-.31-.1-.3-.1-.31-.11-.3-.1-.31-.1-.3-.1-.31-.11-.3-.1-.31-.1-.31-.1-.3-.1-.31-.1-.3-.1-.31-.11-.31-.1-.3-.1-.31-.1L290,140l-.3-.1-.31-.1-.31-.1-.3-.1-.31-.1-.31-.1-.31-.09-.3-.1-.31-.1-.31-.1-.31-.1-.3-.1-.31-.1-.31-.1-.31-.09-.31-.1-.31-.1-.31-.1-.3-.09-.32-.1-.3-.1-.31-.09-.31-.1-.31-.1c-8.86-2.9-19.69-2.69-31.38.9-11.41,3.51-21,8.18-28.61,13.74a35.07,35.07,0,0,0-7.89,8.28c-1.49,2.15-3,4.32-4.42,6.48q7,5,13.86,10.2c-2,9.6-3.32,17.4-4.31,23.42-1.12,6.86-2,13-2.75,18.33s-1.25,9.89-1.59,13.45q-.85,8.86-1.47,17.71a41.8,41.8,0,0,0-8.26,5.92,31.16,31.16,0,0,0-7.86,13.29h0l-.29-.05-.29,0-.29-.05-.29,0-.29,0-.29-.05-.29,0-.29,0-.29-.05-.28,0-.3,0-.29-.05-.29,0-.28,0-.3,0-.29-.05-.29,0-.29,0-.29,0-.29,0-.29,0-.29,0-.14,0c.55-1,1.09-2.08,1.63-3.17,4-8.35,6.38-16.31,6.8-23.75a45,45,0,0,0-4.47-22,29.58,29.58,0,0,0-12.47-13.37,40.34,40.34,0,0,0-15.39-4.66l-.32,0-.32,0-.32,0-.32,0a3.16,3.16,0,0,0-.32,0l-.32,0-.32,0c-.1,0-.21,0-.31,0l-.33,0c-.1,0-.21,0-.31,0l-.32,0-.32,0-.32,0-.32,0-.32,0-.32,0-.32,0-.32,0-.32,0-.32,0-.32,0-.32,0-.33,0-.32,0-.32,0-.32,0-.32,0-.32,0-.32,0-.32,0-.32,0-.32,0-.32,0-.33,0-.32,0-.32,0-.32,0-.32,0-.33,0-.32,0-.32,0-.32,0-.33,0-.32,0-.32,0-.32,0-.32,0-.33,0-.32,0-.33,0-.32,0-.32,0-.32,0-.33,0-.32,0-.33,0-.32,0-.32,0-.33,0-.32,0-.32,0-.33,0-.32,0-.33,0-.32,0-.33,0-.32,0-.32,0-.33,0-.32,0-.33,0h-.32l-.33,0-.32,0-.33,0H143l-.32,0-.33,0H142l-.33,0a55.22,55.22,0,0,0-6.19-.06,84.39,84.39,0,0,0-26.92,6.17,144.23,144.23,0,0,0-28.31,15.29,176.18,176.18,0,0,0-38.12,34.68c-10.56,13.17-16.62,25.46-18.4,35.9l-.05.31a45.89,45.89,0,0,0,1.11,16.68c1.53,6.7,3.52,11,6.14,13.69s6.49,3.51,10.69,2.75l.32-.07.31-.06.31-.06.32-.06.31-.06.31-.06.31-.06.31-.06.32-.06.31-.06.31-.06.31-.06c.11,0,.21,0,.32-.06l.31-.05.31-.06.31-.06.31-.06c.11,0,.21,0,.32-.06l.31,0,.31-.06.31-.06.31-.06.31-.05.32-.06.31-.05.2,0c.56,1.53,1.13,3,1.74,4.54q8.75,20,18.32,39.4c4.39,8.68,9,16.91,13.78,24.5,6.63,10.59,9.22,13.53,10.67,15a22.39,22.39,0,0,0,15.53,6.67,25.58,25.58,0,0,0,3.5-.19,2.48,2.48,0,0,1,.27,0l.28,0,.27,0,.27,0,.28,0,.27,0,.28,0,.27,0,.27,0,.27,0,.28,0,.27,0,.14,0a20.37,20.37,0,0,0,4,5.76c2.55,2.61,7.35,5.43,15.53,4.75H137l.23,0h1.89l.24,0h18.11a46.44,46.44,0,0,0,16.12-3.7,67.81,67.81,0,0,0,15.24-8.6c6-4.47,11.4-11,17-20a213,213,0,0,0,14.06-27.28,208.27,208.27,0,0,0,8.6-23.41l.15,0,.26.06.26.06.26.06.26.06.26.06.25.05.26.06.26.06.26.06.26.06.25.06.26.06.26.06.26.06.25.06.26.06.26.06.25.06.26.06.26.06.26.06.25.06.26.06.25.07.26.06.26.06.25.06.26.06a2.27,2.27,0,0,0,.25.06l.26.07.26.06.25.06.25.06.26.07.26.06.25.06.25.07.26.06.25.06.26.07.25.06.26.07.25.06.26.06a15.72,15.72,0,0,0,2.62.51c4.07.44,8.58-.55,13.91-2.94,7.09-3.17,12.76-7,17-11.56a40.06,40.06,0,0,0,9.12-17.82,128.45,128.45,0,0,0,2.85-19.38c8.77-2.66,10.76-3.07,11.13-3.17l.18,0c1.84-.4,3.86-.92,6.12-1.56.75.87,1.49,1.72,2.2,2.5l.17.18.17.17a37,37,0,0,0,11.39,7.93l.24.11.25.11a1.75,1.75,0,0,0,.24.11l.24.12.24.11.24.11.24.11.24.11.24.12.24.11.24.11.24.11.24.11.24.12.24.11.24.11.24.12c.08,0,.15.08.24.11l.23.11.24.12.24.11.24.11.24.12c.08,0,.15.08.24.11l.23.12.24.11.24.11.24.12.23.11.24.12.24.11.24.12.23.11.24.12.24.11.23.12.24.11.24.12.23.12.24.11.24.12.23.11.24.12.23.12.24.11.24.12.23.12.23.11.24.12.24.12.23.11a2.53,2.53,0,0,0,.23.12l.24.12.23.12.24.11a2.53,2.53,0,0,0,.23.12l.24.12.23.12.23.12.24.12.23.11.23.12.24.12.23.12.23.12.24.12.23.12a2.53,2.53,0,0,1,.23.12,1.67,1.67,0,0,1,.23.12l.24.11a1.67,1.67,0,0,0,.23.12,2.53,2.53,0,0,0,.23.12,2.53,2.53,0,0,0,.23.12c.08,0,.16.09.24.12a2666182825050.56,2666182825050.56,0,0,0,.46.24l.23.13a2666182825051.48,2666182825051.48,0,0,0,.46.24,2.53,2.53,0,0,1,.23.12c.61.3,1.22.58,1.84.84a29.09,29.09,0,0,0,16.82,1.36A35.11,35.11,0,0,0,369,301.65c1.28-1,2.63-2.13,4-3.4h0l.22.14.22.14.22.14.22.14a3978937483148.43,3978937483148.43,0,0,1,.44.28,2652624988907,2652624988907,0,0,0,.44.28l.21.15a3978937483177.6,3978937483177.6,0,0,0,.44.28l.22.14.22.14c.07,0,.14.1.22.14l.21.14.22.14a20.86,20.86,0,0,0,3.66,1.75l.61.22.64.15c3.45.84,4.8,1.19,6.51,1.13,4.9.09,11.28-.25,19.5-.83,9.47-.65,16.45-1.41,21.38-2.64,6.35-1.59,11.4-4.36,15.05-8.37l.42-.48.13.11.19.17.2.18.2.17.19.17.2.18.19.17.2.17.19.17.2.18.19.17.2.17c.06.07.13.12.19.18l.2.17.19.18.19.17.2.17.19.18.19.17.2.18.19.17.2.17a1.62,1.62,0,0,0,.19.18l.19.17a20.83,20.83,0,0,0,4.29,3.17l.56.31.6.26c3.27,1.38,4.55,2,6.25,2.17,4.83.88,11.18,1.57,19.41,2.33,9.47.89,16.5,1.27,21.59.85,6.54-.54,12-2.45,16.27-5.82,1.5-1.14,3-2.39,4.44-3.72l.08.09.16.2.17.21.17.2.16.21c.06.07.12.13.17.2l.17.2.16.21.17.2.16.21.17.2.16.21.17.2.16.2.17.21.16.2.17.21.16.2.17.21.16.2.16.21.17.2.16.21.16.2.17.21.16.2.16.21.16.2.17.21.16.2.16.21.16.2.17.21a1.56,1.56,0,0,0,.16.2l.16.21.16.21.16.2.16.21.16.2.16.21.16.2.16.21.16.21.16.2.16.21.16.21.16.2.16.21.16.21a24.83,24.83,0,0,0,12.27,9l.49.16.71.17a24.37,24.37,0,0,0,14.74-.86l.26-.1.26-.12A30,30,0,0,0,569.3,305a1.47,1.47,0,0,1,.1.13l.14.22.15.22.14.22.15.22.15.22a1.64,1.64,0,0,0,.14.22l.15.22a1.64,1.64,0,0,0,.14.22l.15.23.14.22.15.22.14.22.15.22.14.22.14.22.15.22a1.64,1.64,0,0,0,.14.22l.15.22c0,.08.09.15.14.23l.14.22a1.64,1.64,0,0,1,.14.22l.15.22a1.64,1.64,0,0,0,.14.22l.14.22.15.23.14.22.14.22.14.22.14.22.15.22a1.64,1.64,0,0,0,.14.22c0,.08.09.15.14.23l.14.22.14.22a1.64,1.64,0,0,0,.14.22l.14.23.14.22.14.22.14.22.14.22.14.23.14.22.14.22.14.22a1.64,1.64,0,0,0,.14.22c0,.08.09.15.14.23l.14.22c0,.08.09.15.13.22s.1.15.14.23a1.64,1.64,0,0,1,.14.22l.14.22a1.64,1.64,0,0,0,.14.22c0,.08.09.15.14.23a17.7,17.7,0,0,0,9.74,7.53,40.83,40.83,0,0,0,18,1.9,56.87,56.87,0,0,0,17-4.62l.25-.11.24-.12a54,54,0,0,0,9.52-6,83.37,83.37,0,0,0,8.65-7.72c2.78-2.79,6.45-6.76,11.22-12,0,4.34.05,8.68.14,13,.11,8.63.72,17.65,4.08,24.76l.07.16c0,.08.07.17.11.25a2.6,2.6,0,0,1,.1.25c0,.08.07.17.11.25l.11.24a1.86,1.86,0,0,0,.1.25c0,.09.07.17.11.25l.1.25c0,.08.07.17.11.25a1.86,1.86,0,0,1,.1.25c0,.08.07.16.11.25a2.44,2.44,0,0,1,.1.24c0,.08.07.17.11.25l.1.25c0,.08.07.17.11.25l.1.25a2.44,2.44,0,0,1,.1.24c0,.09.07.17.11.25l.1.25c0,.08.07.17.11.25a2.6,2.6,0,0,0,.1.25l.1.25a1.86,1.86,0,0,1,.1.25l.11.24a1.86,1.86,0,0,0,.1.25,686841953460.36,686841953460.36,0,0,0,.2.5c0,.08.07.17.11.25a2.6,2.6,0,0,0,.1.25,2.44,2.44,0,0,0,.1.24l.1.25c0,.09.07.17.1.25a2.6,2.6,0,0,1,.1.25c0,.08.07.17.11.25a2.6,2.6,0,0,0,.1.25,2.6,2.6,0,0,0,.1.25l.1.25a2.44,2.44,0,0,0,.1.24,1.86,1.86,0,0,0,.1.25,2.6,2.6,0,0,0,.1.25,686841953460.23,686841953460.23,0,0,1,.2.5,2.6,2.6,0,0,0,.1.25,2.6,2.6,0,0,0,.1.25c0,.08.06.16.1.25a2.44,2.44,0,0,0,.1.24l.09.25a2.6,2.6,0,0,1,.1.25,2.6,2.6,0,0,1,.1.25,2.6,2.6,0,0,0,.1.25,686841953460.22,686841953460.22,0,0,1,.2.5l.09.25a2.44,2.44,0,0,1,.1.24,686841953460.63,686841953460.63,0,0,1,.2.5l.09.25a2.6,2.6,0,0,1,.1.25,2.6,2.6,0,0,0,.1.25l.09.25a2.6,2.6,0,0,1,.1.25,2.6,2.6,0,0,0,.1.25l.09.25c0,.08.06.16.1.25l.09.24c0,.09.07.17.1.25a1.86,1.86,0,0,0,.1.25l.09.25a2.6,2.6,0,0,0,.1.25l.09.25a2.6,2.6,0,0,0,.1.25l.09.25c0,.08.06.16.1.25l.09.25.09.24c0,.09.06.17.1.25l.09.25c0,.08.05.15.08.22a21.65,21.65,0,0,0,9.08,11.32c3.44,2.09,9.09,4.1,17,1.86a36.43,36.43,0,0,0,6.92-2.75c8.32-4.3,22.89-14.75,45.79-30.7,1.1-.71,2.38-1.59,3.91-2.69q1.92-1.22,3.84-2.4c12.36-8.2,23.22-15,32.07-20.54l7.91-4.92.06.18c0,.1.06.2.1.3s.06.2.1.3.06.19.1.29.12.4.2.59.06.2.1.3.06.2.1.3.12.39.2.59.06.2.1.3.12.39.19.59.06.2.1.3.06.19.1.29.12.4.2.6l.09.29c.07.2.12.4.2.59s.06.2.1.3l.09.3c.07.2.12.39.2.59s0,.2.09.3.12.39.19.59.06.2.1.3.06.2.1.29.11.4.19.6a2.46,2.46,0,0,0,.09.29c.07.2.12.4.19.6s.06.2.1.29.05.2.09.3.12.4.19.59l.09.3c.07.2.12.4.19.59l.09.3c0,.1.06.2.1.3s.11.39.18.59a25.08,25.08,0,0,0,7.39,10.52l.87.75.72.53c7.51,5.53,15.79,6.27,23.14,6.39,13.75.09,24.07-2.73,30.34-9.25A27.32,27.32,0,0,0,863.25,313Z"/><path class="cls-1" d="M155.52,279.28c4.49-4.67,8.49-11,12.18-18.94,3.3-7.22,5.11-13.89,5.27-20.06a36.83,36.83,0,0,0-4.53-18.41,22.58,22.58,0,0,0-10.07-9.9,33.07,33.07,0,0,0-16-3.05,66,66,0,0,0-20.81,4.54A121.52,121.52,0,0,0,97.6,225.88a155,155,0,0,0-33.77,29.43C55.08,265.75,50,275.17,48.45,283.16a38.21,38.21,0,0,0,.6,13.42c1,5.34,2.42,8.92,4.09,10.78s3.66,1.46,6.28-.81c1.86-1.6,4.29-5.1,7.42-10.46a15.58,15.58,0,0,1,1.46-2.82,127.78,127.78,0,0,0,6,23Q82.27,336.36,91,356c4,8.73,8.22,16.91,12.58,24.59s7.42,12.32,9,14c2.86,3,6,4.63,9.35,4.83a12.44,12.44,0,0,0,9.24-3.4,14.38,14.38,0,0,0,3.32-4.41l.61.08a35.15,35.15,0,0,0,.11,10,12.9,12.9,0,0,0,3.1,6.08c1.72,1.91,4.38,2.76,8,2.6a34.71,34.71,0,0,0,12-3.12,57.36,57.36,0,0,0,12.53-7.44c4.69-3.63,9.23-9.36,13.94-17.2a200.21,200.21,0,0,0,13-26.14,179.7,179.7,0,0,0,9.3-28.27,59.25,59.25,0,0,0,.53-25.72,41.73,41.73,0,0,0-3.84-11.08c-8.48-16.4-25.57-20.54-50.68-9.21l-.3-.48A22.94,22.94,0,0,0,155.52,279.28Zm19.89,54a58.34,58.34,0,0,1,.37,18.5,26.83,26.83,0,0,1-3.49,10.16,27.5,27.5,0,0,1-7.37,7.69,48.62,48.62,0,0,1-9,5.17c-3.26,1.45-9,3.55-17.16,6.66a59,59,0,0,0-.62-12.54,142.93,142.93,0,0,0-4.88-20.46c-2.36-7.66-5.78-17.34-10.13-29.12-.39-1-.82-2.12-1.3-3.27s-.89-2.22-1.23-3.2a17.89,17.89,0,0,0,7,.28,50.29,50.29,0,0,0,8.66-3.21,43.63,43.63,0,0,1,10.58-3.75,21.82,21.82,0,0,1,8.58.22,21.5,21.5,0,0,1,13.86,9.92A45.93,45.93,0,0,1,175.41,333.24Zm-41.64-64.45a69.34,69.34,0,0,1-5.28,21.28c-2.42,6.15-5.23,10.41-8.58,12.83a18.83,18.83,0,0,1-2.41,1.46q-8.77-24.42-16.41-49.43c.81-1.66,2.64-3.47,5.47-5.37,10.26-6.85,18.29-5.64,23.85,3.12C133.11,256.89,134.17,262.28,133.77,268.79Z"/><path class="cls-1" d="M345.09,245.16c-1.74-2.88-3.15-5.1-4.19-6.68-3.3-5.54-5.69-9.57-7.09-12.11s-4.37-8.42-9.11-17.58c-1.59-3.3-3.72-8.28-6.43-14.9-5.22-13.07-10.1-22.94-14.52-29.62S294.4,152.74,289,149.78c-6.16-3.38-13.93-3.85-23.07-1.23s-16.42,6-22.08,9.91a20,20,0,0,0-4.32,4.45q5.81,4.64,11.47,9.37c-2.8,11.37-4.73,20.44-6.08,27.23s-2.45,12.84-3.36,18.16-1.57,9.7-2,13.17-1.51,11.49-2.71,24c-5.87,2.49-9.79,4.72-11.77,6.54s-3.67,4.81-5,8.92c-2.8,8.55-3.29,14.32-1.83,17.32,1.81,3.68,6.38,4.56,13.71,2.89-.26,2.61-.79,6.28-1.53,11-2,13.41-2,21.19-.94,23.43a4.83,4.83,0,0,0,4,3c1.75.16,4.21-.54,7.39-2,5.54-2.61,9.8-5.52,12.79-8.88A28.56,28.56,0,0,0,260,303.79c1.21-5.48,1.93-13,2.31-22.69,0-.8.06-1.61.1-2.42,12.55-4.37,19.7-6.35,21.27-6.73,1.83-.44,4-1.05,6.44-1.81,4.32-1.34,9.79-4.93,16.73-10.66.88,1.34,1.67,2.58,2.39,3.72s1.3,2.09,1.79,2.82a159.37,159.37,0,0,0,12.79,18.45,24.74,24.74,0,0,0,8.8,6.43,17.17,17.17,0,0,0,9.89.5,23.41,23.41,0,0,0,9.47-4.9,107.2,107.2,0,0,0,12-11.87c-5.94-8.9-10.71-16-14-21.41Zm-80.54.82q2.15-24.12,5.91-48.39l.46-.13Q282.35,217.07,293,237,278.68,241.08,264.55,246Z"/><path class="cls-1" d="M419.4,193.05q1.69-4.61,3.46-9.21c5-13.18,9.16-24,12-32.55s4.31-14.36,4.28-17.47-1.23-5.56-3.6-6.87-6.5-2-12.33-1.81a77.57,77.57,0,0,0-16.51,2,35.05,35.05,0,0,0-11.42,4.51,19.14,19.14,0,0,0-6.42,7.38c-4.95,9.08-11.4,32.43-16.74,70.06-2.31,16.86-3.54,30.93-4.07,42.18s-.37,18.94.26,23.06c.88,5.7,3.29,9.16,7.17,10.47,2.15.47,3.25.72,3.32.71,4.54,0,10.9-.43,19.13-1.16,8.81-.76,15.27-1.55,19.4-2.65s7.22-2.82,9.3-5.22a63,63,0,0,0,8.28-11.79c2.51-4.53,3.81-8,3.79-10.54,0-2.12-1.21-3.19-3.61-3.17-1.3,0-5,.71-11.12,2.25-9.46,2.41-16.89,4.21-22.44,5.16,2.58-14.18,4.82-24.12,6.38-29.84Q412.74,210.83,419.4,193.05Z"/><path class="cls-1" d="M509.7,197.29q2.43-4.28,4.92-8.53c7.13-12.19,13-22.21,17.15-30.19s6.6-13.46,7.07-16.54-.31-5.68-2.45-7.36-6.11-3-11.91-3.79a79,79,0,0,0-16.65-.71,35.35,35.35,0,0,0-12,2.6,19.26,19.26,0,0,0-7.55,6.25c-6.37,8.15-16.53,30.16-27.92,66.43-5,16.26-8.52,29.94-10.87,41S446,265,446,269.21c-.06,5.77,1.75,9.57,5.38,11.49,2,.81,3.08,1.23,3.15,1.24,4.48.76,10.84,1.33,19.09,1.95,8.83.67,15.35.94,19.62.52s7.61-1.61,10.05-3.65a63,63,0,0,0,10.12-10.29c3.22-4.06,5.08-7.31,5.47-9.78.34-2.09-.68-3.34-3.06-3.72-1.29-.19-5.1-.11-11.38.42-9.76.84-17.4,1.42-23.05,1.46,4.86-13.58,8.7-23,11.17-28.41Q500.21,213.75,509.7,197.29Z"/><path class="cls-1" d="M587.1,170.91c-5.27-1.35-9.81-.62-13.53,2.14-9.29,6.47-18.61,18.42-27.61,35.79s-14.41,33.55-17,48.26a60.26,60.26,0,0,0-1.06,16.45,35.67,35.67,0,0,0,3.89,12.73c2.16,4,4.86,6.41,8.18,7.43l.23.05a12,12,0,0,0,7.36-.53c3.4-1.61,6.89-5.41,10.54-11.4,9.18-14.85,17.55-29.19,24.75-43.21s12.55-26.47,15.68-37.54c2.12-7.49,2.2-14,.12-19.61A16.06,16.06,0,0,0,587.1,170.91Z"/><path class="cls-1" d="M610.86,117.05a22.14,22.14,0,0,0-7.74-.93,17.82,17.82,0,0,0-6.59,2.1c-4.39,2.17-8.74,6.14-13,11.89s-6.82,11.09-7.88,16c-2.08,9.75,1.42,15.74,10.43,18.28l.44.11c4.16,1,8.64.39,13.55-2a39.65,39.65,0,0,0,13.33-10.76,45.21,45.21,0,0,0,8.69-16.49c1.42-5,1.23-8.87-.61-11.73S616.1,118.48,610.86,117.05Z"/><path class="cls-1" d="M805.54,244.25a35.63,35.63,0,0,0-11.78-5.62,37.89,37.89,0,0,0-13.4-1.19,29.09,29.09,0,0,0-7.55,2.21c-7.86,3.36-19.58,12.14-34.7,26.67-9.8,9.08-17.73,16.46-23.93,22a70.48,70.48,0,0,1-.11-8.27,156.94,156.94,0,0,1,2-17.92c1.23-8.13,2.68-16.41,4.4-24.82,4.29-20.69,4.95-33.94,2.79-39.41-1.83-4.78-6.11-8.88-12.8-12.12a65.94,65.94,0,0,0-14-4.48,99.32,99.32,0,0,0-16.26-2.38c-5.64-.49-8.72,0-9.27,1.43-.45,1.13.28,2.94,2.15,5.45,2.75,3.94,3.66,7,2.82,9-.65,1.55-2.85,3.73-6.56,6.61a171.05,171.05,0,0,0-18.72,17.76q-10.27,10.64-20.1,21.59-7.41,8.69-14.55,17.53-3.79,4.2-6.1,7.24c-8.18,9.33-14.84,16.65-20.21,21.83-4.66,4.54-7.28,8-8,10.21-.93,3,.2,4.95,3.36,6a28.26,28.26,0,0,0,12.43,1,44.2,44.2,0,0,0,13.47-4,42.84,42.84,0,0,0,7.77-5.15,71.7,71.7,0,0,0,7.53-7.2c2.79-3,6.68-7.57,11.78-13.65.52-.52,1.17-1.18,1.93-2s1.44-1.51,2-2.17c.68-.86,1.45-1.75,2.31-2.66a19.21,19.21,0,0,0,1.94-2.32q14.6-17.33,30.11-34.06l.44.2a114.21,114.21,0,0,0-2,12.76,652.56,652.56,0,0,0-5.34,74.25c-.39,13.91,1.32,22,5.79,24.64,1.73,1,4.08,1.05,7.08.11a25.09,25.09,0,0,0,5-2.16C695,336.94,709,326,730.73,309.63q1.5-1,3.76-2.82l3.75-2.54c12.06-8.69,22.53-15.86,31.19-21.75s15.76-10.66,21.14-14.47a153.14,153.14,0,0,0,12.61-9.7,16.48,16.48,0,0,0,3.3-3.64c1.74-2.39,2.55-4.35,2.42-5.86S807.65,245.79,805.54,244.25Z"/><path class="cls-1" d="M848.09,289.43a19.9,19.9,0,0,0,0-10.22,15.47,15.47,0,0,0-4.9-8c-1.61-1.36-4.67-2.76-9.15-4.1a40,40,0,0,0-11.75-1.9c-2.92.09-5,.94-6.17,2.5a6.38,6.38,0,0,0-1.38,3.77,24.5,24.5,0,0,0,1.25,6.6,23,23,0,0,1,1.34,7.76,9.61,9.61,0,0,1-2.24,5.6,13.45,13.45,0,0,1-6.79,4.13,6.77,6.77,0,0,0-3.53,2,4,4,0,0,0-.66,3.28,5.1,5.1,0,0,0,1.79,3.25l.19.16c2.36,1.66,6.68,2.36,13,2.26,11.48-.29,19.67-2.8,24.33-8.11A21.29,21.29,0,0,0,848.09,289.43Z"/><path class="cls-2" d="M144.89,281c4.45-4.79,8.38-11.19,12-19.26,3.22-7.32,5-14,5-20.22a36.6,36.6,0,0,0-4.83-18.35,22.4,22.4,0,0,0-10.28-9.69,33.23,33.23,0,0,0-16.19-2.71,67.22,67.22,0,0,0-20.89,5,124.86,124.86,0,0,0-23.89,13,157.61,157.61,0,0,0-33.56,30.3c-8.66,10.68-13.6,20.26-15.09,28.32A38.54,38.54,0,0,0,38,300.88c1.11,5.34,2.56,8.9,4.26,10.73s3.71,1.39,6.31-1c1.85-1.66,4.25-5.23,7.33-10.68a16.27,16.27,0,0,1,1.42-2.87A128.15,128.15,0,0,0,63.68,320q8.24,20,17.3,39.55c4.14,8.68,8.49,16.8,13,24.41s7.63,12.2,9.27,13.88c2.91,3,6.08,4.5,9.48,4.62a12.67,12.67,0,0,0,9.25-3.65,14.73,14.73,0,0,0,3.29-4.51l.62.06a34.53,34.53,0,0,0,.24,10.06,12.71,12.71,0,0,0,3.19,6c1.75,1.88,4.45,2.66,8,2.41a35.19,35.19,0,0,0,12.05-3.44,58.82,58.82,0,0,0,12.53-7.78c4.68-3.77,9.18-9.64,13.84-17.62a201.76,201.76,0,0,0,12.76-26.55,179.8,179.8,0,0,0,9-28.55,59.34,59.34,0,0,0,.18-25.8,41.87,41.87,0,0,0-4-11c-8.78-16.24-26.06-20-51.18-8.08-.11-.16-.21-.32-.31-.48A25.35,25.35,0,0,0,144.89,281Zm20.76,53.64a58.42,58.42,0,0,1,.63,18.56,27.1,27.1,0,0,1-3.38,10.27,28,28,0,0,1-7.34,7.91,49,49,0,0,1-9,5.4c-3.27,1.54-9,3.79-17.2,7.11a58.23,58.23,0,0,0-.79-12.57,140.73,140.73,0,0,0-5.18-20.43c-2.47-7.64-6-17.27-10.58-29-.41-1-.86-2.11-1.36-3.26s-.92-2.2-1.28-3.17a18.22,18.22,0,0,0,7,.11,50.81,50.81,0,0,0,8.68-3.43,44.25,44.25,0,0,1,10.6-4,22,22,0,0,1,8.64,0,21.33,21.33,0,0,1,14.1,9.62A45.23,45.23,0,0,1,165.65,334.66ZM122.84,271c-.31,6.54-2,13.67-5,21.46-2.36,6.22-5.13,10.56-8.47,13.07a18.19,18.19,0,0,1-2.41,1.53q-9.16-24.3-17.19-49.21c.79-1.69,2.6-3.54,5.43-5.51,10.22-7.1,18.33-6.07,24,2.58C122,259.08,123.15,264.46,122.84,271Z"/><path class="cls-2" d="M335.41,242.83c-1.8-2.84-3.25-5-4.33-6.6-3.41-5.48-5.89-9.46-7.34-12s-4.54-8.34-9.47-17.4q-2.47-4.92-6.72-14.79c-5.46-13-10.54-22.74-15.11-29.34s-9.59-11.35-15-14.21c-6.27-3.26-14.1-3.57-23.25-.77s-16.45,6.31-22.08,10.37a19.86,19.86,0,0,0-4.28,4.54q5.92,4.51,11.69,9.14c-2.64,11.43-4.44,20.55-5.7,27.37s-2.27,12.9-3.1,18.24-1.43,9.75-1.84,13.23-1.35,11.54-2.36,24.11c-5.89,2.62-9.8,4.94-11.78,6.81s-3.62,4.89-4.89,9c-2.7,8.62-3.11,14.42-1.59,17.39,1.87,3.65,6.49,4.42,13.86,2.59-.23,2.62-.71,6.3-1.39,11-1.82,13.48-1.76,21.28-.62,23.5a4.85,4.85,0,0,0,4.09,2.88c1.78.11,4.24-.64,7.43-2.21,5.56-2.73,9.8-5.75,12.78-9.17a29,29,0,0,0,6.15-13.37c1.14-5.51,1.75-13.09,2-22.77l.06-2.42c12.59-4.64,19.77-6.78,21.35-7.19q2.76-.71,6.46-1.94c4.34-1.43,9.81-5.14,16.71-11q1.36,2,2.46,3.67c.74,1.13,1.35,2.06,1.85,2.78a158.93,158.93,0,0,0,13.19,18.2,24.88,24.88,0,0,0,9,6.26,17.33,17.33,0,0,0,10,.3,23.66,23.66,0,0,0,9.48-5.08A107.37,107.37,0,0,0,355,271.94c-6.13-8.78-11.06-15.78-14.5-21.14C338.9,248.33,337.22,245.67,335.41,242.83Zm-81.16,2.44q1.77-24.18,5.2-48.54l.46-.15Q271.75,216,282.8,235.7,268.41,240.08,254.25,245.27Z"/><path class="cls-2" d="M409.42,189.35q1.63-4.64,3.32-9.27c4.84-13.27,8.8-24.17,11.48-32.77s4.08-14.43,4-17.54-1.33-5.53-3.74-6.8-6.57-1.84-12.44-1.59a78.8,78.8,0,0,0-16.58,2.28A35.37,35.37,0,0,0,384,128.38a19.17,19.17,0,0,0-6.35,7.5c-4.82,9.16-10.91,32.63-15.66,70.36-2,16.9-3,31-3.4,42.25s-.06,18.95.65,23.06c1,5.68,3.47,9.1,7.41,10.33,2.17.44,3.28.66,3.35.65,4.58-.06,11-.64,19.29-1.51,8.87-.93,15.37-1.83,19.52-3s7.24-2.95,9.29-5.39a62.94,62.94,0,0,0,8.14-11.94c2.45-4.57,3.69-8.09,3.63-10.6,0-2.12-1.28-3.16-3.69-3.1-1.31,0-5.06.8-11.17,2.44-9.5,2.58-17,4.52-22.54,5.57,2.36-14.23,4.45-24.21,5.92-30Q403,207.24,409.42,189.35Z"/><path class="cls-2" d="M500.43,192q2.35-4.31,4.79-8.61c6.95-12.31,12.64-22.42,16.69-30.47s6.39-13.58,6.8-16.66c.45-3.23-.41-5.68-2.6-7.32s-6.2-2.88-12.05-3.59a79.72,79.72,0,0,0-16.76-.43,35.73,35.73,0,0,0-12.05,2.81,19.24,19.24,0,0,0-7.49,6.38c-6.26,8.26-16.08,30.44-26.9,66.9-4.76,16.35-8,30.09-10.21,41.15s-3.14,18.69-3.11,22.85c0,5.77,1.94,9.54,5.63,11.4,2.07.78,3.13,1.18,3.2,1.18,4.53.68,10.95,1.14,19.29,1.62,8.91.52,15.49.68,19.79.19s7.63-1.74,10.06-3.81a63.45,63.45,0,0,0,10-10.46c3.17-4.12,5-7.4,5.32-9.87.3-2.1-.75-3.34-3.15-3.67-1.3-.18-5.14,0-11.46.6-9.81,1-17.5,1.72-23.19,1.85,4.64-13.66,8.34-23.17,10.72-28.59Q491.19,208.63,500.43,192Z"/><path class="cls-2" d="M577.79,164.35c-5.32-1.26-9.88-.46-13.57,2.36-9.21,6.63-18.35,18.73-27.08,36.25s-13.87,33.8-16.24,48.55a60.59,60.59,0,0,0-.75,16.47,35.8,35.8,0,0,0,4.17,12.67c2.25,3.91,5,6.33,8.39,7.29l.23.05a12.21,12.21,0,0,0,7.41-.65c3.39-1.67,6.83-5.52,10.38-11.57,8.95-15,17.09-29.49,24.06-43.62s12.11-26.68,15-37.81c2-7.53,1.94-14.07-.27-19.62A16.17,16.17,0,0,0,577.79,164.35Z"/><path class="cls-2" d="M600.64,110.09a22.58,22.58,0,0,0-7.8-.81,17.93,17.93,0,0,0-6.58,2.22q-6.57,3.36-12.82,12.1c-4.15,5.82-6.65,11.21-7.62,16.09-1.91,9.79,1.73,15.72,10.84,18.12l.44.1c4.21,1,8.7.25,13.58-2.2a39.52,39.52,0,0,0,13.19-11,44.8,44.8,0,0,0,8.41-16.63c1.34-5,1.07-8.9-.84-11.72S605.93,111.43,600.64,110.09Z"/><path class="cls-2" d="M798.53,234.14a36.13,36.13,0,0,0-11.92-5.43,38.39,38.39,0,0,0-13.45-1,28.79,28.79,0,0,0-7.53,2.34c-7.81,3.5-19.39,12.48-34.26,27.27-9.64,9.25-17.45,16.77-23.56,22.44a70.6,70.6,0,0,1-.28-8.29,156.21,156.21,0,0,1,1.64-18q1.59-12.22,3.92-24.91c3.87-20.78,4.28-34,2-39.48-1.93-4.75-6.31-8.79-13.09-11.92A66.55,66.55,0,0,0,687.9,173a100.4,100.4,0,0,0-16.37-2.11c-5.67-.4-8.75.17-9.29,1.59q-.63,1.7,2.27,5.41c2.84,3.9,3.82,6.89,3,8.93-.61,1.55-2.78,3.78-6.45,6.72a170.57,170.57,0,0,0-18.45,18.07q-10.11,10.81-19.77,21.92-7.26,8.82-14.27,17.79c-2.5,2.83-4.49,5.28-6,7.33-8,9.47-14.59,16.89-19.89,22.16-4.6,4.62-7.16,8.1-7.83,10.35-.87,3,.3,4.95,3.51,5.94a28.68,28.68,0,0,0,12.53.83,44.54,44.54,0,0,0,13.48-4.19,43.61,43.61,0,0,0,7.7-5.27,72.71,72.71,0,0,0,7.43-7.33c2.74-3.05,6.56-7.68,11.56-13.85.52-.53,1.15-1.2,1.9-2s1.42-1.54,2-2.2c.66-.88,1.42-1.78,2.26-2.7a19.18,19.18,0,0,0,1.91-2.36q14.33-17.56,29.56-34.57l.44.2a115.18,115.18,0,0,0-1.79,12.8,646.89,646.89,0,0,0-3.83,74.41c-.1,13.93,1.79,22,6.32,24.57,1.77,1,4.13,1,7.12,0a24.92,24.92,0,0,0,5-2.23c7.59-4.41,21.48-15.56,42.93-32.34q1.49-1.06,3.72-2.88l3.71-2.61c11.91-8.9,22.26-16.25,30.83-22.29s15.57-10.93,20.89-14.84a151.18,151.18,0,0,0,12.44-9.92,16.43,16.43,0,0,0,3.23-3.7q2.55-3.65,2.31-5.91C801.83,237.18,800.68,235.65,798.53,234.14Z"/><path class="cls-2" d="M842.06,278.64a20,20,0,0,0-.17-10.23,15.57,15.57,0,0,0-5.07-7.91c-1.64-1.34-4.73-2.69-9.25-3.95a39.78,39.78,0,0,0-11.8-1.7c-2.93.14-5,1-6.14,2.61a6.45,6.45,0,0,0-1.3,3.79,24.62,24.62,0,0,0,1.38,6.59,22.65,22.65,0,0,1,1.5,7.75,9.55,9.55,0,0,1-2.12,5.64,13.42,13.42,0,0,1-6.73,4.25,6.76,6.76,0,0,0-3.49,2,4,4,0,0,0-.6,3.29,5.15,5.15,0,0,0,1.86,3.22l.2.16c2.39,1.62,6.74,2.26,13.12,2,11.49-.49,19.64-3.14,24.2-8.54A21.28,21.28,0,0,0,842.06,278.64Z"/><path class="cls-3" d="M385.12,247.34c-2.24-.17,9-53.57,10.13-56,.15-2.52,17.58-52.82,20.28-52.47,1.78.22-12.8,50.72-13,53.21C401.2,194.47,386.35,247.44,385.12,247.34Z"/><path class="cls-3" d="M469.8,245.48c-2.17-.53,16.92-51.37,18.4-53.57.54-2.45,25.15-49.3,27.75-48.53,1.75.5-20.06,48-20.71,50.4C493.65,195.93,471,245.77,469.8,245.48Z"/><path class="cls-3" d="M549.54,261.09c-.4-.2.72-2.69,2.68-6.29,1-1.79,2.06-3.94,3.25-6.22.59-1.14,1.21-2.32,1.85-3.52s1.17-2.45,1.76-3.69a229.94,229.94,0,0,0,9.06-21.27c.4-.9,4.75-10.69,8-20.61,1.6-5,3-9.92,4-13.66s1.62-6.22,2.14-6.13.93,2.78.8,6.75a92.76,92.76,0,0,1-1.76,14.39A136.71,136.71,0,0,1,575,222.38a163.17,163.17,0,0,1-11.42,20.83c-.76,1.19-1.53,2.38-2.27,3.55s-1.62,2.26-2.38,3.34c-1.55,2.15-3,4.17-4.36,5.79C551.84,259.18,549.94,261.29,549.54,261.09Z"/><path class="cls-3" d="M585.12,149.19c-.41-.3.22-1.22,1.37-2.39s2.55-2.78,3.79-4.45A43.85,43.85,0,0,0,594.7,135a55.91,55.91,0,0,0,4.43-7c1.91-3.44,3.15-7.07,4.27-6.88s2.08,4.43,1.54,8.52a24.9,24.9,0,0,1-2.46,8.37,32,32,0,0,1-7.23,7,30.68,30.68,0,0,1-6.31,3.44C587,149.15,585.53,149.5,585.12,149.19Z"/><path class="cls-3" d="M680.76,322.34c0-.1.17-.28.6-.53.22-.12.5-.27.82-.42l1-.68a75.52,75.52,0,0,0,6.16-4.51c4.93-3.95,11.31-9.47,17.7-15.12,12.77-11.3,25.87-22.86,27.07-23.83s14.38-11.48,27.74-21.29,26.79-19,27.67-18.27-11,11.31-23.38,22-25.12,21.55-26.33,22.52-15.15,11.8-29.05,22.2c-6.95,5.19-14,10.2-19.58,13.62a44.13,44.13,0,0,1-7.19,3.69l-1.27.45-1,.18C681.12,322.43,680.8,322.43,680.76,322.34Z"/><path class="cls-3" d="M815.33,286.6c-.24-.49.68-.86,1.87-1.51a15.38,15.38,0,0,0,3.84-2.71,17,17,0,0,0,3.61-6,30,30,0,0,0,3.14-6.3c1.25-3.24,1.9-6.85,2.9-6.48s2.3,5,2.3,9.27a21.77,21.77,0,0,1-1.4,8.47,14,14,0,0,1-6.5,5.38,14.62,14.62,0,0,1-6.26.95,9.45,9.45,0,0,1-2.38-.42A2,2,0,0,1,815.33,286.6Z"/><path class="cls-3" d="M144.7,265c-1,0,.92-5.85,1.78-11.43.15-1.37.31-2.75.46-4.06,0-1.25,0-2.42,0-3.45-.16-2-.38-3.34-.36-3.57s-.14-1.55-.34-3.41a19,19,0,0,0-2.11-6.06,19.88,19.88,0,0,0-4-5c-1.34-1.23-2.39-2-2.08-2.35s2.11-.42,4.28.27a16.63,16.63,0,0,1,6.59,4,17.42,17.42,0,0,1,4,6.24,30.88,30.88,0,0,1,1,3.78c0,.28,0,2-.25,4.33-.23,1.21-.48,2.59-.75,4.06-.45,1.48-.94,3-1.43,4.58C149.14,259.16,145.51,265,144.7,265Z"/><path class="cls-3" d="M183.12,336.82c-.94.09-.74-6.65-1.47-13.16-.28-1.59-.55-3.18-.8-4.7s-.76-2.81-1-4a18.35,18.35,0,0,0-1-2.84c-.28-.71-.45-1.17-.5-1.3-.19-.48-1.77-6.45-6-10.66a24.84,24.84,0,0,0-6.61-5c-2.09-1.12-3.69-1.65-3.52-2s2.3-.61,5.06-.06a22.54,22.54,0,0,1,8.83,4,25.91,25.91,0,0,1,3.72,3.3,42.23,42.23,0,0,1,2.6,3.47c.63,1.13,1.16,2.1,1.55,2.81a6.47,6.47,0,0,1,.59,1.39c0,.15.19.69.41,1.53a19,19,0,0,1,.69,3.32c.14,1.37.42,2.9.49,4.58s0,3.47,0,5.24a62.37,62.37,0,0,1-1.4,9.76C184.1,335,183.54,336.77,183.12,336.82Z"/><path class="cls-3" d="M339.12,268.45c0,.08-.36.09-1,0-.28-.08-.64-.19-1-.34a12.66,12.66,0,0,1-1.25-.65,29.11,29.11,0,0,1-6.09-5.27c-4.42-4.75-9.35-11.59-14.1-18.59-9.43-14-18.27-28.69-19.05-30S288.06,198,280.81,184s-14-27.94-12.89-28.35,9.57,12.76,18,26.37,16.73,27.65,17.47,28.94,8.61,16.3,16.71,30.76A223.09,223.09,0,0,0,332,261a37.74,37.74,0,0,0,4.83,5.69c.33.32.67.54.94.78l.75.53C338.91,268.19,339.16,268.36,339.12,268.45Z"/></svg>
