<svg id="Layer_1" data-name="Layer 1" xmlns="http://www.w3.org/2000/svg" width="694.43" height="957.89" viewBox="0 0 694.43 957.89"><defs><style>.cls-1{fill:#f1b999;}.cls-2{fill:#4f4a48;}.cls-3{fill:#fff;}</style></defs><title>mobilMedHånd</title><path class="cls-1" d="M876.94,851.48,1027,899c8.63,2.73,17.3,5.48,25.41,9.48,28.77,14.19,48,43.14,57.7,73.72s10.93,63.09,12.13,95.14" transform="translate(-713 -124)"/><path d="M877.47,848.55v4.54a.38.38,0,0,0,.75,0v-4.54a.38.38,0,0,0-.75,0Z" transform="translate(-713 -124)"/><path d="M1208.42,488.2l1.51-1.51a.38.38,0,0,0-.53-.53l-1.51,1.51a.37.37,0,0,0,.53.53Z" transform="translate(-713 -124)"/><path class="cls-1" d="M1414,1082" transform="translate(-713 -124)"/><path class="cls-1" d="M1099,861" transform="translate(-713 -124)"/><path class="cls-1" d="M1235.42,1047a1.5,1.5,0,0,0,0-3,1.5,1.5,0,0,0,0,3Z" transform="translate(-713 -124)"/><path class="cls-1" d="M1125.86,1048.69q3.95,15.13,6.57,30.54c.33,1.9,3.22,1.09,2.9-.8q-2.64-15.42-6.58-30.54c-.48-1.87-3.38-1.07-2.89.8Z" transform="translate(-713 -124)"/><path class="cls-1" d="M767.5,519.5l-.1,33.5c-29.86,0-54.4-15.15-54.4-33.5S737.53,486,767.38,486Z" transform="translate(-713 -124)"/><path class="cls-1" d="M767.5,594l.5,41h-.5c-24.41,0-44.5-18.51-44.5-41s20.09-41,44.5-41h.42Z" transform="translate(-713 -124)"/><path class="cls-1" d="M767.5,673.5l-.26,38.5c-24.31-.12-44.24-17.46-44.24-38.5s19.92-38.37,44.23-38.5Z" transform="translate(-713 -124)"/><path class="cls-1" d="M768,748.5l.36,36.5H768c-17.55,0-32-16.48-32-36.5,0-19.85,14.2-36.25,31.61-36.5Z" transform="translate(-713 -124)"/><path class="cls-1" d="M1297,811.71c1.68-40.21,3.22-81.43-9.25-119.69-5.86-17.95-14.66-34.77-23.29-51.56-22.75-44.27-44.86-90-51.69-139.28-3.15-22.77-3-46-8.43-68.37-2.93-12-8.94-25.08-20.77-28.63-10.7-3.21-22.67,3.3-28.14,13S1150,439,1152.9,449.8l-19,401.68-.05,1,161.5.61c.11-5.65.33-11.3.57-16.91Z" transform="translate(-713 -124)"/><path class="cls-1" d="M1121,1080.8a5.57,5.57,0,0,1,.92-.52l12-227.8-256.36-1S1105.43,1063.63,1121,1080.8Z" transform="translate(-713 -124)"/><path class="cls-1" d="M1295.36,853.09h0c-.37,19.37.65,38.78,7.58,56.71,4.21,10.88,10.46,20.83,16.68,30.71L1407.43,1080Z" transform="translate(-713 -124)"/><path class="cls-1" d="M1279,835l-126-7.67-30.77,252.82a4.62,4.62,0,0,1,1.56-.28c.86,0,1.71,0,2.57-.07l.08,0c.51-.15,1-.26,1.53-.42a4.84,4.84,0,0,1,5.31,1.9l2.21,0a4.86,4.86,0,0,1,2.52.65l269-1.89Z" transform="translate(-713 -124)"/><path class="cls-1" d="M1082,861l110-26-39,242-95-98s22-92,23-105Z" transform="translate(-713 -124)"/><path class="cls-1" d="M1126.38,1047c7.26-.41,15.81-3,19-10.33,2.24-5.16.72-12.24-4.13-15.4-5.66-3.67-12,.1-14.94,5.32-5.15,9.12-.59,19.76-4.22,29.25l1.85-1a9.09,9.09,0,0,1-6.22-6.69l-2.21,1.69c8.58,4,7.69,15.39,6.47,23.23a1.5,1.5,0,0,0,2.89.8l9.5-28.25,4.44-13.18c1.91-5.68,3-13.78,10.16-14.56,3.78-.41,7.72.28,11.5.47q6.76.33,13.55.23a173.71,173.71,0,0,0,26.46-2.07c6-1,12.35-3.16,15.6-8.73,3.06-5.25,2.4-11.65,1.33-17.37-3.58-19.25-8.41-38.35-12.63-57.47l-1.85,1.85a56.58,56.58,0,0,1,25.87,14.32c1.39,1.34,3.52-.78,2.12-2.12a59.62,59.62,0,0,0-27.19-15.09,1.51,1.51,0,0,0-1.84,1.84c4.11,18.64,8.53,37.25,12.33,55.95,1.9,9.37,1.68,19-8.81,22.57-8,2.73-17.24,2.81-25.59,3.16-8.89.37-17.68-.12-26.56-.53-5.58-.27-10.71.51-13.52,5.87-3.81,7.27-5.65,16.31-8.26,24.06L1122,1073l2.89.8c1.43-9.15,2.11-22-7.84-26.62a1.53,1.53,0,0,0-2.21,1.7,12.25,12.25,0,0,0,8.32,8.78,1.52,1.52,0,0,0,1.84-1c2.19-5.71,1.61-11.49,1.59-17.48,0-5.48,1.26-13.85,7.44-15.86,6.68-2.18,10.69,5.48,9,11.17-2,6.86-10.33,9.18-16.6,9.54-1.92.11-1.93,3.11,0,3Z" transform="translate(-713 -124)"/><path class="cls-1" d="M1293.43,860.49a1.5,1.5,0,0,0,0-3,1.5,1.5,0,0,0,0,3Z" transform="translate(-713 -124)"/><path class="cls-1" d="M1294.12,862.55a1.5,1.5,0,0,0,0-3,1.5,1.5,0,0,0,0,3Z" transform="translate(-713 -124)"/><path class="cls-1" d="M1294.12,865.3a1.5,1.5,0,0,0,0-3,1.5,1.5,0,0,0,0,3Z" transform="translate(-713 -124)"/><path class="cls-1" d="M1288.62,852.23a1.5,1.5,0,0,0,0-3,1.5,1.5,0,0,0,0,3Z" transform="translate(-713 -124)"/><path class="cls-1" d="M1290,859.8a1.5,1.5,0,0,0,0-3,1.5,1.5,0,0,0,0,3Z" transform="translate(-713 -124)"/><path class="cls-1" d="M1290,856.36a1.5,1.5,0,0,0,0-3,1.5,1.5,0,0,0,0,3Z" transform="translate(-713 -124)"/><path class="cls-1" d="M1293.43,859.11a1.5,1.5,0,0,0,0-3,1.5,1.5,0,0,0,0,3Z" transform="translate(-713 -124)"/><path class="cls-1" d="M1292.06,855.67a1.5,1.5,0,0,0,0-3,1.5,1.5,0,0,0,0,3Z" transform="translate(-713 -124)"/><path class="cls-1" d="M1287.8,853.48a16,16,0,0,0,2.32,9.67c1,1.65,3.61.14,2.6-1.51a13.15,13.15,0,0,1-1.92-8.16c.15-1.92-2.85-1.91-3,0Z" transform="translate(-713 -124)"/><path class="cls-1" d="M1289.33,855l3.53,6.83c.89,1.71,3.48.2,2.59-1.52l-3.52-6.83c-.89-1.71-3.48-.2-2.6,1.52Z" transform="translate(-713 -124)"/><path class="cls-1" d="M1292.36,855.38a44.48,44.48,0,0,1,2.17,20.78c-.25,1.91,2.75,1.89,3,0a46.29,46.29,0,0,0-2.28-21.58c-.63-1.81-3.53-1-2.89.8Z" transform="translate(-713 -124)"/><path class="cls-1" d="M1290.49,849.1a70.11,70.11,0,0,0,6.28,16.93c.9,1.71,3.49.2,2.59-1.51a67.14,67.14,0,0,1-6-16.22c-.43-1.88-3.33-1.09-2.89.8Z" transform="translate(-713 -124)"/><path class="cls-1" d="M1112.75,854.74a33.88,33.88,0,0,1,8.78,1.28,1.5,1.5,0,0,0,.8-2.89,37,37,0,0,0-9.58-1.39,1.5,1.5,0,0,0,0,3Z" transform="translate(-713 -124)"/><path class="cls-1" d="M1097.17,854.05q15.33,1.28,30.71,1.22a1.5,1.5,0,0,0,0-3q-15.39.06-30.71-1.22c-1.92-.16-1.91,2.84,0,3Z" transform="translate(-713 -124)"/><path class="cls-1" d="M1094.86,854.29a287.86,287.86,0,0,1,36.68-.8c1.93.09,1.93-2.91,0-3a287.86,287.86,0,0,0-36.68.8c-1.91.16-1.93,3.16,0,3Z" transform="translate(-713 -124)"/><path class="cls-1" d="M1052.64,854.19q9.67.88,19.33,2.06c1.91.24,1.9-2.76,0-3q-9.65-1.17-19.33-2.06c-1.92-.18-1.91,2.82,0,3Z" transform="translate(-713 -124)"/><path class="cls-1" d="M1063.68,852.81l23.46.42c4.63.08,8.4.2,12.72,2.26,3.87,1.85,7.64,4,11.45,6,1.71.89,3.23-1.7,1.51-2.59-7.14-3.72-13.81-8.29-22-8.56-9-.29-18.07-.32-27.09-.48-1.93,0-1.93,3,0,3Z" transform="translate(-713 -124)"/><path class="cls-1" d="M988.46,853.38h82.09a1.5,1.5,0,0,0,0-3H988.46a1.5,1.5,0,0,0,0,3Z" transform="translate(-713 -124)"/><path class="cls-1" d="M1097.62,852.34c11.05,1.31,23.66,2.83,33.11,9.17,1.6,1.08,3.11-1.51,1.51-2.59-10-6.68-23-8.2-34.62-9.58-1.92-.23-1.9,2.77,0,3Z" transform="translate(-713 -124)"/><path class="cls-1" d="M1101.28,852h33.48a1.5,1.5,0,0,0,0-3h-33.48a1.5,1.5,0,0,0,0,3Z" transform="translate(-713 -124)"/><path class="cls-1" d="M879.32,852.46a1.5,1.5,0,0,0,0-3,1.5,1.5,0,0,0,0,3Z" transform="translate(-713 -124)"/><path class="cls-1" d="M878.4,853.38a1.5,1.5,0,0,0,0-3,1.5,1.5,0,0,0,0,3Z" transform="translate(-713 -124)"/><path class="cls-1" d="M878.4,852a1.5,1.5,0,0,0,0-3,1.5,1.5,0,0,0,0,3Z" transform="translate(-713 -124)"/><path class="cls-1" d="M878.81,854.76a8.8,8.8,0,0,1,6.64,1.61c1.59,1.11,3.09-1.49,1.52-2.59a11.85,11.85,0,0,0-9-1.91c-1.9.32-1.09,3.21.8,2.89Z" transform="translate(-713 -124)"/><path class="cls-1" d="M877.73,854.82a32.54,32.54,0,0,0,10.76,2.63c1.93.13,1.92-2.87,0-3a28.21,28.21,0,0,1-9.25-2.22c-1.75-.75-3.28,1.83-1.51,2.59Z" transform="translate(-713 -124)"/><path class="cls-1" d="M875.34,851.82,880,854c1.74.82,3.26-1.76,1.52-2.59l-4.64-2.2c-1.73-.82-3.26,1.76-1.51,2.59Z" transform="translate(-713 -124)"/><path class="cls-1" d="M883,852.54l110.06,1.93c1.93,0,1.93-3,0-3L883,849.54a1.5,1.5,0,0,0,0,3Z" transform="translate(-713 -124)"/><path class="cls-1" d="M880.34,851.68a283,283,0,0,1,44.45,10.8c1.83.6,2.62-2.29.79-2.9a283.76,283.76,0,0,0-44.45-10.79c-1.88-.3-2.7,2.59-.79,2.89Z" transform="translate(-713 -124)"/><path class="cls-1" d="M975.63,852.28q41-1.32,82.09.49c1.93.09,1.93-2.91,0-3q-41-1.8-82.09-.49c-1.92.06-1.93,3.06,0,3Z" transform="translate(-713 -124)"/><path class="cls-1" d="M1050,851.81c5.94,1,11.88-1.52,17.73-.22,2.22.49,4.17,1.5,6.46,1.76,3.66.42,7.36-.2,11,0,1.92.13,1.92-2.87,0-3-3.09-.21-6.14.23-9.21.08s-5.94-1.62-9.07-2.07c-5.41-.79-10.71,1.43-16.14.51-1.89-.32-2.7,2.57-.8,2.89Z" transform="translate(-713 -124)"/><path class="cls-1" d="M1096.24,849.92h-2.3a1.5,1.5,0,0,0,0,3h2.3a1.5,1.5,0,0,0,0-3Z" transform="translate(-713 -124)"/><path class="cls-1" d="M1071.93,852q15.38.35,30.72-.46c1.92-.1,1.94-3.1,0-3q-15.35.81-30.72.46c-1.93,0-1.93,3,0,3Z" transform="translate(-713 -124)"/><path class="cls-1" d="M942.15,851.9a349.27,349.27,0,0,0,35.3-.07c1.92-.1,1.93-3.1,0-3a349.27,349.27,0,0,1-35.3.07c-1.93-.09-1.92,2.91,0,3Z" transform="translate(-713 -124)"/><path class="cls-1" d="M885.74,852l57.62.23a1.5,1.5,0,0,0,0-3l-14.51-.31c-1.93,0-1.93,3,0,3l14.51.31v-3L885.74,849a1.5,1.5,0,0,0,0,3Z" transform="translate(-713 -124)"/><path class="cls-2" d="M763,348.5a3.5,3.5,0,0,1-3.5-3.5V316a3.5,3.5,0,0,1,7,0v29A3.5,3.5,0,0,1,763,348.5Z" transform="translate(-713 -124)"/><path d="M763,313a3,3,0,0,1,3,3v29a3,3,0,0,1-6,0V316a3,3,0,0,1,3-3m0-1a4,4,0,0,0-4,4v29a4,4,0,0,0,8,0V316a4,4,0,0,0-4-4Z" transform="translate(-713 -124)"/><rect x="54.5" y="0.5" width="385" height="724" rx="11.5"/><path d="M1141,125a11,11,0,0,1,11,11V837a11,11,0,0,1-11,11H779a11,11,0,0,1-11-11V136a11,11,0,0,1,11-11h362m0-1H779a12,12,0,0,0-12,12V837a12,12,0,0,0,12,12h362a12,12,0,0,0,12-12V136a12,12,0,0,0-12-12Z" transform="translate(-713 -124)"/><rect class="cls-3" x="86.5" y="82.5" width="320" height="534"/><path d="M1119,207V740H800V207h319m1-1H799V741h321V206Z" transform="translate(-713 -124)"/><circle class="cls-2" cx="246.5" cy="675.5" r="35"/><path d="M959.5,765A34.5,34.5,0,1,1,925,799.5,34.54,34.54,0,0,1,959.5,765m0-1A35.5,35.5,0,1,0,995,799.5,35.5,35.5,0,0,0,959.5,764Z" transform="translate(-713 -124)"/><circle class="cls-2" cx="176.5" cy="48.5" r="10"/><path d="M889.5,163a9.5,9.5,0,1,1-9.5,9.5,9.51,9.51,0,0,1,9.5-9.5m0-1A10.5,10.5,0,1,0,900,172.5,10.5,10.5,0,0,0,889.5,162Z" transform="translate(-713 -124)"/><path class="cls-2" d="M918.5,176.5a4,4,0,0,1,0-8h97a4,4,0,0,1,0,8Z" transform="translate(-713 -124)"/><path d="M1015.5,169a3.5,3.5,0,0,1,0,7h-97a3.5,3.5,0,0,1,0-7h97m0-1h-97a4.5,4.5,0,0,0,0,9h97a4.5,4.5,0,0,0,0-9Z" transform="translate(-713 -124)"/><circle class="cls-2" cx="247" cy="25" r="6.5"/><path d="M960,143a6,6,0,1,1-6,6,6,6,0,0,1,6-6m0-1a7,7,0,1,0,7,7,7,7,0,0,0-7-7Z" transform="translate(-713 -124)"/><rect class="cls-2" x="440.5" y="132.5" width="8" height="55" rx="2.5"/><path d="M1159,257a2,2,0,0,1,2,2v50a2,2,0,0,1-2,2h-3a2,2,0,0,1-2-2V259a2,2,0,0,1,2-2h3m0-1h-3a3,3,0,0,0-3,3v50a3,3,0,0,0,3,3h3a3,3,0,0,0,3-3V259a3,3,0,0,0-3-3Z" transform="translate(-713 -124)"/><path class="cls-2" d="M763,292.5a3.5,3.5,0,0,1-3.5-3.5V260a3.5,3.5,0,0,1,7,0v29A3.5,3.5,0,0,1,763,292.5Z" transform="translate(-713 -124)"/><path d="M763,257a3,3,0,0,1,3,3v29a3,3,0,0,1-6,0V260a3,3,0,0,1,3-3m0-1a4,4,0,0,0-4,4v29a4,4,0,0,0,8,0V260a4,4,0,0,0-4-4Z" transform="translate(-713 -124)"/><path class="cls-3" d="M1176.69,404.64q-.57,31.65,1.29,63.28c.17,2.95.41,6.05,2,8.52a14.49,14.49,0,0,0,4,3.77,46.28,46.28,0,0,0,24.13,8.29s2.7-7.35.79-26.42,2.66-2.2-4.12-27.14.36-6.82-11.72-24.88S1176.69,404.64,1176.69,404.64Z" transform="translate(-713 -124)"/><path d="M1176.68,404.64c-.35,20.77,0,41.56,1.22,62.3.4,6.6,1.84,10.58,7.51,14.25a47.65,47.65,0,0,0,22.71,7.33h0c2.85-8.06,1.55-18.22.79-26.43-.46-5.08.29-10.32-.93-15.25-1.62-6.57-3.59-13.06-5.21-19.64-.51-2.09-.64-5.17-1.74-7.08a21.78,21.78,0,0,0-2.72-2.89c-4.12-4.78-6.79-11.05-11.9-14.93-3.74-2.84-8.07-2.35-9.74,2.35,0,0,0,0,0,0,4.93-13.85,18.49,9.35,22.32,13.42,1.42,1.52,2,2.15,2.56,4.2,1.77,7,3.56,14,5.42,20.95,2.12,7.93,1.83,16.19,2.34,24.41a102.19,102.19,0,0,1,.13,11.34c-.12,2.38,0,5.75-1,8-1.14,2.53-1.63,1.64-5.53,1a46.29,46.29,0,0,1-16.1-5.86c-3.39-2-6.83-4.34-8.08-8.28-1-3.09-.87-6.61-1-9.82q-.54-9.87-.83-19.76-.6-19.79-.23-39.57A0,0,0,1,0,1176.68,404.64Z" transform="translate(-713 -124)"/></svg>
